<svg width="60" height="53" viewBox="0 0 60 53" fill="none" xmlns="http://www.w3.org/2000/svg">
<rect y="0.443359" width="60" height="52.5407" rx="12" fill="#EFF5F9"/>
<path d="M23.5 33.2136V25.0886M30 33.2136V20.2136M36.5 33.2136V29.9636M39.75 13.7136H20.25C19.388 13.7136 18.5614 14.056 17.9519 14.6655C17.3424 15.275 17 16.1017 17 16.9636V36.4636C17 37.3256 17.3424 38.1522 17.9519 38.7617C18.5614 39.3712 19.388 39.7136 20.25 39.7136H39.75C40.612 39.7136 41.4386 39.3712 42.0481 38.7617C42.6576 38.1522 43 37.3256 43 36.4636V16.9636C43 16.1017 42.6576 15.275 42.0481 14.6655C41.4386 14.056 40.612 13.7136 39.75 13.7136Z" stroke="#0075C4" stroke-width="1.5" stroke-linecap="round" stroke-linejoin="round"/>
</svg>
