<svg width="60" height="61" viewBox="0 0 60 61" fill="none" xmlns="http://www.w3.org/2000/svg">
<rect y="0.101807" width="60" height="60" rx="12" fill="#EFF5F9"/>
<path d="M21.6323 32.1057L15.5957 36.9837V17.4715C15.5957 17.148 15.7242 16.8378 15.9529 16.6091C16.1816 16.3804 16.4918 16.252 16.8152 16.252H36.3274C36.6508 16.252 36.961 16.3804 37.1897 16.6091C37.4184 16.8378 37.5469 17.148 37.5469 17.4715V30.8861C37.5469 31.2096 37.4184 31.5197 37.1897 31.7484C36.961 31.9772 36.6508 32.1057 36.3274 32.1057H21.6323Z" stroke="#0075C4" stroke-width="1.95122" stroke-linecap="round" stroke-linejoin="round"/>
<path d="M22.9141 32.1057V38.2032C22.9141 38.5267 23.0425 38.8368 23.2712 39.0655C23.5 39.2943 23.8102 39.4227 24.1336 39.4227H38.8287L44.8653 44.3008V24.7886C44.8653 24.4651 44.7368 24.1549 44.5081 23.9263C44.2794 23.6976 43.9692 23.5691 43.6458 23.5691H37.5482" stroke="#0075C4" stroke-width="1.95122" stroke-linecap="round" stroke-linejoin="round"/>
</svg>
