<svg width="36" height="36" viewBox="0 0 36 36" fill="none" xmlns="http://www.w3.org/2000/svg">
<g id="circum:mobile-2">
<path id="Vector" d="M17.9993 27.83C18.8048 27.83 19.4577 27.1771 19.4577 26.3717C19.4577 25.5662 18.8048 24.9133 17.9993 24.9133C17.1939 24.9133 16.541 25.5662 16.541 26.3717C16.541 27.1771 17.1939 27.83 17.9993 27.83Z" fill="#0075C4"/>
<path id="Vector_2" d="M24.8927 32.2051H11.1056C10.1906 32.1505 9.33426 31.7368 8.72276 31.0541C8.11127 30.3713 7.79414 29.4747 7.84037 28.5592V6.868C7.79414 5.9526 8.11127 5.05597 8.72276 4.3732C9.33426 3.69043 10.1906 3.27675 11.1056 3.22217H24.8927C25.8076 3.27675 26.664 3.69043 27.2755 4.3732C27.887 5.05597 28.2041 5.9526 28.1579 6.868V28.5592C28.2041 29.4747 27.887 30.3713 27.2755 31.0541C26.664 31.7368 25.8076 32.1505 24.8927 32.2051ZM11.1056 4.6805C10.5781 4.73622 10.0934 4.99648 9.75563 5.40544C9.41783 5.8144 9.25379 6.33947 9.2987 6.868V28.5592C9.25379 29.0878 9.41783 29.6129 9.75563 30.0218C10.0934 30.4308 10.5781 30.691 11.1056 30.7467H24.8927C25.4202 30.691 25.9048 30.4308 26.2426 30.0218C26.5804 29.6129 26.7444 29.0878 26.6995 28.5592V6.868C26.7444 6.33947 26.5804 5.8144 26.2426 5.40544C25.9048 4.99648 25.4202 4.73622 24.8927 4.6805H11.1056Z" fill="#0075C4"/>
</g>
</svg>
