<svg width="30" height="31" viewBox="0 0 30 31" fill="none" xmlns="http://www.w3.org/2000/svg">
<path id="Vector" d="M15 0.342285C6.75 0.342285 0 7.09229 0 15.3423C0 23.5923 6.75 30.3423 15 30.3423C23.25 30.3423 30 23.5923 30 15.3423C30 7.09229 23.25 0.342285 15 0.342285ZM15 27.3423C8.385 27.3423 3 21.9573 3 15.3423C3 8.72729 8.385 3.34229 15 3.34229C21.615 3.34229 27 8.72729 27 15.3423C27 21.9573 21.615 27.3423 15 27.3423ZM21.885 8.71229L12 18.5973L8.115 14.7273L6 16.8423L12 22.8423L24 10.8423L21.885 8.71229Z" fill="#0075C4"/>
</svg>
