<svg width="24" height="32" viewBox="0 0 24 32" fill="none" xmlns="http://www.w3.org/2000/svg">
<path d="M10.4524 8.63234H10.4556H10.4655H10.4755H10.4854H10.4953H10.5053H10.5152H10.5252H10.5351H10.5451H10.555H10.565H10.5749H10.5849H10.5949H10.6048H10.6148H10.6248H10.6347H10.6447H10.6547H10.6647H10.6747H10.6846H10.6946H10.7046H10.7146H10.7246H10.7346H10.7445H10.7545H10.7645H10.7745H10.7845H10.7945H10.8045H10.8145H10.8245H10.8345H10.8445H10.8544H10.8644H10.8744H10.8844H10.8944H10.9044H10.9144H10.9244H10.9344H10.9444H10.9544H10.9644H10.9744H10.9844H10.9944H11.0043H11.0143H11.0243H11.0343H11.0443H11.0543H11.0642H11.0742H11.0842H11.0942H11.1042H11.1141H11.1241H11.1341H11.1441H11.154H11.164H11.1739H11.1839H11.1939H11.2038H11.2138H11.2237H11.2337H11.2436H11.2536H11.2635H11.2734H11.2834H11.2933H11.3032H11.3132H11.3231H11.333H11.3429H11.3528H11.3627H11.3726H11.3825H11.3924H11.4023H11.4122H11.4221H11.432H11.4419H11.4517H11.4616H11.4715H11.4813H11.4912H11.5011H11.5109H11.5207H11.5306H11.5404H11.5502H11.5601H11.5699H11.5797H11.5895H11.5993H11.6091H11.6189H11.6287H11.6385H11.6482H11.658H11.6678H11.6775H11.6873H11.697H11.7068H11.7165H11.7262H11.7359H11.7457H11.7554H11.7651H11.7748H11.7844H11.7941H11.8038H11.8135H11.8231H11.8328H11.8424H11.8521H11.8617H11.8713H11.8809H11.8905H11.9001H11.9097H11.9193H11.9289H11.9385H11.948H11.9576H11.9671H11.9767H11.9862H11.9957H12.0052H12.0147H12.0242H12.0337H12.0432H12.0527H12.0621H12.0716H12.081H12.0905H12.0999H12.1093H12.1187H12.1281H12.1375H12.1469H12.1563H12.1656H12.175H12.1843H12.1936H12.203H12.2123H12.2216H12.2309H12.2401H12.2494H12.2587H12.2679H12.2772H12.2864H12.2956H12.3048H12.314H12.3232H12.3324H12.3415H12.3507H12.3598H12.3689H12.3781H12.3872H12.3963H12.4053H12.4144H12.4235H12.4325H12.4416H12.4506H12.4596H12.4686H12.4776H12.4866H12.4955H12.5045H12.5134H12.5223H12.5313H12.5402H12.549H12.5579H12.5668H12.5756H12.5845H12.5933H12.6021H12.6109H12.6197H12.6285H12.6372H12.646H12.6547H12.6634H12.6721H12.6808H12.6895H12.6981H12.7068H12.7154H12.724H12.7326H12.7412H12.7498H12.7584H12.7669H12.7754H12.7839H12.7924H12.8009H12.8094H12.8179H12.8263H12.8347H12.8431H12.8515H12.8599H12.8683H12.8766H12.885H12.8933H12.9016H12.9099H12.9182H12.9264H12.9346H12.9429H12.9511H12.9593H12.9674H12.9756H12.9837H12.9919H13H13.0081H13.0161H13.0242H13.0322H13.0403H13.0483H13.0563H13.0642H13.0722H13.0801H13.088H13.0959H13.1038H13.1117H13.1195H13.1274H13.1352H13.143H13.1508H13.1585H13.1663H13.174H13.1817H13.1894H13.197H13.2047H13.2123H13.2199H13.2275H13.2351H13.2427H13.2502H13.2577H13.2652H13.2727H13.2802H13.2876H13.295H13.3024H13.3098H13.3172H13.3245H13.3318H13.3391H13.3464H13.3537H13.3609H13.3681H13.3753H13.3825H13.3897H13.3968H13.4039H13.411H13.4181H13.4252H13.4322H13.4392H13.4462H13.4532H13.4602H13.4671H13.474H13.4809H13.4878H13.4946H13.5014H13.5082H13.515H13.5218H13.5285H13.5352H13.5419H13.5486H13.5553H13.5619H13.5685H13.5751H13.5816H13.5882H13.5947H13.6012H13.6076H13.6141H13.6205H13.6269H13.6333H13.6397H13.646H13.6523H13.6586H13.6648H13.6711H13.6773H13.6835H13.6896H13.6958H13.7019H13.708H13.7141H13.7201H13.7262H13.7322H13.7381H13.7441H13.75H13.7559H13.7618H13.7676H13.7735H13.7793H13.785H13.7908H13.7965H13.8022H13.8079H13.8136H13.8192H13.8248H13.8304H13.8359H13.8414H13.8469H13.8524H13.8579H13.8633H13.8687H13.874H13.8794H13.8847H13.89H13.8953H13.9005H13.9057H13.9109H13.916H13.9212H13.9263H13.9314H13.9364H13.9414H13.9464H13.9514H13.9563H13.9613H13.9661H13.971H13.9758H13.9806H13.9854H13.9902H13.9949H13.9996H14.0042H14.0089H14.0135H14.0181H14.0226H14.0272H14.0316H14.0361H14.0406H14.045H14.0493H14.0537H14.058H14.0623H14.0666H14.0708H14.075H14.0792H14.0834H14.0875H14.0916H14.0956H14.0997H14.1037H14.1076H14.1116H14.1155H14.1194H14.1232H14.127H14.1308H14.1346H14.1383H14.142H14.1457H14.1493H14.1529H14.1565H14.1601H14.1636H14.1671H14.1705H14.1739H14.1773H14.1807H14.184H14.1873H14.1906H14.1938H14.197H14.2002H14.2033H14.2065H14.2095H14.2126H14.2156H14.2186H14.2215H14.2244H14.2273H14.2302H14.233H14.2358H14.2385H14.2412H14.2439H14.2466H14.2492H14.2518H14.2544H14.2569H14.2594H14.2618H14.2642H14.2666H14.269H14.2713H14.2736H14.2759H14.2781H14.2803H14.2824H14.2845H14.2866H14.2887H14.2907H14.2927H14.2946H14.2965H14.2984C15.8736 8.63234 16.6894 9.48419 17.2753 10.0959C17.2929 10.1143 17.3103 10.1325 17.3276 10.1505C17.3277 10.1506 17.3278 10.1507 17.3279 10.1508L23.0158 16.0904L23.0165 16.0911C23.3278 16.4154 23.3278 16.9497 23.0165 17.274C22.7216 17.5811 22.2601 17.5811 21.9653 17.274L17.0634 12.1687L15.7724 10.8242V12.6882V29.9419C15.7724 30.4234 15.3989 30.7676 15.0095 30.7676C14.62 30.7676 14.2466 30.4234 14.2466 29.9419V22.0635V21.3135H13.4966H10.4707H9.72073V22.0635V29.9419C9.72073 30.4234 9.34726 30.7676 8.95781 30.7676C8.56837 30.7676 8.19489 30.4234 8.19489 29.9419V10.5768V10.0256L7.66883 9.86097C4.12259 8.7515 1.38231 5.60387 0.758152 1.68863C0.687577 1.17945 1.08254 0.753906 1.52939 0.753906C1.86408 0.753906 2.2013 1.01414 2.27109 1.45939L2.27105 1.4594L2.27235 1.46715C2.94831 5.50226 6.33785 8.61491 10.4524 8.63234ZM14.2595 3.15528C14.2595 4.51055 13.2121 5.55665 11.9837 5.55665C10.7552 5.55665 9.70783 4.51055 9.70783 3.15528C9.70783 1.80001 10.7552 0.753906 11.9837 0.753906C13.2121 0.753906 14.2595 1.80001 14.2595 3.15528Z" stroke="#EC6B46" stroke-width="1.5"/>
</svg>
