<svg width="63" height="62" viewBox="0 0 63 62" fill="none" xmlns="http://www.w3.org/2000/svg">
<rect x="0.140625" y="0.549072" width="62.0065" height="60.9645" rx="12" fill="#EFF5F9"/>
<path d="M30.9647 38.7452C34.3324 38.7452 37.0623 36.0152 37.0623 32.6476C37.0623 29.2801 34.3324 26.55 30.9647 26.55C27.5971 26.55 24.8672 29.2801 24.8672 32.6476C24.8672 36.0152 27.5971 38.7452 30.9647 38.7452Z" stroke="#0075C4" stroke-width="1.95122" stroke-linecap="round" stroke-linejoin="round"/>
<path d="M41.332 28.989C42.7523 28.9866 44.1536 29.3161 45.424 29.9514C46.6944 30.5866 47.7988 31.5098 48.6491 32.6476" stroke="#0075C4" stroke-width="1.95122" stroke-linecap="round" stroke-linejoin="round"/>
<path d="M13.2812 32.6476C14.1316 31.5098 15.236 30.5866 16.5063 29.9514C17.7767 29.3161 19.178 28.9866 20.5983 28.989" stroke="#0075C4" stroke-width="1.95122" stroke-linecap="round" stroke-linejoin="round"/>
<path d="M22.1836 44.2329C22.9867 42.5882 24.2356 41.2022 25.788 40.2326C27.3403 39.2632 29.1338 38.749 30.9641 38.749C32.7943 38.749 34.5879 39.2632 36.1403 40.2326C37.6927 41.2022 38.9414 42.5882 39.7446 44.2329" stroke="#0075C4" stroke-width="1.95122" stroke-linecap="round" stroke-linejoin="round"/>
<path d="M20.6018 28.989C19.6759 28.9899 18.7689 28.7274 17.9867 28.232C17.2046 27.7366 16.5795 27.0289 16.1847 26.1914C15.7898 25.354 15.6414 24.4215 15.7568 23.5028C15.8722 22.5842 16.2467 21.7175 16.8364 21.0037C17.4262 20.29 18.2069 19.7589 19.0873 19.4723C19.9677 19.1858 20.9114 19.1558 21.8083 19.3857C22.7052 19.6157 23.5181 20.0961 24.152 20.7709C24.786 21.4457 25.2147 22.2869 25.3883 23.1963" stroke="#0075C4" stroke-width="1.95122" stroke-linecap="round" stroke-linejoin="round"/>
<path d="M36.5469 23.1963C36.7205 22.2869 37.1493 21.4457 37.7833 20.7709C38.4172 20.0961 39.2301 19.6157 40.127 19.3857C41.0238 19.1558 41.9676 19.1858 42.8479 19.4723C43.7283 19.7589 44.509 20.29 45.0988 21.0037C45.6885 21.7175 46.0631 22.5842 46.1785 23.5028C46.2939 24.4215 46.1454 25.354 45.7506 26.1914C45.3558 27.0289 44.7307 27.7366 43.9485 28.232C43.1664 28.7274 42.2594 28.9899 41.3335 28.989" stroke="#0075C4" stroke-width="1.95122" stroke-linecap="round" stroke-linejoin="round"/>
</svg>
