<svg width="63" height="63" viewBox="0 0 63 63" fill="none" xmlns="http://www.w3.org/2000/svg">
<rect x="0.140625" y="0.0151367" width="62" height="62" rx="12" fill="#EFF5F9"/>
<g clip-path="url(#clip0_6201_66250)">
<path d="M40.3993 16.29C41.7633 16.29 43.0714 16.8344 44.0359 17.8033C45.0004 18.7723 45.5422 20.0864 45.5422 21.4567V40.0567C45.5422 41.427 45.0004 42.7412 44.0359 43.7101C43.0714 44.679 41.7633 45.2234 40.3993 45.2234H34.2279V43.1567H40.3993C41.2177 43.1567 42.0026 42.8301 42.5813 42.2487C43.1599 41.6674 43.485 40.8789 43.485 40.0567V24.5567H18.7993V40.0567C18.7993 40.8789 19.1244 41.6674 19.7031 42.2487C20.2818 42.8301 21.0667 43.1567 21.885 43.1567H28.0565V45.2234H21.885C20.5211 45.2234 19.213 44.679 18.2485 43.7101C17.284 42.7412 16.7422 41.427 16.7422 40.0567V21.4567C16.7422 20.0864 17.284 18.7723 18.2485 17.8033C19.213 16.8344 20.5211 16.29 21.885 16.29H40.3993ZM40.3993 18.3567H21.885C21.0667 18.3567 20.2818 18.6833 19.7031 19.2647C19.1244 19.846 18.7993 20.6345 18.7993 21.4567V22.49H43.485V21.4567C43.485 20.6345 43.1599 19.846 42.5813 19.2647C42.0026 18.6833 41.2177 18.3567 40.3993 18.3567ZM33.1993 28.69C33.1993 29.2382 32.9826 29.7638 32.5968 30.1514C32.211 30.539 31.6878 30.7567 31.1422 30.7567C30.5966 30.7567 30.0734 30.539 29.6876 30.1514C29.3018 29.7638 29.085 29.2382 29.085 28.69C29.085 28.1419 29.3018 27.6163 29.6876 27.2287C30.0734 26.8411 30.5966 26.6234 31.1422 26.6234C31.6878 26.6234 32.211 26.8411 32.5968 27.2287C32.9826 27.6163 33.1993 28.1419 33.1993 28.69ZM35.0178 39.168C34.8432 39.3784 34.5926 39.5106 34.321 39.5354C34.0494 39.5602 33.7792 39.4756 33.5696 39.3003L32.1708 38.1306V46.2567C32.1708 46.5308 32.0624 46.7936 31.8695 46.9874C31.6766 47.1812 31.415 47.29 31.1422 47.29C30.8694 47.29 30.6078 47.1812 30.4149 46.9874C30.222 46.7936 30.1136 46.5308 30.1136 46.2567V38.1306L28.7148 39.3003C28.5044 39.468 28.2371 39.5464 27.97 39.5187C27.7029 39.4911 27.4572 39.3596 27.2853 39.1524C27.1134 38.9451 27.0289 38.6786 27.05 38.4096C27.0711 38.1407 27.1961 37.8907 27.3982 37.7131L30.4839 35.1298C30.6687 34.9751 30.9017 34.8904 31.1422 34.8904C31.3827 34.8904 31.6157 34.9751 31.8005 35.1298L34.8862 37.7131C35.0956 37.8885 35.2271 38.1404 35.2518 38.4132C35.2765 38.686 35.1924 38.9575 35.0178 39.168Z" fill="#0075C4"/>
</g>
<defs>
<clipPath id="clip0_6201_66250">
<rect width="32" height="31" fill="white" transform="translate(15.1406 15.5151)"/>
</clipPath>
</defs>
</svg>
