<svg width="60" height="58" viewBox="0 0 60 58" fill="none" xmlns="http://www.w3.org/2000/svg">
<rect width="60" height="57.3171" rx="12" fill="#EFF5F9"/>
<path d="M30 13.6584C21.75 13.6584 15 20.4084 15 28.6584C15 36.9084 21.75 43.6584 30 43.6584C38.25 43.6584 45 36.9084 45 28.6584C45 20.4084 38.25 13.6584 30 13.6584ZM30 40.6584C23.385 40.6584 18 35.2734 18 28.6584C18 22.0434 23.385 16.6584 30 16.6584C36.615 16.6584 42 22.0434 42 28.6584C42 35.2734 36.615 40.6584 30 40.6584ZM36.885 22.0284L27 31.9134L23.115 28.0434L21 30.1584L27 36.1584L39 24.1584L36.885 22.0284Z" fill="#0075C4"/>
</svg>
