<svg width="60" height="55" viewBox="0 0 60 55" fill="none" xmlns="http://www.w3.org/2000/svg">
<rect width="60" height="55" rx="12" fill="#EFF5F9"/>
<path d="M18.4424 15C17.5307 15 16.6564 15.3622 16.0117 16.0068C15.367 16.6515 15.0049 17.5258 15.0049 18.4375V35.3125C15.0049 36.5557 15.4987 37.748 16.3778 38.6271C17.2569 39.5061 18.4492 40 19.6924 40H25.3124C26.5556 40 27.7479 39.5061 28.6269 38.6271C29.506 37.748 29.9999 36.5557 29.9999 35.3125V23.125H43.1249V39.0625C43.1249 39.3111 43.2237 39.5496 43.3995 39.7254C43.5753 39.9012 43.8137 40 44.0624 40C44.311 40 44.5495 39.9012 44.7253 39.7254C44.9011 39.5496 44.9999 39.3111 44.9999 39.0625V18.4375C44.9999 17.5258 44.6377 16.6515 43.9931 16.0068C43.3484 15.3622 42.4741 15 41.5624 15H18.4424ZM16.8799 23.125H28.1249V35.3125C28.1249 36.0584 27.8286 36.7738 27.3011 37.3012C26.7737 37.8287 26.0583 38.125 25.3124 38.125H19.6924C18.9465 38.125 18.2311 37.8287 17.7036 37.3012C17.1762 36.7738 16.8799 36.0584 16.8799 35.3125V23.125ZM16.8799 21.25V18.4375C16.8799 17.575 17.5799 16.875 18.4424 16.875H41.5624C42.4249 16.875 43.1249 17.575 43.1249 18.4375V21.25H16.8811H16.8799ZM20.3124 26.25C20.0637 26.25 19.8253 26.3488 19.6495 26.5246C19.4737 26.7004 19.3749 26.9389 19.3749 27.1875C19.3749 27.4361 19.4737 27.6746 19.6495 27.8504C19.8253 28.0262 20.0637 28.125 20.3124 28.125H24.6874C24.936 28.125 25.1745 28.0262 25.3503 27.8504C25.5261 27.6746 25.6249 27.4361 25.6249 27.1875C25.6249 26.9389 25.5261 26.7004 25.3503 26.5246C25.1745 26.3488 24.936 26.25 24.6874 26.25H20.3124Z" fill="#0075C4"/>
</svg>
