<svg width="60" height="56" viewBox="0 0 60 56" fill="none" xmlns="http://www.w3.org/2000/svg">
<rect y="0.5" width="60" height="55" rx="12" fill="#EFF5F9"/>
<path d="M42.0312 16.5156H17.9688C17.5336 16.5156 17.1163 16.6885 16.8087 16.9962C16.501 17.3038 16.3281 17.7211 16.3281 18.1562V37.8438C16.3281 38.2789 16.501 38.6962 16.8087 39.0038C17.1163 39.3115 17.5336 39.4844 17.9688 39.4844H42.0312C42.4664 39.4844 42.8837 39.3115 43.1913 39.0038C43.499 38.6962 43.6719 38.2789 43.6719 37.8438V18.1562C43.6719 17.7211 43.499 17.3038 43.1913 16.9962C42.8837 16.6885 42.4664 16.5156 42.0312 16.5156ZM17.9688 17.6094H42.0312C42.1763 17.6094 42.3154 17.667 42.4179 17.7696C42.5205 17.8721 42.5781 18.0112 42.5781 18.1562V24.1719H17.4219V18.1562C17.4219 18.0112 17.4795 17.8721 17.5821 17.7696C17.6846 17.667 17.8237 17.6094 17.9688 17.6094ZM17.4219 37.8438V25.2656H26.1719V38.3906H17.9688C17.8237 38.3906 17.6846 38.333 17.5821 38.2304C17.4795 38.1279 17.4219 37.9888 17.4219 37.8438ZM42.0312 38.3906H27.2656V25.2656H42.5781V37.8438C42.5781 37.9888 42.5205 38.1279 42.4179 38.2304C42.3154 38.333 42.1763 38.3906 42.0312 38.3906Z" fill="#0075C4"/>
</svg>
