<svg width="60" height="55" viewBox="0 0 60 55" fill="none" xmlns="http://www.w3.org/2000/svg">
<rect width="60" height="55" rx="12" fill="#EFF5F9"/>
<path d="M42.375 12.625H17.625C16.4906 12.625 15.5625 13.5812 15.5625 14.75V40.25C15.5625 41.4188 16.4906 42.375 17.625 42.375H33.0938V40.25C33.0938 37.275 35.3625 34.9375 38.25 34.9375V32.8125C34.2281 32.8125 31.0312 36.1063 31.0312 40.25H27.9375V36H25.875V40.25H17.625V14.75H25.875V29.625H27.9375V24.3125H32.0625V22.1875H27.9375V14.75H42.375V22.1875H38.25V24.3125H42.375V40.25H38.25V42.375H42.375C43.5094 42.375 44.4375 41.4188 44.4375 40.25V14.75C44.4375 13.5812 43.5094 12.625 42.375 12.625Z" fill="#0F62AB"/>
</svg>
