<svg width="60" height="55" viewBox="0 0 60 55" fill="none" xmlns="http://www.w3.org/2000/svg">
<rect x="0.000976562" width="60" height="55" rx="12" fill="#EFF5F9"/>
<path d="M38.862 22.6747C37.8144 22.6747 36.9622 23.5295 36.9622 24.5801V25.8638C36.6051 25.6298 36.1803 25.4909 35.7226 25.4909H35.154L36.5198 16.5564C36.5975 16.0499 36.4513 15.5366 36.1184 15.1475C35.7857 14.7588 35.3021 14.5356 34.7911 14.5356H24.1849C23.674 14.5356 23.1903 14.7588 22.8577 15.1476C22.5248 15.5366 22.3786 16.05 22.4563 16.5562L23.8221 25.491H23.2564C22.7976 25.491 22.3718 25.6304 22.014 25.866V24.5801C22.014 23.5295 21.1618 22.6747 20.1142 22.6747C19.0672 22.6747 18.2148 23.5295 18.2148 24.5801C18.2148 24.8666 18.4461 25.0988 18.7319 25.0988C19.0178 25.0988 19.2488 24.8666 19.2488 24.5801C19.2488 24.1013 19.6371 23.7118 20.1142 23.7118C20.5918 23.7118 20.9801 24.1013 20.9801 24.5801C20.9801 24.5801 20.9823 27.784 20.9825 27.788C20.9872 29.0425 22.005 30.0619 23.2565 30.0619H27.0915L22.4463 36.9461C22.3189 36.9171 22.1877 36.8985 22.0518 36.8985C21.0717 36.8985 20.2746 37.6983 20.2746 38.6813C20.2746 39.6641 21.0717 40.4642 22.0518 40.4642C23.0316 40.4642 23.8295 39.6641 23.8295 38.6813C23.8295 38.2103 23.643 37.7844 23.3444 37.4654L28.3396 30.0619H28.9725V36.984C28.2449 37.2073 27.7104 37.8793 27.7104 38.6813C27.7104 39.6641 28.508 40.4642 29.4881 40.4642C30.4681 40.4642 31.2657 39.6641 31.2657 38.6813C31.2657 37.8804 30.7327 37.2091 30.0065 36.9849V30.0619H30.6333L35.633 37.4637C35.3337 37.7829 35.1466 38.2096 35.1466 38.6813C35.1466 39.6641 35.9444 40.4642 36.9242 40.4642C37.9043 40.4642 38.7015 39.6641 38.7015 38.6813C38.7015 37.6983 37.9043 36.8985 36.9242 36.8985C36.7893 36.8985 36.6588 36.9166 36.5321 36.9454L31.8826 30.0619H35.7227C36.9773 30.0619 37.9981 29.038 37.9981 27.7796L37.9962 24.5801C37.9962 24.1013 38.3845 23.7118 38.862 23.7118C39.3391 23.7118 39.7275 24.1013 39.7275 24.5801C39.7275 24.8666 39.9585 25.0988 40.2443 25.0988C40.5302 25.0988 40.7614 24.8666 40.7614 24.5801C40.7613 23.5295 39.909 22.6747 38.862 22.6747ZM22.0519 39.4269C21.6419 39.4269 21.3086 39.0925 21.3086 38.6813C21.3086 38.2701 21.6419 37.9355 22.0519 37.9355C22.4618 37.9355 22.7956 38.2701 22.7956 38.6813C22.7956 39.0925 22.4618 39.4269 22.0519 39.4269ZM30.2317 38.6813C30.2317 39.0925 29.898 39.4269 29.4881 39.4269C29.0781 39.4269 28.7444 39.0925 28.7444 38.6813C28.7444 38.2701 29.0781 37.9355 29.4881 37.9355C29.898 37.9356 30.2317 38.2701 30.2317 38.6813ZM37.6675 38.6813C37.6675 39.0925 37.3342 39.4269 36.9242 39.4269C36.5142 39.4269 36.1805 39.0925 36.1805 38.6813C36.1805 38.2701 36.5142 37.9355 36.9242 37.9355C37.3342 37.9355 37.6675 38.2701 37.6675 38.6813ZM23.4781 16.3989C23.4459 16.1889 23.5044 15.9842 23.6422 15.8229C23.7805 15.6616 23.9729 15.5727 24.1849 15.5727H34.7912C35.0032 15.5727 35.1956 15.6616 35.3339 15.8229C35.4718 15.9842 35.5303 16.1889 35.498 16.3991L34.1082 25.491H24.8679L23.4781 16.3989ZM35.7226 29.0248H23.2563C22.5722 29.0248 22.0154 28.466 22.0154 27.7735C22.0154 27.0866 22.5722 26.528 23.2563 26.528H35.7226C36.4005 26.528 36.9512 27.0759 36.9622 27.7533V27.7734C36.9622 27.7765 36.9637 27.7789 36.9639 27.782C36.9624 28.4674 36.4065 29.0248 35.7226 29.0248Z" fill="#0075C4"/>
</svg>
