<svg width="60" height="55" viewBox="0 0 60 55" fill="none" xmlns="http://www.w3.org/2000/svg">
<rect width="60" height="55" rx="12" fill="#EFF5F9"/>
<path d="M14.1743 30.2696H16.9436V40.8648C16.9436 41.4893 17.4779 42 18.1306 42H26.2411C26.8937 42 27.428 41.4893 27.428 40.8648V33.1074H32.3733V40.8648C32.3733 41.4893 32.9076 42 33.5602 42H41.2749C41.9276 42 42.4618 41.4893 42.4618 40.8648V30.2696H45.8247C46.2994 30.2696 46.7347 29.9857 46.9129 29.5696C47.0908 29.1532 46.9918 28.6614 46.6558 28.3397L31.1867 13.336C30.7316 12.9008 29.98 12.8819 29.525 13.3171L13.3634 28.3208C13.0074 28.6425 12.9084 29.1346 13.0866 29.5696C13.2642 30.0045 13.6995 30.2696 14.1743 30.2696ZM30.3158 15.7389L42.9761 27.9991H41.2749C40.6222 27.9991 40.0883 28.5101 40.0883 29.1344V39.7295H34.7471V31.9722C34.7471 31.3479 34.2132 30.8369 33.5602 30.8369H26.2411C25.5884 30.8369 25.0542 31.3479 25.0542 31.9722V39.7295H19.3175V29.1344C19.3175 28.5099 18.7832 27.9991 18.1306 27.9991H17.1018L30.3158 15.7389Z" fill="#0075C4"/>
</svg>
