<svg width="60" height="55" viewBox="0 0 60 55" fill="none" xmlns="http://www.w3.org/2000/svg">
<rect width="60" height="55" rx="12" fill="#EFF5F9"/>
<path fill-rule="evenodd" clip-rule="evenodd" d="M23.0919 14.754C23.1782 13.949 23.5591 13.2044 24.1614 12.6633C24.7636 12.1222 25.5446 11.8228 26.3542 11.8228H33.6458C34.4554 11.8228 35.2364 12.1222 35.8386 12.6633C36.4409 13.2044 36.8218 13.949 36.9081 14.754C38.0223 14.7773 38.9833 14.8342 39.8058 14.9859C40.9113 15.19 41.8519 15.575 42.6175 16.3421C43.4954 17.2186 43.8717 18.3255 44.0496 19.638C44.2188 20.9009 44.2188 22.5094 44.2188 24.503V33.4134C44.2188 35.4069 44.2188 37.0155 44.0496 38.2798C43.8717 39.5923 43.4954 40.6978 42.6175 41.5757C41.7396 42.4536 40.6342 42.8298 39.3217 43.0078C38.0573 43.1769 36.4488 43.1769 34.4552 43.1769H25.5448C23.5512 43.1769 21.9427 43.1769 20.6783 43.0078C19.3658 42.8298 18.2604 42.4536 17.3825 41.5757C16.5046 40.6978 16.1283 39.5923 15.9519 38.2798C15.7813 37.0155 15.7812 35.4069 15.7812 33.4134V24.503C15.7812 22.5094 15.7813 20.9009 15.9519 19.6365C16.1269 18.324 16.506 17.2186 17.3825 16.3407C18.1481 15.575 19.0887 15.1886 20.1942 14.9859C21.0167 14.8342 21.9792 14.7773 23.0919 14.754ZM23.0948 16.9415C22.0477 16.9648 21.2398 17.0173 20.5894 17.1369C19.764 17.2886 19.2842 17.5336 18.9298 17.888C18.5258 18.2919 18.2633 18.8578 18.119 19.9296C17.9717 21.0292 17.9688 22.4905 17.9688 24.5832V33.3332C17.9688 35.4259 17.9717 36.8857 18.119 37.9882C18.2633 39.0586 18.5273 39.6244 18.9298 40.0284C19.3338 40.4323 19.8996 40.6948 20.9715 40.8392C22.071 40.9865 23.5323 40.9894 25.625 40.9894H34.375C36.4677 40.9894 37.9275 40.9865 39.03 40.8392C40.1004 40.6948 40.6662 40.4309 41.0702 40.0284C41.4742 39.6244 41.7367 39.0586 41.881 37.9867C42.0283 36.8857 42.0312 35.4259 42.0312 33.3332V24.5832C42.0312 22.4905 42.0283 21.0292 41.881 19.9282C41.7367 18.8578 41.4727 18.2919 41.0702 17.888C40.7144 17.5336 40.236 17.29 39.4106 17.1369C38.7602 17.0173 37.9523 16.9648 36.9052 16.943C36.8119 17.7419 36.4284 18.4788 35.8275 19.0135C35.2266 19.5483 34.4502 19.8437 33.6458 19.8436H26.3542C25.5496 19.8436 24.773 19.548 24.1721 19.013C23.5712 18.4779 23.1878 17.7407 23.0948 16.9415ZM26.3542 14.0103C26.0641 14.0103 25.7859 14.1255 25.5808 14.3306C25.3757 14.5357 25.2604 14.8139 25.2604 15.104V16.5623C25.2604 17.1661 25.7504 17.6561 26.3542 17.6561H33.6458C33.9359 17.6561 34.2141 17.5409 34.4192 17.3357C34.6243 17.1306 34.7396 16.8524 34.7396 16.5623V15.104C34.7396 14.8139 34.6243 14.5357 34.4192 14.3306C34.2141 14.1255 33.9359 14.0103 33.6458 14.0103H26.3542ZM21.6146 25.3123C21.6146 25.0223 21.7298 24.7441 21.9349 24.5389C22.1401 24.3338 22.4183 24.2186 22.7083 24.2186H37.2917C37.5817 24.2186 37.8599 24.3338 38.0651 24.5389C38.2702 24.7441 38.3854 25.0223 38.3854 25.3123C38.3854 25.6024 38.2702 25.8806 38.0651 26.0857C37.8599 26.2909 37.5817 26.4061 37.2917 26.4061H22.7083C22.4183 26.4061 22.1401 26.2909 21.9349 26.0857C21.7298 25.8806 21.6146 25.6024 21.6146 25.3123ZM23.0729 30.4165C23.0729 30.1264 23.1882 29.8482 23.3933 29.6431C23.5984 29.438 23.8766 29.3228 24.1667 29.3228H35.8333C36.1234 29.3228 36.4016 29.438 36.6067 29.6431C36.8119 29.8482 36.9271 30.1264 36.9271 30.4165C36.9271 30.7066 36.8119 30.9848 36.6067 31.1899C36.4016 31.395 36.1234 31.5103 35.8333 31.5103H24.1667C23.8766 31.5103 23.5984 31.395 23.3933 31.1899C23.1882 30.9848 23.0729 30.7066 23.0729 30.4165ZM24.5312 35.5207C24.5312 35.2306 24.6465 34.9524 24.8516 34.7473C25.0567 34.5422 25.3349 34.4269 25.625 34.4269H34.375C34.6651 34.4269 34.9433 34.5422 35.1484 34.7473C35.3535 34.9524 35.4688 35.2306 35.4688 35.5207C35.4688 35.8108 35.3535 36.089 35.1484 36.2941C34.9433 36.4992 34.6651 36.6144 34.375 36.6144H25.625C25.3349 36.6144 25.0567 36.4992 24.8516 36.2941C24.6465 36.089 24.5312 35.8108 24.5312 35.5207Z" fill="#0075C4"/>
</svg>
