<svg width="20" height="21" viewBox="0 0 20 21" fill="none" xmlns="http://www.w3.org/2000/svg">
<g id="Component 9">
<path id="Vector" d="M16.291 9.66404C15.9118 8.81063 15.3606 8.04466 14.6719 7.41404L14.1035 6.89255C14.0842 6.87533 14.061 6.86311 14.0359 6.85697C14.0107 6.85082 13.9845 6.85093 13.9594 6.85729C13.9344 6.86366 13.9112 6.87608 13.8921 6.89346C13.8729 6.91085 13.8584 6.93267 13.8496 6.95701L13.5957 7.68552C13.4375 8.14255 13.1465 8.60935 12.7344 9.06834C12.707 9.09763 12.6758 9.10545 12.6543 9.1074C12.6328 9.10935 12.5996 9.10545 12.5703 9.0781C12.543 9.05466 12.5293 9.01951 12.5312 8.98435C12.6035 7.80857 12.252 6.4824 11.4824 5.03904C10.8457 3.83982 9.96094 2.90427 8.85547 2.25193L8.04883 1.77732C7.94336 1.71482 7.80859 1.79685 7.81445 1.9199L7.85742 2.8574C7.88672 3.49802 7.8125 4.06443 7.63672 4.53513C7.42188 5.1113 7.11328 5.64646 6.71875 6.12693C6.44419 6.46084 6.13299 6.76287 5.79102 7.02732C4.96739 7.66046 4.29768 8.47172 3.83203 9.40037C3.36753 10.3371 3.12557 11.3685 3.125 12.414C3.125 13.3359 3.30664 14.2285 3.66602 15.0703C4.01302 15.8808 4.51379 16.6163 5.14063 17.2363C5.77344 17.8613 6.50781 18.3535 7.32617 18.6953C8.17383 19.0508 9.07227 19.2304 10 19.2304C10.9277 19.2304 11.8262 19.0508 12.6738 18.6972C13.4902 18.3574 14.2325 17.8619 14.8594 17.2383C15.4922 16.6133 15.9883 15.8828 16.334 15.0722C16.6928 14.2327 16.8769 13.329 16.875 12.416C16.875 11.4629 16.6797 10.5371 16.291 9.66404ZM13.9258 16.291C12.877 17.3301 11.4844 17.9004 10 17.9004C8.51562 17.9004 7.12305 17.3301 6.07422 16.291C5.0293 15.2539 4.45312 13.8789 4.45312 12.416C4.45312 11.5664 4.64453 10.7519 5.02148 9.99412C5.38867 9.25388 5.93555 8.59177 6.59961 8.08201C7.02312 7.75817 7.40725 7.38584 7.74414 6.97263C8.23242 6.37693 8.61523 5.71287 8.88086 4.99998C8.98982 4.70591 9.06899 4.40165 9.11719 4.09177C9.58789 4.52537 9.98242 5.0488 10.3125 5.66209C10.9648 6.88474 11.2656 7.97263 11.207 8.89841C11.193 9.11645 11.2286 9.33483 11.3112 9.53713C11.3937 9.73942 11.5211 9.92038 11.6836 10.0664C11.8245 10.1936 11.9892 10.2916 12.1682 10.3546C12.3473 10.4177 12.5371 10.4445 12.7266 10.4336C13.1113 10.414 13.4648 10.2441 13.7227 9.95701C13.9824 9.66599 14.207 9.36912 14.3945 9.06638C14.668 9.41599 14.8965 9.79685 15.0781 10.207C15.3887 10.9062 15.5469 11.6504 15.5469 12.416C15.5469 13.8789 14.9707 15.2558 13.9258 16.291Z" fill="black"/>
</g>
</svg>
