<svg width="41" height="40" viewBox="0 0 41 40" fill="none" xmlns="http://www.w3.org/2000/svg">
<rect x="1.05489" y="1.47579" width="38.7543" height="37.5067" rx="18.7534" stroke="#F17B39" stroke-width="1.00041"/>
<path d="M24.884 10.6025H15.9775C12.9529 10.6025 10.4922 12.9861 10.4922 15.9158V24.5428C10.4922 27.4726 12.9529 29.8561 15.9775 29.8561H24.884C27.9088 29.8561 30.3696 27.4725 30.3696 24.5428V15.9158C30.3697 12.9861 27.9088 10.6025 24.884 10.6025ZM28.6061 24.5428C28.6061 26.5307 26.9364 28.1478 24.8841 28.1478H15.9775C13.9254 28.1479 12.2558 26.5307 12.2558 24.5428V15.9158C12.2558 13.9281 13.9254 12.3108 15.9775 12.3108H24.884C26.9363 12.3108 28.6059 13.9281 28.6059 15.9158V24.5428H28.6061Z" fill="#F17B39"/>
<path d="M20.4305 15.2681C17.6062 15.2681 15.3086 17.4936 15.3086 20.2292C15.3086 22.9647 17.6062 25.1901 20.4305 25.1901C23.2547 25.1901 25.5524 22.9647 25.5524 20.2292C25.5524 17.4936 23.2547 15.2681 20.4305 15.2681ZM20.4305 23.4818C18.5788 23.4818 17.0722 22.0227 17.0722 20.2291C17.0722 18.4354 18.5787 16.9762 20.4305 16.9762C22.2823 16.9762 23.7888 18.4354 23.7888 20.2291C23.7888 22.0227 22.2822 23.4818 20.4305 23.4818Z" fill="#F17B39"/>
<path d="M25.766 13.8203C25.4262 13.8203 25.0924 13.9536 24.8524 14.187C24.6113 14.4193 24.4727 14.7428 24.4727 15.073C24.4727 15.4023 24.6114 15.7256 24.8524 15.9591C25.0923 16.1914 25.4262 16.3258 25.766 16.3258C26.1069 16.3258 26.4397 16.1914 26.6807 15.9591C26.9217 15.7256 27.0593 15.4022 27.0593 15.073C27.0593 14.7428 26.9217 14.4193 26.6807 14.187C26.4409 13.9536 26.1069 13.8203 25.766 13.8203Z" fill="#F17B39"/>
</svg>
