<svg width="40" height="40" viewBox="0 0 40 40" fill="none" xmlns="http://www.w3.org/2000/svg">
<rect x="0.59375" y="1.47559" width="38.7547" height="37.5071" rx="18.7536" stroke="#F17B39"/>
<path d="M14.5479 16.5815H10.2773V29.0034H14.5479V16.5815Z" fill="#F17B39"/>
<path d="M28.5624 17.7168C27.6653 16.7683 26.4789 16.2939 25.0037 16.2939C24.4602 16.2939 23.9661 16.3587 23.5218 16.4883C23.0775 16.6178 22.7023 16.7995 22.3959 17.0336C22.0898 17.2676 21.8459 17.4848 21.6649 17.6853C21.4927 17.8757 21.3244 18.0975 21.1601 18.3484V16.582H16.9023L16.9154 17.1838C16.9241 17.585 16.9285 18.8217 16.9285 20.894C16.9285 22.9665 16.9198 25.6698 16.9025 29.0041H21.1601V22.0722C21.1601 21.6461 21.2073 21.3078 21.3024 21.0568C21.4837 20.6304 21.7573 20.2735 22.1242 19.9853C22.491 19.6967 22.946 19.5526 23.4897 19.5526C24.2314 19.5526 24.7773 19.8012 25.1267 20.2984C25.4761 20.7956 25.6507 21.4829 25.6507 22.3604V29.0037H29.9083V21.8844C29.908 20.0541 29.4597 18.665 28.5624 17.7168Z" fill="#F17B39"/>
<path d="M12.4382 10.6025C11.7223 10.6025 11.1421 10.8053 10.6977 11.2105C10.2533 11.6158 10.0312 12.1275 10.0312 12.746C10.0312 13.3559 10.2469 13.8658 10.6783 14.2751C11.1095 14.6845 11.679 14.8894 12.3864 14.8894H12.4123C13.1371 14.8894 13.7217 14.6847 14.1659 14.2751C14.6102 13.8658 14.8279 13.356 14.8194 12.746C14.8108 12.1275 14.5906 11.6158 14.1594 11.2105C13.7282 10.8052 13.1543 10.6025 12.4382 10.6025Z" fill="#F17B39"/>
</svg>
