<svg width="168" height="38" viewBox="0 0 168 38" fill="none" xmlns="http://www.w3.org/2000/svg">
<g id="Original Logo">
<g id="Group 3">
<mask id="mask0_124_2956" style="mask-type:alpha" maskUnits="userSpaceOnUse" x="7" y="0" width="28" height="38">
<g id="mask0">
<path id="Vector" fill-rule="evenodd" clip-rule="evenodd" d="M22.6789 18.6639C26.3031 18.6451 30.0163 18.6536 33.6585 18.6536C33.8266 18.6536 33.9737 18.6614 34.1014 18.6382C34.4476 18.5753 34.7073 18.3097 34.7257 17.8882C34.7388 17.589 34.7257 17.2757 34.7257 16.9647C34.7257 16.6581 34.7257 16.3488 34.7257 16.0413C34.7259 15.5775 34.5376 15.3033 34.187 15.1944C34.0699 15.1578 33.9382 15.1585 33.7692 15.1585C29.5173 15.1584 25.2568 15.1559 21.0025 15.1585C20.9817 15.1585 20.9646 15.1674 20.9774 15.1433C20.9932 15.1132 21.0307 15.0891 21.053 15.0668C22.0837 14.022 23.0297 12.8619 23.8822 11.6483C24.3293 11.0117 24.7494 10.3618 25.1255 9.66338C25.5027 8.96359 25.8465 8.21734 26.0871 7.39804C26.2082 6.98568 26.3222 6.53935 26.3639 6.05625C26.4082 5.54541 26.3963 5.02036 26.3136 4.54606C26.1548 3.63465 25.8143 2.90978 25.3622 2.27042C24.9151 1.63813 24.346 1.13365 23.6756 0.734695C23.1679 0.432588 22.5957 0.206297 21.9187 0.08171C21.6936 0.040335 21.4485 0.0175671 21.1988 0C21.0395 0 20.8799 0 20.7206 0C19.7126 0.0537414 18.9238 0.33805 18.2438 0.734695C17.5716 1.12683 17.0023 1.64033 16.5573 2.26534C16.1096 2.89429 15.7571 3.63488 15.6058 4.54606C15.5272 5.01933 15.4999 5.54356 15.5504 6.06133C15.5974 6.54268 15.6954 6.97621 15.8222 7.40314C16.0673 8.22867 16.4029 8.97214 16.7839 9.67368C17.7232 11.404 18.8912 12.9362 20.1768 14.3422C20.4066 14.5937 20.6683 14.8658 20.9118 15.1179C20.9273 15.1339 20.9173 15.1091 20.9369 15.1434C20.9532 15.1715 20.8821 15.1586 20.8464 15.1586C16.6066 15.1585 12.3458 15.1588 8.08983 15.1586C7.7499 15.1586 7.57908 15.2222 7.4102 15.3934C7.33254 15.4721 7.27324 15.5601 7.23401 15.674C7.19388 15.7903 7.19366 15.9218 7.19366 16.0924C7.19366 16.4125 7.19366 16.7076 7.19366 17.0159C7.19366 17.3248 7.17541 17.6351 7.19366 17.9393C7.21065 18.2233 7.36401 18.4061 7.53096 18.521C7.62025 18.5823 7.73885 18.6369 7.86325 18.6486C7.99838 18.6611 8.14503 18.6537 8.31139 18.6537C11.9423 18.6537 15.594 18.6537 19.2354 18.6537C19.2356 22.9345 19.2352 27.2144 19.2354 31.5113C19.2354 33.2448 19.2354 34.9371 19.2354 36.6442C19.2354 37.0735 19.4217 37.3184 19.7188 37.435C19.8726 37.4952 20.0808 37.486 20.3026 37.486C20.733 37.486 21.1404 37.486 21.5662 37.486C21.7807 37.486 22.0053 37.5053 22.1653 37.4502C22.4555 37.3502 22.6787 37.094 22.6787 36.69C22.6793 30.7184 22.6785 24.6444 22.6789 18.6639ZM19.6836 8.74504C19.2921 8.57885 18.9715 8.35499 18.6969 8.08698C18.1558 7.55846 17.7253 6.83 17.6901 5.79597C17.6722 5.2715 17.784 4.78795 17.9417 4.4031C18.104 4.00703 18.323 3.6944 18.5911 3.40316C18.8455 3.12659 19.1695 2.88008 19.5375 2.70406C19.9063 2.5278 20.3449 2.40762 20.8615 2.38264C21.3695 2.35814 21.871 2.48146 22.2409 2.64291C22.6274 2.81143 22.9555 3.0354 23.2225 3.30618C23.7636 3.85435 24.1841 4.55311 24.2293 5.59697C24.253 6.13981 24.1304 6.60522 23.9676 6.98995C23.6405 7.76291 23.098 8.32713 22.3668 8.68379C21.9963 8.86444 21.5594 8.98637 21.0577 9.01029C20.5341 9.03549 20.0622 8.90581 19.6836 8.74504Z" fill="white"/>
</g>
</mask>
<g mask="url(#mask0_124_2956)">
<g id="Group">
<path id="Vector_2" d="M20.9682 0C17.962 0 15.5254 2.45454 15.5254 5.48167C15.5254 9.81867 20.9682 15.0964 20.9682 15.0964C20.9682 15.0964 26.411 9.74372 26.411 5.48167C26.411 2.45454 23.9743 0 20.9682 0ZM24.2482 5.66982C24.2482 7.49416 22.7801 8.9733 20.9682 8.9733C19.1563 8.9733 17.6881 7.49416 17.6881 5.66982C17.6881 3.84498 19.1563 2.36583 20.9682 2.36583C22.7801 2.36583 24.2482 3.84498 24.2482 5.66982Z" fill="url(#paint0_linear_124_2956)"/>
<path id="Vector_3" d="M22.6913 25.9327V15.5266L19.2441 18.5374V28.9435L22.6913 25.9327Z" fill="url(#paint1_linear_124_2956)"/>
<path id="Vector_4" d="M22.7991 37.3635L22.6822 24.9623L19.2441 28.968V39.8859L22.7991 37.3635Z" fill="url(#paint2_linear_124_2956)"/>
<path id="Vector_5" d="M14.924 18.5677H4.5918L7.58126 15.0964H17.9135L14.924 18.5677Z" fill="url(#paint3_linear_124_2956)"/>
<path id="Vector_6" d="M25.2287 18.5677H14.8965L17.8859 15.0964H28.2182L25.2287 18.5677Z" fill="url(#paint4_linear_124_2956)"/>
<path id="Vector_7" d="M35.5079 18.5677H25.1758L28.1651 15.0964H38.4974L35.5079 18.5677Z" fill="url(#paint5_linear_124_2956)"/>
</g>
</g>
</g>
<path id="Vector_8" fill-rule="evenodd" clip-rule="evenodd" d="M16.0339 22.0314C16.0339 21.7689 16.0302 21.5586 15.9432 21.3936C15.8647 21.2442 15.7353 21.1165 15.5657 21.0466C15.3889 20.9738 15.1569 20.9905 14.9012 20.9905C11.544 20.9909 8.17221 20.9903 4.81773 20.9905C4.57542 20.9905 4.32626 21.0126 4.10288 20.9855C3.71961 20.9388 3.44332 20.6377 3.44332 20.1945C3.44332 15.1057 3.44332 9.98741 3.44332 4.87273C3.44332 4.60414 3.42312 4.43101 3.31742 4.27071C3.22162 4.12521 3.0825 4.01344 2.90463 3.95947C2.72604 3.90516 2.44964 3.92885 2.21496 3.92885C1.75142 3.92885 1.23599 3.92885 0.775304 3.92885C0.336623 3.92885 0.0640859 4.2202 0 4.60737C0 15.3383 0 26.0761 0 36.8075C0.0402533 37.0298 0.119277 37.177 0.246765 37.2921C0.374367 37.4076 0.544047 37.4859 0.775304 37.4859C1.23634 37.4859 1.74583 37.4859 2.21496 37.4859C2.46252 37.4859 2.7175 37.5125 2.90463 37.4552C3.08081 37.4016 3.22004 37.2919 3.31742 37.144C3.42199 36.9854 3.44332 36.7966 3.44332 36.5422C3.44332 32.8994 3.44332 29.2479 3.44332 25.5978C3.44332 25.3385 3.43157 25.1048 3.50877 24.9345C3.61618 24.6976 3.82873 24.5004 4.14802 24.4855C4.48396 24.47 4.88559 24.4855 5.2254 24.4855C7.38653 24.4854 9.53786 24.4855 11.7094 24.4855C11.968 24.4855 12.1321 24.5189 12.2833 24.6335C12.4197 24.7371 12.5208 24.8807 12.5652 25.0774C12.6091 25.2712 12.5854 25.5388 12.5854 25.7866C12.5854 29.1654 12.5854 32.6002 12.5854 36.0011C12.5854 36.2437 12.5775 36.5013 12.5854 36.7308C12.5933 36.9644 12.6826 37.1282 12.7968 37.246C12.9125 37.3657 13.0635 37.47 13.28 37.4859C13.5032 37.5022 13.7289 37.4859 13.9999 37.4859C14.2451 37.4859 14.485 37.4859 14.7198 37.4859C14.9644 37.4859 15.217 37.5125 15.4246 37.4705C15.8053 37.3935 16.0338 37.093 16.0338 36.6288C16.0341 31.7844 16.0338 26.8653 16.0339 22.0314Z" fill="#323232"/>
<path id="Vector_9" fill-rule="evenodd" clip-rule="evenodd" d="M25.6985 22.0314C25.6985 21.7689 25.7023 21.5586 25.7892 21.3936C25.8677 21.2442 25.9972 21.1165 26.1667 21.0466C26.3435 20.9738 26.5755 20.9905 26.8312 20.9905C30.1884 20.9909 33.5602 20.9903 36.9147 20.9905C37.157 20.9905 37.4062 21.0126 37.6295 20.9855C38.0128 20.9388 38.2891 20.6377 38.2891 20.1945C38.2891 15.1057 38.2891 9.98741 38.2891 4.87273C38.2891 4.60414 38.3093 4.43101 38.415 4.27071C38.5108 4.12521 38.6499 4.01344 38.8278 3.95947C39.0064 3.90516 39.2828 3.92885 39.5175 3.92885C39.981 3.92885 40.4964 3.92885 40.9571 3.92885C41.3958 3.92885 41.6683 4.2202 41.7324 4.60737C41.7324 15.3383 41.7324 26.0761 41.7324 36.8075C41.6922 37.0298 41.6131 37.177 41.4857 37.2921C41.3581 37.4076 41.1884 37.4859 40.9571 37.4859C40.4961 37.4859 39.9866 37.4859 39.5175 37.4859C39.2699 37.4859 39.0149 37.5125 38.8278 37.4552C38.6516 37.4016 38.5124 37.2919 38.415 37.144C38.3104 36.9854 38.2891 36.7966 38.2891 36.5422C38.2891 32.8994 38.2891 29.2479 38.2891 25.5978C38.2891 25.3385 38.3009 25.1048 38.2237 24.9345C38.1162 24.6976 37.9037 24.5004 37.5844 24.4855C37.2485 24.47 36.8468 24.4855 36.507 24.4855C34.3459 24.4854 32.1946 24.4855 30.0231 24.4855C29.7644 24.4855 29.6003 24.5189 29.4491 24.6335C29.3128 24.7371 29.2116 24.8807 29.1672 25.0774C29.1233 25.2712 29.1471 25.5388 29.1471 25.7866C29.1471 29.1654 29.1471 32.6002 29.1471 36.0011C29.1471 36.2437 29.1549 36.5013 29.1471 36.7308C29.1391 36.9644 29.0498 37.1282 28.9357 37.246C28.8199 37.3657 28.6689 37.47 28.4524 37.4859C28.2292 37.5022 28.0036 37.4859 27.7325 37.4859C27.4873 37.4859 27.2474 37.4859 27.0126 37.4859C26.768 37.4859 26.5154 37.5125 26.3078 37.4705C25.9271 37.3935 25.6986 37.093 25.6986 36.6288C25.6983 31.7844 25.6986 26.8653 25.6985 22.0314Z" fill="#323232"/>
<g id="HYBRIDHERO">
<path d="M47.7844 23.8333H55.8665V22.0417L47.7844 22.1042V23.8333ZM55.8665 16.2083V23.5V30.7917H57.6508V23.5V16.2083H55.8665ZM46 16.2083V30.7917H47.7844V16.2083H46Z" fill="url(#paint6_linear_124_2956)"/>
<path d="M69.0045 16.2083L65.2048 22.9583L61.4262 16.2083H59.4319L64.3232 24.5208V30.7917H66.1075V24.5L70.9988 16.2083H69.0045Z" fill="url(#paint7_linear_124_2956)"/>
<path d="M74.558 22.9583L76.5523 23.0833C77.434 23.0833 78.1967 22.9583 78.8405 22.7083C79.4982 22.4583 80.009 22.0903 80.3729 21.6042C80.7368 21.1181 80.9187 20.5347 80.9187 19.8542C80.9187 19.0208 80.7368 18.3403 80.3729 17.8125C80.009 17.2708 79.4982 16.8681 78.8405 16.6042C78.1967 16.3403 77.434 16.2083 76.5523 16.2083H72.7736V30.7917H76.7622C77.7139 30.7917 78.5606 30.6389 79.3023 30.3333C80.058 30.0139 80.6528 29.5417 81.0867 28.9167C81.5345 28.2778 81.7584 27.4792 81.7584 26.5208C81.7584 25.8542 81.6325 25.2778 81.3805 24.7917C81.1286 24.3056 80.7718 23.9097 80.3099 23.6042C79.8621 23.2847 79.3373 23.0486 78.7355 22.8958C78.1337 22.7431 77.4759 23.0809 76.7622 23.0809L74.558 22.9583V23.6042L76.7622 23.6458C77.238 23.6458 77.6719 23.7083 78.0637 23.8333C78.4556 23.9444 78.7915 24.1181 79.0714 24.3542C79.3653 24.5903 79.5892 24.8819 79.7431 25.2292C79.8971 25.5764 79.9741 25.9722 79.9741 26.4167C79.9741 27.0139 79.8341 27.5208 79.5542 27.9375C79.2883 28.3542 78.9104 28.6736 78.4206 28.8958C77.9448 29.1181 77.392 29.2292 76.7622 29.2292H74.558V22.9583V17.7708H76.5523C77.294 17.7708 77.9098 17.9653 78.3996 18.3542C78.8894 18.7292 79.1344 19.2639 79.1344 19.9583C79.1344 20.4167 79.0224 20.8056 78.7985 21.125C78.5746 21.4444 78.2667 21.6875 77.8748 21.8542C77.4829 22.0208 77.0421 22.1042 76.5523 22.1042L74.558 22.0417V22.9583Z" fill="url(#paint8_linear_124_2956)"/>
<path d="M87.9619 24.9583L92.1417 30.7917H94.3459L89.9822 24.7917L87.9619 24.9583ZM84.4794 16.2083V30.7917H86.2638V23.5V16.2083H84.4794ZM86.2638 17.7708H88.468C89.0977 17.7708 89.6506 17.8819 90.1264 18.1042C90.6162 18.3264 90.9941 18.6458 91.26 19.0625C91.5399 19.4792 91.6798 19.9861 91.6798 20.5833C91.6798 21.1806 91.5399 21.6875 91.26 22.1042C90.9941 22.5208 90.6162 22.8403 90.1264 23.0625C89.6506 23.2847 89.0977 23.3958 88.468 23.3958H86.2638V24.9583H88.468C89.4196 24.9583 90.2663 24.7847 91.0081 24.4375C91.7638 24.0764 92.3586 23.5694 92.7924 22.9167C93.2403 22.25 93.4642 21.4722 93.4642 20.5833C93.4642 19.6806 93.2403 18.9028 92.7924 18.25C92.3586 17.5972 91.7638 17.0972 91.0081 16.75C90.2663 16.3889 89.4196 16.2083 88.468 16.2083H86.2638V17.7708Z" fill="url(#paint9_linear_124_2956)"/>
<path d="M96.2262 16.2083V30.7917H98.0105V16.2083H96.2262Z" fill="url(#paint10_linear_124_2956)"/>
<path d="M101.372 16.2083V30.7917H103.156V16.2083H101.372ZM105.78 30.7917C107.208 30.7917 108.474 30.4861 109.58 29.875C110.685 29.2639 111.553 28.4167 112.183 27.3333C112.813 26.2361 113.128 24.9583 113.128 23.5C113.128 22.0417 112.813 20.7708 112.183 19.6875C111.553 18.5903 110.685 17.7361 109.58 17.125C108.474 16.5139 107.208 16.2083 105.78 16.2083H103.156V17.9792H105.78C106.606 17.9792 107.362 18.1111 108.047 18.375C108.733 18.625 109.321 18.9931 109.811 19.4792C110.301 19.9514 110.678 20.5278 110.944 21.2083C111.21 21.8889 111.343 22.6528 111.343 23.5C111.343 24.3472 111.21 25.1111 110.944 25.7917C110.678 26.4722 110.301 27.0556 109.811 27.5417C109.321 28.0139 108.733 28.3819 108.047 28.6458C107.362 28.8958 106.606 29.0208 105.78 29.0208H103.156V30.7917H105.78Z" fill="url(#paint11_linear_124_2956)"/>
<path d="M117.424 23.7083H125.507V22.0417H117.424V23.7083ZM125.507 16.2083V30.7917H127.291V16.2083H125.507ZM115.64 16.2083V30.7917H117.424V16.2083H115.64Z" fill="url(#paint12_linear_124_2956)"/>
<path d="M132.431 30.7917H139.043V29.125H132.431V30.7917ZM132.431 17.875H139.043V16.2083H132.431V17.875ZM132.431 23.7083H138.624V22.0417H132.431V23.7083ZM130.646 16.2083V23.5V30.7917H132.431V16.2083H130.646Z" fill="url(#paint13_linear_124_2956)"/>
<path d="M145.764 24.9583L149.851 30.7917H152.055L147.835 24.7557L145.764 24.9583ZM142.188 16.2083V30.7917H143.973V23.5V16.2083H142.188ZM143.973 17.7708H146.177C146.807 17.7708 147.359 17.8819 147.835 18.1042C148.325 18.3264 148.703 18.6458 148.969 19.0625C149.249 19.4792 149.389 19.9861 149.389 20.5833C149.389 21.1806 149.249 21.6875 148.969 22.1042C148.703 22.5208 148.325 22.8403 147.835 23.0625C147.359 23.2847 146.807 23.3958 146.177 23.3958H143.973V24.9583H146.177C147.128 24.9583 147.975 24.7847 148.717 24.4375C149.473 24.0764 150.067 23.5694 150.501 22.9167C150.949 22.25 151.173 21.4722 151.173 20.5833C151.173 19.6806 150.949 18.9028 150.501 18.25C150.067 17.5972 149.473 17.0972 148.717 16.75C147.975 16.3889 147.128 16.2083 146.177 16.2083H143.973V17.7708Z" fill="url(#paint14_linear_124_2956)"/>
<path d="M154.985 23.5C154.985 22.4028 155.223 21.4236 155.698 20.5625C156.188 19.7014 156.853 19.0208 157.693 18.5208C158.532 18.0208 159.484 17.7708 160.548 17.7708C161.625 17.7708 162.577 18.0208 163.403 18.5208C164.242 19.0208 164.9 19.7014 165.376 20.5625C165.866 21.4236 166.111 22.4028 166.111 23.5C166.111 24.5972 165.866 25.5764 165.376 26.4375C164.9 27.2986 164.242 27.9792 163.403 28.4792C162.577 28.9792 161.625 29.2292 160.548 29.2292C159.484 29.2292 158.532 28.9792 157.693 28.4792C156.853 27.9792 156.188 27.2986 155.698 26.4375C155.223 25.5764 154.985 24.5972 154.985 23.5ZM153.095 23.5C153.095 24.5556 153.277 25.5417 153.641 26.4583C154.019 27.375 154.544 28.1736 155.216 28.8542C155.887 29.5208 156.678 30.0486 157.588 30.4375C158.497 30.8125 159.484 31 160.548 31C161.625 31 162.612 30.8125 163.508 30.4375C164.417 30.0486 165.208 29.5208 165.88 28.8542C166.552 28.1736 167.069 27.375 167.433 26.4583C167.811 25.5417 168 24.5556 168 23.5C168 22.4306 167.811 21.4444 167.433 20.5417C167.069 19.625 166.552 18.8333 165.88 18.1667C165.208 17.4861 164.417 16.9583 163.508 16.5833C162.612 16.1944 161.625 16 160.548 16C159.484 16 158.497 16.1944 157.588 16.5833C156.678 16.9583 155.887 17.4861 155.216 18.1667C154.544 18.8333 154.019 19.625 153.641 20.5417C153.277 21.4444 153.095 22.4306 153.095 23.5Z" fill="url(#paint15_linear_124_2956)"/>
</g>
</g>
<defs>
<linearGradient id="paint0_linear_124_2956" x1="15.5667" y1="5.42945" x2="26.4534" y2="5.42945" gradientUnits="userSpaceOnUse">
<stop stop-color="#51A6D3"/>
<stop offset="1" stop-color="#007ABA"/>
</linearGradient>
<linearGradient id="paint1_linear_124_2956" x1="19.2572" y1="20.352" x2="22.7047" y2="20.352" gradientUnits="userSpaceOnUse">
<stop stop-color="#51A6D3"/>
<stop offset="1" stop-color="#007ABA"/>
</linearGradient>
<linearGradient id="paint2_linear_124_2956" x1="19.2576" y1="30.3296" x2="22.8129" y2="30.3296" gradientUnits="userSpaceOnUse">
<stop stop-color="#51A6D3"/>
<stop offset="1" stop-color="#007ABA"/>
</linearGradient>
<linearGradient id="paint3_linear_124_2956" x1="17.9135" y1="16.8321" x2="4.5918" y2="16.832" gradientUnits="userSpaceOnUse">
<stop stop-color="#EB6744"/>
<stop offset="1" stop-color="#FF9966"/>
</linearGradient>
<linearGradient id="paint4_linear_124_2956" x1="28.2182" y1="16.8321" x2="14.8965" y2="16.832" gradientUnits="userSpaceOnUse">
<stop stop-color="#EB6744"/>
<stop offset="1" stop-color="#FF9966"/>
</linearGradient>
<linearGradient id="paint5_linear_124_2956" x1="38.4974" y1="16.8321" x2="25.1758" y2="16.832" gradientUnits="userSpaceOnUse">
<stop stop-color="#EB6744"/>
<stop offset="1" stop-color="#FF9966"/>
</linearGradient>
<linearGradient id="paint6_linear_124_2956" x1="168" y1="23.5" x2="46" y2="23.4999" gradientUnits="userSpaceOnUse">
<stop stop-color="#EB6744"/>
<stop offset="1" stop-color="#FF9966"/>
</linearGradient>
<linearGradient id="paint7_linear_124_2956" x1="168" y1="23.5" x2="46" y2="23.4999" gradientUnits="userSpaceOnUse">
<stop stop-color="#EB6744"/>
<stop offset="1" stop-color="#FF9966"/>
</linearGradient>
<linearGradient id="paint8_linear_124_2956" x1="168" y1="23.5" x2="46" y2="23.4999" gradientUnits="userSpaceOnUse">
<stop stop-color="#EB6744"/>
<stop offset="1" stop-color="#FF9966"/>
</linearGradient>
<linearGradient id="paint9_linear_124_2956" x1="168" y1="23.5" x2="46" y2="23.4999" gradientUnits="userSpaceOnUse">
<stop stop-color="#EB6744"/>
<stop offset="1" stop-color="#FF9966"/>
</linearGradient>
<linearGradient id="paint10_linear_124_2956" x1="168" y1="23.5" x2="46" y2="23.4999" gradientUnits="userSpaceOnUse">
<stop stop-color="#EB6744"/>
<stop offset="1" stop-color="#FF9966"/>
</linearGradient>
<linearGradient id="paint11_linear_124_2956" x1="168" y1="23.5" x2="46" y2="23.4999" gradientUnits="userSpaceOnUse">
<stop stop-color="#EB6744"/>
<stop offset="1" stop-color="#FF9966"/>
</linearGradient>
<linearGradient id="paint12_linear_124_2956" x1="46.4628" y1="21.3948" x2="168.475" y2="21.3948" gradientUnits="userSpaceOnUse">
<stop stop-color="#51A6D3"/>
<stop offset="1" stop-color="#007ABA"/>
</linearGradient>
<linearGradient id="paint13_linear_124_2956" x1="46.4628" y1="21.3948" x2="168.475" y2="21.3948" gradientUnits="userSpaceOnUse">
<stop stop-color="#51A6D3"/>
<stop offset="1" stop-color="#007ABA"/>
</linearGradient>
<linearGradient id="paint14_linear_124_2956" x1="46.4628" y1="21.3948" x2="168.475" y2="21.3948" gradientUnits="userSpaceOnUse">
<stop stop-color="#51A6D3"/>
<stop offset="1" stop-color="#007ABA"/>
</linearGradient>
<linearGradient id="paint15_linear_124_2956" x1="46.4628" y1="21.3948" x2="168.475" y2="21.3948" gradientUnits="userSpaceOnUse">
<stop stop-color="#51A6D3"/>
<stop offset="1" stop-color="#007ABA"/>
</linearGradient>
</defs>
</svg>
