<svg width="63" height="55" viewBox="0 0 63 55" fill="none" xmlns="http://www.w3.org/2000/svg">
<rect x="0.565186" y="0.5" width="61.0065" height="54" rx="11.5" fill="#EFF5F9"/>
<rect x="0.565186" y="0.5" width="61.0065" height="54" rx="11.5" stroke="#0075C4"/>
<path d="M31.0685 12.5C22.5435 12.5 15.5685 19.25 15.5685 27.5C15.5685 35.75 22.5435 42.5 31.0685 42.5C39.5935 42.5 46.5685 35.75 46.5685 27.5C46.5685 19.25 39.5935 12.5 31.0685 12.5ZM31.0685 39.5C24.233 39.5 18.6685 34.115 18.6685 27.5C18.6685 20.885 24.233 15.5 31.0685 15.5C37.9039 15.5 43.4685 20.885 43.4685 27.5C43.4685 34.115 37.9039 39.5 31.0685 39.5ZM38.183 20.87L27.9685 30.755L23.954 26.885L21.7685 29L27.9685 35L40.3685 23L38.183 20.87Z" fill="#0075C4"/>
</svg>
