<svg width="63" height="55" viewBox="0 0 63 55" fill="none" xmlns="http://www.w3.org/2000/svg">
<rect x="0.5" y="0.5" width="61.0065" height="54" rx="11.5" fill="#EFF5F9"/>
<rect x="0.5" y="0.5" width="61.0065" height="54" rx="11.5" stroke="#0075C4"/>
<path d="M29.3222 19.4476C31.3427 19.4476 32.9808 17.8097 32.9808 15.7891C32.9808 13.7686 31.3427 12.1306 29.3222 12.1306C27.3016 12.1306 25.6637 13.7686 25.6637 15.7891C25.6637 17.8097 27.3016 19.4476 29.3222 19.4476Z" stroke="#0075C4" stroke-width="1.95122" stroke-linecap="round" stroke-linejoin="round"/>
<path d="M17.127 30.4232C19.1476 30.4232 20.7856 28.7853 20.7856 26.7647C20.7856 24.7442 19.1476 23.1061 17.127 23.1061C15.1065 23.1061 13.4685 24.7442 13.4685 26.7647C13.4685 28.7853 15.1065 30.4232 17.127 30.4232Z" stroke="#0075C4" stroke-width="1.95122" stroke-linecap="round" stroke-linejoin="round"/>
<path d="M35.4198 43.8379C37.4403 43.8379 39.0783 42.1999 39.0783 40.1793C39.0783 38.1588 37.4403 36.5208 35.4198 36.5208C33.3992 36.5208 31.7612 38.1588 31.7612 40.1793C31.7612 42.1999 33.3992 43.8379 35.4198 43.8379Z" stroke="#0075C4" stroke-width="1.95122" stroke-linecap="round" stroke-linejoin="round"/>
<path d="M42.7368 23.1062C44.7573 23.1062 46.3954 21.4682 46.3954 19.4476C46.3954 17.4271 44.7573 15.7891 42.7368 15.7891C40.7163 15.7891 39.0783 17.4271 39.0783 19.4476C39.0783 21.4682 40.7163 23.1062 42.7368 23.1062Z" stroke="#0075C4" stroke-width="1.95122" stroke-linecap="round" stroke-linejoin="round"/>
<path d="M39.2003 18.4875L32.8588 16.7497" stroke="#0075C4" stroke-width="1.95122" stroke-linecap="round" stroke-linejoin="round"/>
<path d="M26.6087 18.2434L19.8405 24.3104" stroke="#0075C4" stroke-width="1.95122" stroke-linecap="round" stroke-linejoin="round"/>
<path d="M20.0839 28.9291L32.462 38.0144" stroke="#0075C4" stroke-width="1.95122" stroke-linecap="round" stroke-linejoin="round"/>
<path d="M36.6393 36.7343L41.5173 22.8928" stroke="#0075C4" stroke-width="1.95122" stroke-linecap="round" stroke-linejoin="round"/>
</svg>
