<svg width="63" height="55" viewBox="0 0 63 55" fill="none" xmlns="http://www.w3.org/2000/svg">
<rect x="0.968872" y="0.5" width="61.0065" height="54" rx="11.5" fill="#EFF5F9"/>
<rect x="0.968872" y="0.5" width="61.0065" height="54" rx="11.5" stroke="#0075C4"/>
<mask id="path-2-inside-1_1_46478" fill="white">
<path d="M34.0212 32.0581C36.0463 28.5632 38.606 23.65 38.606 21.1245C38.606 16.8642 35.2765 13.4 31.182 13.4C27.0875 13.4 23.758 16.8642 23.758 21.1245C23.758 23.65 26.3177 28.5632 28.3428 32.0581C25.9401 32.2469 20.4726 32.9255 20.4726 35.1755C20.4726 37.3898 26.0235 38.4 31.1869 38.4C36.3455 38.4 41.9012 37.3898 41.9012 35.1755C41.8963 32.9255 36.4239 32.2469 34.0212 32.0581ZM24.7829 21.1245C24.7829 17.451 27.6563 14.4612 31.182 14.4612C34.7126 14.4612 37.5861 17.451 37.5861 21.1245C37.5861 24.3336 32.6727 32.3847 31.182 34.752C29.6913 32.3847 24.7829 24.3336 24.7829 21.1245ZM31.182 37.3336C24.9104 37.3336 21.4926 35.9051 21.4926 35.1704C21.4926 34.604 23.7482 33.3847 28.946 33.0734C29.9218 34.7112 30.6622 35.8694 30.7603 36.0071C30.8927 36.1908 31.2801 36.4102 31.6086 36.0071C31.7116 35.8796 32.4471 34.7112 33.4229 33.0734C38.6207 33.3847 40.8764 34.5989 40.8764 35.1704C40.8715 35.9102 37.4537 37.3336 31.182 37.3336Z"/>
<path d="M34.4134 21.1245C34.4134 19.2673 32.9669 17.7622 31.182 17.7622C29.3971 17.7622 27.9505 19.2673 27.9505 21.1245C27.9505 22.9816 29.3971 24.4867 31.182 24.4867C32.9669 24.4867 34.4134 22.9816 34.4134 21.1245ZM28.9705 21.1245C28.9705 19.854 29.961 18.8234 31.182 18.8234C32.403 18.8234 33.3935 19.854 33.3935 21.1245C33.3935 22.3949 32.403 23.4255 31.182 23.4255C29.961 23.4255 28.9705 22.3949 28.9705 21.1245Z"/>
</mask>
<path d="M34.0212 32.0581C36.0463 28.5632 38.606 23.65 38.606 21.1245C38.606 16.8642 35.2765 13.4 31.182 13.4C27.0875 13.4 23.758 16.8642 23.758 21.1245C23.758 23.65 26.3177 28.5632 28.3428 32.0581C25.9401 32.2469 20.4726 32.9255 20.4726 35.1755C20.4726 37.3898 26.0235 38.4 31.1869 38.4C36.3455 38.4 41.9012 37.3898 41.9012 35.1755C41.8963 32.9255 36.4239 32.2469 34.0212 32.0581ZM24.7829 21.1245C24.7829 17.451 27.6563 14.4612 31.182 14.4612C34.7126 14.4612 37.5861 17.451 37.5861 21.1245C37.5861 24.3336 32.6727 32.3847 31.182 34.752C29.6913 32.3847 24.7829 24.3336 24.7829 21.1245ZM31.182 37.3336C24.9104 37.3336 21.4926 35.9051 21.4926 35.1704C21.4926 34.604 23.7482 33.3847 28.946 33.0734C29.9218 34.7112 30.6622 35.8694 30.7603 36.0071C30.8927 36.1908 31.2801 36.4102 31.6086 36.0071C31.7116 35.8796 32.4471 34.7112 33.4229 33.0734C38.6207 33.3847 40.8764 34.5989 40.8764 35.1704C40.8715 35.9102 37.4537 37.3336 31.182 37.3336Z" fill="#3F3F3F"/>
<path d="M34.4134 21.1245C34.4134 19.2673 32.9669 17.7622 31.182 17.7622C29.3971 17.7622 27.9505 19.2673 27.9505 21.1245C27.9505 22.9816 29.3971 24.4867 31.182 24.4867C32.9669 24.4867 34.4134 22.9816 34.4134 21.1245ZM28.9705 21.1245C28.9705 19.854 29.961 18.8234 31.182 18.8234C32.403 18.8234 33.3935 19.854 33.3935 21.1245C33.3935 22.3949 32.403 23.4255 31.182 23.4255C29.961 23.4255 28.9705 22.3949 28.9705 21.1245Z" fill="#3F3F3F"/>
<path d="M34.0212 32.0581L32.2907 31.0554L30.6984 33.8032L33.8645 34.052L34.0212 32.0581ZM28.3428 32.0581L28.4995 34.052L31.6656 33.8032L30.0733 31.0554L28.3428 32.0581ZM41.9012 35.1755H43.9012L43.9012 35.1711L41.9012 35.1755ZM31.182 34.752L29.4896 35.8177L31.182 38.5054L32.8744 35.8177L31.182 34.752ZM28.946 33.0734L30.6641 32.0497L30.0412 31.0043L28.8264 31.077L28.946 33.0734ZM30.7603 36.0071L29.131 37.1671L29.1379 37.1766L30.7603 36.0071ZM31.6086 36.0071L33.1589 37.2707L33.1648 37.2634L31.6086 36.0071ZM33.4229 33.0734L33.5425 31.077L32.3277 31.0043L31.7048 32.0497L33.4229 33.0734ZM40.8764 35.1704L42.8764 35.1836V35.1704H40.8764ZM35.7516 33.0609C36.7796 31.2869 37.9634 29.1189 38.8963 27.0498C39.7829 25.0833 40.606 22.8656 40.606 21.1245H36.606C36.606 21.9089 36.1493 23.4105 35.2498 25.4058C34.3965 27.2984 33.2879 29.3345 32.2907 31.0554L35.7516 33.0609ZM40.606 21.1245C40.606 15.8352 36.4551 11.4 31.182 11.4V15.4C34.0979 15.4 36.606 17.8933 36.606 21.1245H40.606ZM31.182 11.4C25.9089 11.4 21.758 15.8352 21.758 21.1245H25.758C25.758 17.8933 28.2662 15.4 31.182 15.4V11.4ZM21.758 21.1245C21.758 22.8656 22.5812 25.0833 23.4677 27.0498C24.4006 29.1189 25.5844 31.2869 26.6124 33.0609L30.0733 31.0554C29.0761 29.3345 27.9675 27.2984 27.1143 25.4058C26.2147 23.4105 25.758 21.9089 25.758 21.1245H21.758ZM28.1862 30.0643C26.9501 30.1614 24.8225 30.3899 22.9592 30.9202C22.041 31.1816 21.0373 31.5565 20.2218 32.1243C19.407 32.6915 18.4726 33.685 18.4726 35.1755H22.4726C22.4726 35.541 22.2216 35.6059 22.5072 35.4071C22.7918 35.209 23.3052 34.9806 24.0542 34.7675C25.5253 34.3488 27.3328 34.1436 28.4995 34.052L28.1862 30.0643ZM18.4726 35.1755C18.4726 36.6808 19.4404 37.6893 20.301 38.2707C21.1727 38.8596 22.277 39.2639 23.3896 39.5536C25.6438 40.1405 28.5057 40.4 31.1869 40.4V36.4C28.7047 36.4 26.2094 36.1544 24.3974 35.6826C23.4768 35.4429 22.8707 35.1795 22.5403 34.9562C22.1987 34.7254 22.4726 34.7773 22.4726 35.1755H18.4726ZM31.1869 40.4C33.8658 40.4 36.7276 40.1404 38.9823 39.5536C40.095 39.264 41.1997 38.8598 42.0717 38.271C42.9322 37.69 43.9012 36.6816 43.9012 35.1755H39.9012C39.9012 34.7765 40.1757 34.7247 39.8334 34.9559C39.5025 35.1793 38.8957 35.4429 37.9747 35.6826C36.1619 36.1544 33.6665 36.4 31.1869 36.4V40.4ZM43.9012 35.1711C43.8979 33.6811 42.9616 32.6892 42.1468 32.1232C41.3305 31.5561 40.3264 31.1814 39.4073 30.9201C37.5425 30.3899 35.4139 30.1614 34.1778 30.0643L33.8645 34.052C35.0312 34.1436 36.8402 34.3488 38.3135 34.7676C39.0634 34.9808 39.5784 35.2094 39.8647 35.4083C40.1524 35.6082 39.902 35.5449 39.9012 35.1798L43.9012 35.1711ZM26.7829 21.1245C26.7829 18.479 28.8359 16.4612 31.182 16.4612V12.4612C26.4767 12.4612 22.7829 16.423 22.7829 21.1245H26.7829ZM31.182 16.4612C33.534 16.4612 35.5861 18.48 35.5861 21.1245H39.5861C39.5861 16.422 35.8912 12.4612 31.182 12.4612V16.4612ZM35.5861 21.1245C35.5861 21.5294 35.4027 22.3382 34.9313 23.5492C34.4844 24.697 33.8602 26.0064 33.1701 27.3283C31.7919 29.9683 30.2236 32.5206 29.4896 33.6863L32.8744 35.8177C33.6311 34.616 35.2648 31.9592 36.716 29.1795C37.4405 27.7916 38.1378 26.3385 38.6588 25.0003C39.1552 23.7252 39.5861 22.3241 39.5861 21.1245H35.5861ZM32.8744 33.6863C32.1408 32.5212 30.5737 29.9689 29.1967 27.329C28.5072 26.0071 27.8835 24.6977 27.4371 23.5498C26.9661 22.3388 26.7829 21.5298 26.7829 21.1245H22.7829C22.7829 22.3237 23.2132 23.7245 23.7091 24.9997C24.2296 26.3379 24.9262 27.7909 25.6502 29.1789C27.1001 31.9586 28.7326 34.6155 29.4896 35.8177L32.8744 33.6863ZM31.182 35.3336C28.187 35.3336 25.9472 34.9914 24.514 34.5986C23.7864 34.3992 23.3345 34.2052 23.1111 34.0785C22.9936 34.0119 23.0136 34.0056 23.0898 34.0844C23.1265 34.1224 23.4926 34.4975 23.4926 35.1704H19.4926C19.4926 36.027 19.9654 36.6074 20.2135 36.8641C20.5011 37.1617 20.8372 37.3875 21.1381 37.5581C21.7515 37.9059 22.546 38.2068 23.4568 38.4564C25.3005 38.9616 27.9054 39.3336 31.182 39.3336V35.3336ZM23.4926 35.1704C23.4926 35.7508 23.2198 36.1083 23.1501 36.1938C23.0587 36.3059 23.0003 36.3357 23.0501 36.302C23.1439 36.2382 23.4082 36.0925 23.9166 35.9189C24.9147 35.578 26.591 35.218 29.0655 35.0699L28.8264 31.077C26.1031 31.2401 24.0528 31.6454 22.6236 32.1336C21.9184 32.3745 21.294 32.6593 20.8024 32.9932C20.5594 33.1582 20.2842 33.3787 20.0492 33.6671C19.8358 33.9289 19.4926 34.4484 19.4926 35.1704H23.4926ZM27.2278 34.0971C28.1976 35.7248 28.9782 36.9524 29.131 37.167L32.3896 34.8472C32.399 34.8604 32.3624 34.8068 32.2563 34.6413C32.163 34.4958 32.0351 34.2939 31.8788 34.0436C31.5664 33.5432 31.1445 32.856 30.6641 32.0497L27.2278 34.0971ZM29.1379 37.1766C29.4601 37.6237 30.0191 38.0646 30.7613 38.1963C31.6867 38.3606 32.5736 37.9887 33.1589 37.2707L30.0584 34.7435C30.1566 34.623 30.3394 34.4536 30.6245 34.3416C30.9138 34.2279 31.2078 34.2131 31.4605 34.2579C31.8938 34.3349 32.1929 34.5742 32.3827 34.8376L29.1379 37.1766ZM33.1648 37.2634C33.2737 37.1286 33.4057 36.923 33.4792 36.809C33.586 36.6434 33.7244 36.4242 33.887 36.1624C34.2132 35.6378 34.6476 34.9255 35.1411 34.0971L31.7048 32.0497C31.2225 32.8592 30.8012 33.5499 30.4899 34.0508C30.3338 34.3018 30.208 34.5009 30.1174 34.6415C29.9935 34.8336 29.9951 34.8219 30.0524 34.7508L33.1648 37.2634ZM33.3034 35.0699C35.7787 35.2181 37.4552 35.5769 38.4532 35.9173C38.9616 36.0907 39.2251 36.236 39.3179 36.2992C39.3671 36.3326 39.3081 36.3023 39.2164 36.1894C39.1451 36.1016 38.8764 35.7459 38.8764 35.1704H42.8764C42.8764 34.452 42.5371 33.9334 42.3222 33.6686C42.0868 33.3787 41.811 33.1573 41.5675 32.9917C41.075 32.6567 40.4496 32.3719 39.7444 32.1314C38.3151 31.6439 36.2649 31.24 33.5425 31.077L33.3034 35.0699ZM38.8764 35.1571C38.8808 34.4927 39.2413 34.1233 39.2784 34.085C39.3538 34.007 39.3731 34.0138 39.2555 34.0804C39.0316 34.2073 38.5794 34.4012 37.8515 34.6003C36.4177 34.9925 34.1777 35.3336 31.182 35.3336V39.3336C34.458 39.3336 37.0627 38.963 38.9069 38.4586C39.8181 38.2093 40.6132 37.9086 41.2275 37.5605C41.529 37.3897 41.8652 37.1639 42.1529 36.8665C42.4023 36.6088 42.8707 36.033 42.8763 35.1836L38.8764 35.1571ZM36.4134 21.1245C36.4134 18.2383 34.1455 15.7622 31.182 15.7622V19.7622C31.7883 19.7622 32.4134 20.2963 32.4134 21.1245H36.4134ZM31.182 15.7622C28.2185 15.7622 25.9505 18.2383 25.9505 21.1245H29.9505C29.9505 20.2963 30.5757 19.7622 31.182 19.7622V15.7622ZM25.9505 21.1245C25.9505 24.0106 28.2185 26.4867 31.182 26.4867V22.4867C30.5757 22.4867 29.9505 21.9526 29.9505 21.1245H25.9505ZM31.182 26.4867C34.1455 26.4867 36.4134 24.0106 36.4134 21.1245H32.4134C32.4134 21.9526 31.7883 22.4867 31.182 22.4867V26.4867ZM30.9705 21.1245C30.9705 21.0158 31.0112 20.9345 31.0603 20.8834C31.1081 20.8337 31.1502 20.8234 31.182 20.8234V16.8234C28.7824 16.8234 26.9705 18.825 26.9705 21.1245H30.9705ZM31.182 20.8234C31.2137 20.8234 31.2558 20.8337 31.3036 20.8834C31.3527 20.9345 31.3935 21.0158 31.3935 21.1245H35.3935C35.3935 18.825 33.5816 16.8234 31.182 16.8234V20.8234ZM31.3935 21.1245C31.3935 21.2331 31.3527 21.3144 31.3036 21.3655C31.2558 21.4152 31.2137 21.4255 31.182 21.4255V25.4255C33.5816 25.4255 35.3935 23.4239 35.3935 21.1245H31.3935ZM31.182 21.4255C31.1502 21.4255 31.1081 21.4152 31.0603 21.3655C31.0112 21.3144 30.9705 21.2331 30.9705 21.1245H26.9705C26.9705 23.4239 28.7824 25.4255 31.182 25.4255V21.4255Z" fill="#0075C4" mask="url(#path-2-inside-1_1_46478)"/>
</svg>
