<svg width="63" height="55" viewBox="0 0 63 55" fill="none" xmlns="http://www.w3.org/2000/svg">
<rect x="0.604065" y="0.5" width="61.0065" height="54" rx="11.5" fill="#EFF5F9"/>
<rect x="0.604065" y="0.5" width="61.0065" height="54" rx="11.5" stroke="#0075C4"/>
<path d="M37.3335 31.239H36.0236L35.5593 30.7913C37.1842 28.9011 38.1625 26.4471 38.1625 23.7776C38.1625 17.825 33.3375 13 27.3849 13C21.4324 13 16.6073 17.825 16.6073 23.7776C16.6073 29.7301 21.4324 34.5552 27.3849 34.5552C30.0544 34.5552 32.5084 33.5769 34.3986 31.952L34.8463 32.4162V33.7261L43.1368 42L45.6073 39.5294L37.3335 31.239ZM27.3849 31.239C23.2563 31.239 19.9235 27.9062 19.9235 23.7776C19.9235 19.6489 23.2563 16.3162 27.3849 16.3162C31.5136 16.3162 34.8463 19.6489 34.8463 23.7776C34.8463 27.9062 31.5136 31.239 27.3849 31.239Z" fill="#0075C4"/>
</svg>
