<svg width="35" height="35" viewBox="0 0 35 35" fill="none" xmlns="http://www.w3.org/2000/svg">
<path d="M6.5625 4.375V28.4375H19.6875V4.375H6.5625ZM5.46875 2.1875H20.7812C21.0713 2.1875 21.3495 2.30273 21.5546 2.50785C21.7598 2.71297 21.875 2.99117 21.875 3.28125V29.5312C21.875 29.8213 21.7598 30.0995 21.5546 30.3046C21.3495 30.5098 21.0713 30.625 20.7812 30.625H5.46875C5.17867 30.625 4.90047 30.5098 4.69535 30.3046C4.49023 30.0995 4.375 29.8213 4.375 29.5312V3.28125C4.375 2.99117 4.49023 2.71297 4.69535 2.50785C4.90047 2.30273 5.17867 2.1875 5.46875 2.1875Z" fill="#EC6B46"/>
<path d="M8.75 8.75H17.5V10.9375H8.75V8.75ZM8.75 15.3125H17.5V17.5H8.75V15.3125ZM8.75 21.875H17.5V24.0625H8.75V21.875ZM21.875 17.5H26.25V19.6875H21.875V17.5ZM21.875 21.875H26.25V24.0625H21.875V21.875ZM2.1875 28.4375H32.8125V30.625H2.1875V28.4375Z" fill="#EC6B46"/>
<path d="M21.875 13.125V28.4375H28.4375V13.125H21.875ZM20.7812 10.9375H29.5312C29.8213 10.9375 30.0995 11.0527 30.3046 11.2579C30.5098 11.463 30.625 11.7412 30.625 12.0312V29.5312C30.625 29.8213 30.5098 30.0995 30.3046 30.3046C30.0995 30.5098 29.8213 30.625 29.5312 30.625H20.7812C20.4912 30.625 20.213 30.5098 20.0079 30.3046C19.8027 30.0995 19.6875 29.8213 19.6875 29.5312V12.0312C19.6875 11.7412 19.8027 11.463 20.0079 11.2579C20.213 11.0527 20.4912 10.9375 20.7812 10.9375Z" fill="#EC6B46"/>
</svg>
