<svg width="25" height="22" viewBox="0 0 25 22" fill="none" xmlns="http://www.w3.org/2000/svg">
<path d="M10.1562 3.4375H23.0469V4.8125H10.1562V3.4375ZM1.95312 4.125C1.95313 4.6689 2.1364 5.20058 2.47978 5.65282C2.82316 6.10505 3.31122 6.45753 3.88224 6.66567C4.45326 6.87381 5.08159 6.92827 5.68778 6.82216C6.29397 6.71605 6.85079 6.45414 7.28783 6.06954C7.72487 5.68495 8.0225 5.19495 8.14308 4.6615C8.26366 4.12805 8.20177 3.57512 7.96525 3.07262C7.72872 2.57012 7.32819 2.14063 6.81428 1.83846C6.30038 1.53628 5.69619 1.375 5.07812 1.375C4.24961 1.37582 3.45529 1.66581 2.86944 2.18136C2.28359 2.69691 1.95406 3.39591 1.95312 4.125ZM5.07812 2.75C5.38716 2.75 5.68925 2.83064 5.9462 2.98173C6.20316 3.13282 6.40343 3.34756 6.52169 3.59881C6.63995 3.85006 6.67089 4.12653 6.6106 4.39325C6.55031 4.65997 6.4015 4.90497 6.18298 5.09727C5.96446 5.28957 5.68605 5.42053 5.38295 5.47358C5.07986 5.52663 4.76569 5.4994 4.48018 5.39533C4.19467 5.29126 3.95064 5.11503 3.77895 4.88891C3.60726 4.66279 3.51562 4.39695 3.51562 4.125C3.51609 3.76045 3.68086 3.41095 3.97378 3.15318C4.26671 2.89541 4.66387 2.75041 5.07812 2.75ZM10.1562 10.3125H23.0469V11.6875H10.1562V10.3125ZM5.07812 13.75C5.69619 13.75 6.30038 13.5887 6.81428 13.2865C7.32819 12.9844 7.72872 12.5549 7.96525 12.0524C8.20177 11.5499 8.26366 10.9969 8.14308 10.4635C8.0225 9.93005 7.72487 9.44005 7.28783 9.05546C6.85079 8.67086 6.29397 8.40895 5.68778 8.30284C5.08159 8.19673 4.45326 8.25119 3.88224 8.45933C3.31122 8.66747 2.82316 9.01995 2.47978 9.47218C2.1364 9.92442 1.95313 10.4561 1.95312 11C1.95406 11.7291 2.28359 12.4281 2.86944 12.9436C3.45529 13.4592 4.24961 13.7492 5.07812 13.75ZM5.07812 9.625C5.38716 9.625 5.68925 9.70564 5.9462 9.85673C6.20316 10.0078 6.40343 10.2226 6.52169 10.4738C6.63995 10.7251 6.67089 11.0015 6.6106 11.2682C6.55031 11.535 6.4015 11.78 6.18298 11.9723C5.96446 12.1646 5.68605 12.2955 5.38295 12.3486C5.07986 12.4016 4.76569 12.3744 4.48018 12.2703C4.19467 12.1663 3.95064 11.99 3.77895 11.7639C3.60726 11.5378 3.51562 11.2719 3.51562 11C3.51609 10.6355 3.68086 10.286 3.97378 10.0282C4.26671 9.77041 4.66387 9.62541 5.07812 9.625ZM10.1562 17.1875H23.0469V18.5625H10.1562V17.1875ZM5.07812 20.625C5.69619 20.625 6.30038 20.4637 6.81428 20.1615C7.32819 19.8594 7.72872 19.4299 7.96525 18.9274C8.20177 18.4249 8.26366 17.872 8.14308 17.3385C8.0225 16.8051 7.72487 16.3151 7.28783 15.9305C6.85079 15.5459 6.29397 15.2839 5.68778 15.1778C5.08159 15.0717 4.45326 15.1262 3.88224 15.3343C3.31122 15.5425 2.82316 15.8949 2.47978 16.3472C2.1364 16.7994 1.95313 17.3311 1.95312 17.875C1.95406 18.6041 2.28359 19.3031 2.86944 19.8186C3.45529 20.3342 4.24961 20.6242 5.07812 20.625ZM5.07812 16.5C5.38716 16.5 5.68925 16.5806 5.9462 16.7317C6.20316 16.8828 6.40343 17.0976 6.52169 17.3488C6.63995 17.6001 6.67089 17.8765 6.6106 18.1432C6.55031 18.41 6.4015 18.655 6.18298 18.8473C5.96446 19.0396 5.68605 19.1705 5.38295 19.2236C5.07986 19.2766 4.76569 19.2494 4.48018 19.1453C4.19467 19.0413 3.95064 18.865 3.77895 18.6389C3.60726 18.4128 3.51562 18.1469 3.51562 17.875C3.51609 17.5105 3.68086 17.161 3.97378 16.9032C4.26671 16.6454 4.66387 16.5004 5.07812 16.5Z" fill="#EC6B46"/>
</svg>
