<svg width="62" height="63" viewBox="0 0 62 63" fill="none" xmlns="http://www.w3.org/2000/svg">
<rect y="0.0151367" width="62" height="62" rx="12" fill="#EFF5F9"/>
<path d="M46.2022 26.8165C46.0697 26.4082 45.8201 26.0479 45.4843 25.7805C45.1486 25.5131 44.7416 25.3504 44.3141 25.3126L36.1944 24.6126L33.0116 17.0438C32.8458 16.6467 32.5663 16.3074 32.2082 16.0688C31.8501 15.8302 31.4294 15.7029 30.9991 15.7029C30.5687 15.7029 30.148 15.8302 29.7899 16.0688C29.4318 16.3074 29.1523 16.6467 28.9866 17.0438L25.8133 24.6126L17.684 25.3167C17.2548 25.3527 16.8457 25.5147 16.5082 25.7824C16.1706 26.05 15.9196 26.4113 15.7866 26.821C15.6536 27.2307 15.6445 27.6706 15.7605 28.0854C15.8764 28.5003 16.1123 28.8717 16.4385 29.153L22.6059 34.5425L20.7575 42.546C20.6597 42.9648 20.6876 43.4031 20.8376 43.8062C20.9877 44.2093 21.2532 44.5592 21.601 44.8121C21.9488 45.0651 22.3635 45.21 22.7932 45.2286C23.2228 45.2471 23.6485 45.1387 24.0168 44.9167L30.9895 40.6784L37.9772 44.9167C38.3455 45.1387 38.7712 45.2471 39.2008 45.2286C39.6305 45.21 40.0452 45.0651 40.393 44.8121C40.7408 44.5592 41.0063 44.2093 41.1564 43.8062C41.3064 43.4031 41.3343 42.9648 41.2366 42.546L39.3895 34.5342L45.5555 29.153C45.8817 28.8707 46.1171 28.4983 46.2321 28.0825C46.3472 27.6668 46.3368 27.2263 46.2022 26.8165ZM44.1213 27.5001L37.9553 32.8813C37.6552 33.1424 37.432 33.4803 37.3096 33.8587C37.1872 34.2372 37.1703 34.6418 37.2608 35.0292L39.1133 43.0464L32.1311 38.8081C31.7904 38.6006 31.3993 38.4909 31.0004 38.4909C30.6016 38.4909 30.2104 38.6006 29.8698 38.8081L22.8971 43.0464L24.7373 35.0346C24.8278 34.6473 24.8109 34.2427 24.6885 33.8642C24.5661 33.4858 24.3429 33.1478 24.0428 32.8868L17.8741 27.5083C17.8736 27.5042 17.8736 27.5001 17.8741 27.496L26.0006 26.7932C26.3974 26.7583 26.7771 26.6156 27.0987 26.3807C27.4204 26.1458 27.6718 25.8275 27.8258 25.4602L30.9991 17.901L34.1709 25.4602C34.325 25.8275 34.5764 26.1458 34.898 26.3807C35.2197 26.6156 35.5994 26.7583 35.9961 26.7932L44.1241 27.496V27.5055L44.1213 27.5001Z" fill="#0075C4"/>
</svg>
