<svg width="25" height="25" viewBox="0 0 25 25" fill="none" xmlns="http://www.w3.org/2000/svg">
<path d="M18.1195 10.9685C18.2422 10.814 18.2995 10.6176 18.2793 10.4213C18.2591 10.225 18.1629 10.0444 18.0113 9.9181C17.8598 9.79179 17.6648 9.72975 17.4681 9.74526C17.2714 9.76076 17.0885 9.85258 16.9586 10.0011L15.1477 12.1738C14.7748 12.6222 14.544 12.8953 14.3556 13.0657C14.3066 13.1138 14.2513 13.1551 14.1913 13.1886L14.1802 13.1936L14.1692 13.1886C14.1088 13.1552 14.0532 13.1138 14.0039 13.0657C13.8154 12.8943 13.5857 12.6222 13.2118 12.1738L12.9175 11.8211C12.586 11.423 12.2877 11.0653 12.0095 10.8133C11.7062 10.5392 11.3243 10.2953 10.8204 10.2953C10.3165 10.2953 9.9356 10.5392 9.63126 10.8133C9.35312 11.0653 9.05482 11.423 8.72428 11.8211L6.88009 14.0321C6.81657 14.1084 6.7687 14.1964 6.7392 14.2912C6.70971 14.386 6.69918 14.4857 6.70821 14.5846C6.72645 14.7842 6.82326 14.9685 6.97734 15.0968C7.13142 15.2251 7.33016 15.2869 7.52983 15.2687C7.72949 15.2504 7.91374 15.1536 8.04203 14.9995L9.85296 12.8268C10.2258 12.3784 10.4566 12.1053 10.6451 11.935C10.6941 11.8868 10.7493 11.8455 10.8093 11.812L10.8204 11.807L10.8315 11.812C10.8918 11.8454 10.9474 11.8868 10.9968 11.935C11.1852 12.1063 11.415 12.3784 11.7889 12.8268L12.0831 13.1795C12.4147 13.5776 12.713 13.9353 12.9911 14.1873C13.2944 14.4614 13.6764 14.7053 14.1802 14.7053C14.6841 14.7053 15.0651 14.4614 15.3694 14.1873C15.6475 13.9353 15.9458 13.5776 16.2764 13.1795L18.1195 10.9685Z" fill="#EC6B46"/>
<path fill-rule="evenodd" clip-rule="evenodd" d="M12.4419 1.66675C10.115 1.66675 8.29198 1.66675 6.86904 1.85822C5.41385 2.05372 4.26501 2.46287 3.36307 3.3638C2.46113 4.26574 2.05299 5.41458 1.85749 6.87078C1.66602 8.29272 1.66602 10.1157 1.66602 12.4426V12.5575C1.66602 14.8844 1.66602 16.7074 1.85749 18.1304C2.05299 19.5856 2.46214 20.7344 3.36307 21.6364C4.26501 22.5383 5.41385 22.9464 6.87005 23.1419C8.29198 23.3334 10.115 23.3334 12.4419 23.3334H12.5568C14.8837 23.3334 16.7067 23.3334 18.1297 23.1419C19.5849 22.9464 20.7337 22.5373 21.6356 21.6364C22.5376 20.7344 22.9457 19.5856 23.1412 18.1294C23.3327 16.7074 23.3327 14.8844 23.3327 12.5575V12.4426C23.3327 10.1157 23.3327 8.29272 23.1412 6.86977C22.9457 5.41458 22.5366 4.26574 21.6356 3.3638C20.7337 2.46186 19.5849 2.05372 18.1287 1.85822C16.7067 1.66675 14.8837 1.66675 12.5568 1.66675H12.4419ZM4.43229 4.43303C5.00671 3.85861 5.78268 3.52907 7.0716 3.35574C8.38167 3.18039 10.1029 3.17838 12.4993 3.17838C14.8958 3.17838 16.617 3.18039 17.9271 3.35574C19.216 3.52907 19.993 3.85962 20.5674 4.43303C21.1408 5.00745 21.4704 5.78341 21.6437 7.07233C21.819 8.38241 21.8211 10.1036 21.8211 12.5001C21.8211 14.8965 21.819 16.6178 21.6437 17.9278C21.4704 19.2167 21.1398 19.9937 20.5664 20.5681C19.992 21.1416 19.216 21.4711 17.9271 21.6444C16.617 21.8198 14.8958 21.8218 12.4993 21.8218C10.1029 21.8218 8.38167 21.8198 7.0716 21.6444C5.78268 21.4711 5.00571 21.1405 4.43129 20.5671C3.85788 19.9927 3.52834 19.2167 3.35501 17.9278C3.17966 16.6178 3.17764 14.8965 3.17764 12.5001C3.17764 10.1036 3.17966 8.38241 3.35501 7.07233C3.52834 5.78341 3.85888 5.00745 4.43229 4.43303Z" fill="#EC6B46"/>
</svg>
