<svg width="25" height="25" viewBox="0 0 25 25" fill="none" xmlns="http://www.w3.org/2000/svg">
<g clip-path="url(#clip0_1_43447)">
<path d="M19.7321 1.1001C20.7977 1.1001 21.8197 1.52152 22.5732 2.27167C23.3267 3.02182 23.75 4.03923 23.75 5.1001V19.5001C23.75 20.561 23.3267 21.5784 22.5732 22.3285C21.8197 23.0787 20.7977 23.5001 19.7321 23.5001H14.9107V21.9001H19.7321C20.3715 21.9001 20.9847 21.6472 21.4368 21.1972C21.8889 20.7471 22.1429 20.1366 22.1429 19.5001V7.5001H2.85714V19.5001C2.85714 20.1366 3.11113 20.7471 3.56322 21.1972C4.01532 21.6472 4.6285 21.9001 5.26786 21.9001H10.0893V23.5001H5.26786C4.20226 23.5001 3.1803 23.0787 2.4268 22.3285C1.67331 21.5784 1.25 20.561 1.25 19.5001V5.1001C1.25 4.03923 1.67331 3.02182 2.4268 2.27167C3.1803 1.52152 4.20226 1.1001 5.26786 1.1001H19.7321ZM19.7321 2.7001H5.26786C4.6285 2.7001 4.01532 2.95295 3.56322 3.40304C3.11113 3.85313 2.85714 4.46358 2.85714 5.1001V5.9001H22.1429V5.1001C22.1429 4.46358 21.8889 3.85313 21.4368 3.40304C20.9847 2.95295 20.3715 2.7001 19.7321 2.7001ZM14.1071 10.7001C14.1071 11.1244 13.9378 11.5314 13.6364 11.8315C13.335 12.1315 12.9262 12.3001 12.5 12.3001C12.0738 12.3001 11.665 12.1315 11.3636 11.8315C11.0622 11.5314 10.8929 11.1244 10.8929 10.7001C10.8929 10.2758 11.0622 9.86879 11.3636 9.56873C11.665 9.26867 12.0738 9.1001 12.5 9.1001C12.9262 9.1001 13.335 9.26867 13.6364 9.56873C13.9378 9.86879 14.1071 10.2758 14.1071 10.7001ZM15.5279 18.8121C15.3914 18.975 15.1956 19.0773 14.9834 19.0965C14.7713 19.1157 14.5601 19.0502 14.3964 18.9145L13.3036 18.0089V24.3001C13.3036 24.5123 13.2189 24.7158 13.0682 24.8658C12.9175 25.0158 12.7131 25.1001 12.5 25.1001C12.2869 25.1001 12.0825 25.0158 11.9318 24.8658C11.7811 24.7158 11.6964 24.5123 11.6964 24.3001V18.0089L10.6036 18.9145C10.4392 19.0443 10.2304 19.105 10.0218 19.0836C9.81307 19.0622 9.62108 18.9604 9.48678 18.8C9.35248 18.6395 9.28653 18.4331 9.30301 18.2249C9.3195 18.0167 9.41711 17.8232 9.575 17.6857L11.9857 15.6857C12.1301 15.566 12.3121 15.5004 12.5 15.5004C12.6879 15.5004 12.8699 15.566 13.0143 15.6857L15.425 17.6857C15.5886 17.8215 15.6914 18.0165 15.7107 18.2277C15.7299 18.4389 15.6642 18.6491 15.5279 18.8121Z" fill="#EC6B46"/>
</g>
<defs>
<clipPath id="clip0_1_43447">
<rect width="25" height="24" fill="white" transform="translate(0 0.5)"/>
</clipPath>
</defs>
</svg>
