<svg width="62" height="63" viewBox="0 0 62 63" fill="none" xmlns="http://www.w3.org/2000/svg">
<rect y="0.0151367" width="62" height="62" rx="12" fill="#EFF5F9"/>
<path d="M17.702 38.6547L19.9588 41.672M19.977 39.0157H18.4356C18.3142 39.0159 18.1939 38.9922 18.0817 38.9459C17.9695 38.8996 17.8675 38.8316 17.7817 38.7457C17.6958 38.6599 17.6278 38.5579 17.5815 38.4457C17.5351 38.3335 17.5114 38.2132 17.5117 38.0918V25.1476C17.5115 25.0264 17.5353 24.9063 17.5816 24.7943C17.6279 24.6822 17.6959 24.5804 17.7817 24.4947C17.8675 24.409 17.9693 24.3411 18.0814 24.2949C18.1935 24.2486 18.3136 24.225 18.4348 24.2252H19.977M21.3763 18.0776C21.0052 18.0776 20.6493 18.2251 20.3869 18.4875C20.1245 18.7499 19.977 19.1058 19.977 19.4769V24.226H31.4935L36.2316 29.9288V38.0918C36.2319 38.213 36.2083 38.333 36.1621 38.4451C36.1159 38.5571 36.048 38.6589 35.9624 38.7447C35.8768 38.8304 35.7751 38.8985 35.6631 38.9448C35.5511 38.9912 35.4311 39.015 35.31 39.0149H19.9763V42.5536C19.9763 42.9247 20.1237 43.2806 20.3861 43.543C20.6486 43.8054 21.0045 43.9528 21.3756 43.9528H43.0909C43.462 43.9528 43.8179 43.8054 44.0803 43.543C44.3427 43.2806 44.4902 42.9247 44.4902 42.5536V19.4762C44.49 19.1052 44.3425 18.7495 44.0801 18.4872C43.8177 18.225 43.4619 18.0776 43.0909 18.0776H21.3763Z" stroke="#0075C4" stroke-width="1.5" stroke-linecap="round" stroke-linejoin="round"/>
<path d="M29.0078 30.7847C29.008 30.3836 29.1159 29.99 29.3201 29.6448C29.5244 29.2996 29.8176 29.0156 30.169 28.8223C30.5205 28.6291 30.9174 28.5338 31.3183 28.5463C31.7192 28.5587 32.1094 28.6786 32.4481 28.8933C32.7869 29.108 33.0618 29.4097 33.2442 29.767C33.4266 30.1242 33.5097 30.5238 33.485 30.9241C33.4603 31.3244 33.3285 31.7108 33.1035 32.0428C32.8785 32.3749 32.5686 32.6404 32.2059 32.8118L33.288 36.8944H29.2922L30.3276 32.8278C29.9343 32.6504 29.6006 32.3633 29.3665 32.0009C29.1324 31.6384 29.0078 31.2162 29.0078 30.7847Z" stroke="#0075C4" stroke-width="0.729167" stroke-linecap="round" stroke-linejoin="round"/>
</svg>
