<svg width="62" height="63" viewBox="0 0 62 63" fill="none" xmlns="http://www.w3.org/2000/svg">
<rect y="0.0151367" width="62" height="62" rx="12" fill="#EFF5F9"/>
<path d="M28.2222 22.3723H43.5V23.9437H28.2222V22.3723ZM18.5 23.158C18.5 23.7796 18.7172 24.3872 19.1242 24.9041C19.5312 25.4209 20.1096 25.8237 20.7864 26.0616C21.4631 26.2995 22.2078 26.3617 22.9263 26.2405C23.6447 26.1192 24.3046 25.8199 24.8226 25.3803C25.3406 24.9408 25.6933 24.3808 25.8362 23.7711C25.9792 23.1615 25.9058 22.5296 25.6255 21.9553C25.3452 21.381 24.8704 20.8901 24.2614 20.5448C23.6523 20.1995 22.9362 20.0151 22.2037 20.0151C21.2218 20.0161 20.2803 20.3475 19.586 20.9367C18.8917 21.5259 18.5011 22.3247 18.5 23.158ZM22.2037 21.5866C22.57 21.5866 22.928 21.6787 23.2325 21.8514C23.5371 22.0241 23.7744 22.2695 23.9146 22.5566C24.0548 22.8438 24.0914 23.1597 24.02 23.4646C23.9485 23.7694 23.7721 24.0494 23.5132 24.2692C23.2542 24.4889 22.9242 24.6386 22.565 24.6992C22.2058 24.7599 21.8334 24.7287 21.495 24.6098C21.1566 24.4909 20.8674 24.2895 20.6639 24.031C20.4605 23.7726 20.3519 23.4688 20.3519 23.158C20.3524 22.7414 20.5477 22.3419 20.8949 22.0473C21.242 21.7527 21.7127 21.587 22.2037 21.5866ZM28.2222 30.2294H43.5V31.8009H28.2222V30.2294ZM22.2037 34.158C22.9362 34.158 23.6523 33.9737 24.2614 33.6283C24.8704 33.283 25.3452 32.7921 25.6255 32.2179C25.9058 31.6436 25.9792 31.0117 25.8362 30.402C25.6933 29.7923 25.3406 29.2323 24.8226 28.7928C24.3046 28.3533 23.6447 28.0539 22.9263 27.9327C22.2078 27.8114 21.4631 27.8736 20.7864 28.1115C20.1096 28.3494 19.5312 28.7522 19.1242 29.2691C18.7172 29.7859 18.5 30.3935 18.5 31.0151C18.5011 31.8484 18.8917 32.6472 19.586 33.2364C20.2803 33.8256 21.2218 34.1571 22.2037 34.158ZM22.2037 29.4437C22.57 29.4437 22.928 29.5359 23.2325 29.7085C23.5371 29.8812 23.7744 30.1266 23.9146 30.4138C24.0548 30.7009 24.0914 31.0169 24.02 31.3217C23.9485 31.6265 23.7721 31.9065 23.5132 32.1263C23.2542 32.3461 22.9242 32.4957 22.565 32.5564C22.2058 32.617 21.8334 32.5859 21.495 32.4669C21.1566 32.348 20.8674 32.1466 20.6639 31.8882C20.4605 31.6298 20.3519 31.3259 20.3519 31.0151C20.3524 30.5985 20.5477 30.1991 20.8949 29.9045C21.242 29.6099 21.7127 29.4442 22.2037 29.4437ZM28.2222 38.0866H43.5V39.658H28.2222V38.0866ZM22.2037 42.0151C22.9362 42.0151 23.6523 41.8308 24.2614 41.4855C24.8704 41.1401 25.3452 40.6493 25.6255 40.075C25.9058 39.5007 25.9792 38.8688 25.8362 38.2591C25.6933 37.6495 25.3406 37.0895 24.8226 36.6499C24.3046 36.2104 23.6447 35.9111 22.9263 35.7898C22.2078 35.6685 21.4631 35.7308 20.7864 35.9687C20.1096 36.2065 19.5312 36.6094 19.1242 37.1262C18.7172 37.643 18.5 38.2507 18.5 38.8723C18.5011 39.7055 18.8917 40.5044 19.586 41.0936C20.2803 41.6828 21.2218 42.0142 22.2037 42.0151ZM22.2037 37.3008C22.57 37.3008 22.928 37.393 23.2325 37.5657C23.5371 37.7384 23.7744 37.9838 23.9146 38.2709C24.0548 38.5581 24.0914 38.874 24.02 39.1789C23.9485 39.4837 23.7721 39.7637 23.5132 39.9834C23.2542 40.2032 22.9242 40.3529 22.565 40.4135C22.2058 40.4741 21.8334 40.443 21.495 40.3241C21.1566 40.2052 20.8674 40.0037 20.6639 39.7453C20.4605 39.4869 20.3519 39.1831 20.3519 38.8723C20.3524 38.4557 20.5477 38.0562 20.8949 37.7616C21.242 37.467 21.7127 37.3013 22.2037 37.3008Z" fill="#0075C4"/>
</svg>
