<svg width="25" height="25" viewBox="0 0 25 25" fill="none" xmlns="http://www.w3.org/2000/svg">
<path d="M21.428 4.28564H3.57087C2.59766 4.32136 1.82087 5.09814 1.78516 6.07136V18.5714C1.82087 19.5446 2.59766 20.3214 3.57087 20.3571H21.428C22.4012 20.3214 23.178 19.5446 23.2137 18.5714V6.07136C23.1973 5.60299 23.0039 5.15827 22.6725 4.82688C22.3411 4.49549 21.8964 4.30208 21.428 4.28564ZM21.6831 18.6989H3.31577V5.89279H21.6831V18.6989ZM14.7316 7.85707C14.485 7.85707 14.2852 8.05695 14.2852 8.3035C14.2852 8.55006 14.485 8.74993 14.7316 8.74993H19.1959C19.4424 8.74993 19.6423 8.55006 19.6423 8.3035C19.6423 8.05695 19.4424 7.85707 19.1959 7.85707H14.7316ZM14.7316 9.64279C14.485 9.64279 14.2852 9.84266 14.2852 10.0892C14.2852 10.3358 14.485 10.5356 14.7316 10.5356H19.1959C19.4424 10.5356 19.6423 10.3358 19.6423 10.0892C19.6423 9.84266 19.4424 9.64279 19.1959 9.64279H14.7316ZM14.7316 11.4285C14.485 11.4285 14.2852 11.6284 14.2852 11.8749C14.2852 12.1215 14.485 12.3214 14.7316 12.3214H17.4102C17.6567 12.3214 17.8566 12.1215 17.8566 11.8749C17.8566 11.6284 17.6567 11.4285 17.4102 11.4285H14.7316Z" fill="#EC6B46"/>
<path fill-rule="evenodd" clip-rule="evenodd" d="M8.96628 11.5173C9.21753 11.5173 9.46632 11.4679 9.69845 11.3717C9.93058 11.2756 10.1415 11.1346 10.3192 10.957C10.4968 10.7793 10.6378 10.5684 10.7339 10.3363C10.8301 10.1041 10.8795 9.85534 10.8795 9.60408C10.8795 9.35283 10.8301 9.10404 10.7339 8.87191C10.6378 8.63978 10.4968 8.42886 10.3192 8.2512C10.1415 8.07354 9.93058 7.93261 9.69845 7.83646C9.46632 7.74031 9.21753 7.69082 8.96628 7.69082C8.45885 7.69082 7.9722 7.89239 7.61339 8.2512C7.25459 8.61001 7.05301 9.09665 7.05301 9.60408C7.05301 10.1115 7.25459 10.5982 7.61339 10.957C7.9722 11.3158 8.45885 11.5173 8.96628 11.5173ZM8.96628 12.1551C9.64285 12.1551 10.2917 11.8863 10.7701 11.4079C11.2485 10.9295 11.5173 10.2807 11.5173 9.60408C11.5173 8.92751 11.2485 8.27865 10.7701 7.80024C10.2917 7.32183 9.64285 7.05306 8.96628 7.05306C8.28971 7.05306 7.64084 7.32183 7.16243 7.80024C6.68402 8.27865 6.41526 8.92751 6.41526 9.60408C6.41526 10.2807 6.68402 10.9295 7.16243 11.4079C7.64084 11.8863 8.28971 12.1551 8.96628 12.1551Z" fill="#EC6B46"/>
<path fill-rule="evenodd" clip-rule="evenodd" d="M13.1109 15.286C13.1109 14.6883 12.7072 14.1672 12.1346 14.0221C12.0885 14.0104 12.0414 14.0012 11.9932 13.9945C9.75598 13.6849 8.1922 13.6552 5.94252 13.984C5.28946 14.0793 4.82007 14.6444 4.82007 15.2946V15.6973C4.82007 16.2953 5.22424 16.8167 5.79731 16.9614C5.84308 16.973 5.88993 16.9822 5.93774 16.9888C8.17498 17.2984 9.73876 17.3281 11.9884 16.9993C12.6415 16.904 13.1109 16.3389 13.1109 15.6887V15.286ZM11.9066 14.6261C9.72106 14.3235 8.21819 14.296 6.03547 14.6149C5.70544 14.6631 5.45863 14.951 5.45863 15.2945L5.45863 15.6978C5.45759 15.8578 5.51445 16.0127 5.61873 16.1339C5.70784 16.2376 5.82642 16.3107 5.95782 16.3441C5.97991 16.3496 6.00237 16.3541 6.02511 16.3574C8.2107 16.66 9.71357 16.6874 11.8963 16.3686C12.2263 16.3204 12.4731 16.0325 12.4731 15.689L12.4739 15.2858C12.475 15.1259 12.4181 14.971 12.3138 14.8497C12.2245 14.7459 12.1057 14.6727 11.9739 14.6394C11.9518 14.6338 11.9294 14.6294 11.9066 14.6261Z" fill="#EC6B46"/>
</svg>
