<svg width="24" height="24" viewBox="0 0 24 24" fill="none" xmlns="http://www.w3.org/2000/svg">
<g clip-path="url(#clip0_1_43439)">
<path d="M17.1429 13.7143C16.6882 13.7143 16.2522 13.5337 15.9307 13.2122C15.6092 12.8907 15.4286 12.4547 15.4286 12C15.4286 11.5453 15.6092 11.1093 15.9307 10.7878C16.2522 10.4663 16.6882 10.2857 17.1429 10.2857C17.5975 10.2857 18.0336 10.4663 18.355 10.7878C18.6765 11.1093 18.8571 11.5453 18.8571 12C18.8571 12.4547 18.6765 12.8907 18.355 13.2122C18.0336 13.5337 17.5975 13.7143 17.1429 13.7143ZM15.4286 17.1429C15.4286 17.5975 15.6092 18.0336 15.9307 18.355C16.2522 18.6765 16.6882 18.8571 17.1429 18.8571C17.5975 18.8571 18.0336 18.6765 18.355 18.355C18.6765 18.0336 18.8571 17.5975 18.8571 17.1429C18.8571 16.6882 18.6765 16.2522 18.355 15.9307C18.0336 15.6092 17.5975 15.4286 17.1429 15.4286C16.6882 15.4286 16.2522 15.6092 15.9307 15.9307C15.6092 16.2522 15.4286 16.6882 15.4286 17.1429ZM12 13.7143C11.5453 13.7143 11.1093 13.5337 10.7878 13.2122C10.4663 12.8907 10.2857 12.4547 10.2857 12C10.2857 11.5453 10.4663 11.1093 10.7878 10.7878C11.1093 10.4663 11.5453 10.2857 12 10.2857C12.4547 10.2857 12.8907 10.4663 13.2122 10.7878C13.5337 11.1093 13.7143 11.5453 13.7143 12C13.7143 12.4547 13.5337 12.8907 13.2122 13.2122C12.8907 13.5337 12.4547 13.7143 12 13.7143ZM10.2857 17.1429C10.2857 17.5975 10.4663 18.0336 10.7878 18.355C11.1093 18.6765 11.5453 18.8571 12 18.8571C12.4547 18.8571 12.8907 18.6765 13.2122 18.355C13.5337 18.0336 13.7143 17.5975 13.7143 17.1429C13.7143 16.6882 13.5337 16.2522 13.2122 15.9307C12.8907 15.6092 12.4547 15.4286 12 15.4286C11.5453 15.4286 11.1093 15.6092 10.7878 15.9307C10.4663 16.2522 10.2857 16.6882 10.2857 17.1429ZM6.85714 13.7143C6.40249 13.7143 5.96645 13.5337 5.64496 13.2122C5.32347 12.8907 5.14286 12.4547 5.14286 12C5.14286 11.5453 5.32347 11.1093 5.64496 10.7878C5.96645 10.4663 6.40249 10.2857 6.85714 10.2857C7.3118 10.2857 7.74784 10.4663 8.06933 10.7878C8.39082 11.1093 8.57143 11.5453 8.57143 12C8.57143 12.4547 8.39082 12.8907 8.06933 13.2122C7.74784 13.5337 7.3118 13.7143 6.85714 13.7143ZM0 4.28571C0 3.14907 0.451529 2.05898 1.25526 1.25526C2.05898 0.451529 3.14907 0 4.28571 0H19.7143C20.8509 0 21.941 0.451529 22.7447 1.25526C23.5485 2.05898 24 3.14907 24 4.28571V19.7143C24 20.8509 23.5485 21.941 22.7447 22.7447C21.941 23.5485 20.8509 24 19.7143 24H4.28571C3.14907 24 2.05898 23.5485 1.25526 22.7447C0.451529 21.941 0 20.8509 0 19.7143V4.28571ZM22.2857 6.85714H1.71429V19.7143C1.71429 20.3963 1.9852 21.0503 2.46744 21.5326C2.94968 22.0148 3.60373 22.2857 4.28571 22.2857H19.7143C20.3963 22.2857 21.0503 22.0148 21.5326 21.5326C22.0148 21.0503 22.2857 20.3963 22.2857 19.7143V6.85714ZM19.7143 1.71429H4.28571C3.60373 1.71429 2.94968 1.9852 2.46744 2.46744C1.9852 2.94968 1.71429 3.60373 1.71429 4.28571V5.14286H22.2857V4.28571C22.2857 3.60373 22.0148 2.94968 21.5326 2.46744C21.0503 1.9852 20.3963 1.71429 19.7143 1.71429Z" fill="#EC6B46"/>
</g>
<defs>
<clipPath id="clip0_1_43439">
<rect width="24" height="24" fill="white"/>
</clipPath>
</defs>
</svg>
