<svg width="60" height="53" viewBox="0 0 60 53" fill="none" xmlns="http://www.w3.org/2000/svg">
<rect y="0.443359" width="60" height="52.5407" rx="12" fill="#EFF5F9"/>
<path d="M41.9173 19.0573H39.2033L32.5446 25.7132C32.7739 26.2976 32.795 26.9433 32.6043 27.5415C32.4136 28.1397 32.0227 28.654 31.4974 28.9979C30.9721 29.3418 30.3444 29.4944 29.7199 29.4299C29.0953 29.3654 28.512 29.0878 28.068 28.6439C27.6241 28.1999 27.3465 27.6166 27.282 26.992C27.2176 26.3675 27.3701 25.7398 27.714 25.2145C28.0579 24.6892 28.5722 24.2983 29.1704 24.1076C29.7686 23.9169 30.4143 23.938 30.9987 24.1673L37.656 17.51V14.7961C37.6562 14.4329 37.8004 14.0847 38.0571 13.8277L40.58 11.3048C40.6266 11.2577 40.6852 11.2242 40.7495 11.208C40.8137 11.1918 40.8812 11.1935 40.9446 11.213C41.0744 11.2509 41.1706 11.3588 41.1969 11.4915L41.8677 14.8471L45.2219 15.518C45.3531 15.5442 45.461 15.6405 45.499 15.7702C45.5181 15.8333 45.5198 15.9004 45.5039 15.9643C45.488 16.0282 45.455 16.0867 45.4085 16.1334L42.8842 18.6563C42.7573 18.7834 42.6066 18.8842 42.4406 18.9531C42.2747 19.0219 42.0969 19.0573 41.9173 19.0573Z" fill="#0075C4"/>
<path d="M16.3281 26.7136C16.3281 30.3396 17.7686 33.8171 20.3325 36.3811C22.8965 38.9451 26.374 40.3855 30 40.3855C31.7954 40.3855 33.5733 40.0319 35.232 39.3448C36.8907 38.6577 38.3979 37.6507 39.6675 36.3811C40.937 35.1116 41.9441 33.6044 42.6312 31.9456C43.3182 30.2869 43.6719 28.509 43.6719 26.7136C43.6719 25.404 43.4881 24.1382 43.1454 22.9409C43.0773 22.666 43.1185 22.3754 43.2603 22.1302C43.4021 21.8851 43.6335 21.7045 43.9057 21.6264C44.178 21.5484 44.4699 21.579 44.72 21.7119C44.9702 21.8447 45.159 22.0694 45.2469 22.3386C45.6465 23.7299 45.8594 25.197 45.8594 26.7136C45.8594 35.4724 38.7588 42.573 30 42.573C21.2413 42.573 14.1406 35.4724 14.1406 26.7136C14.1406 17.9549 21.2413 10.8543 30 10.8543C31.4802 10.8528 32.9517 11.0584 34.375 11.4653C34.5138 11.5042 34.6435 11.5702 34.7567 11.6594C34.8699 11.7487 34.9643 11.8594 35.0346 11.9852C35.1049 12.1111 35.1495 12.2496 35.1661 12.3928C35.1827 12.5359 35.1708 12.681 35.1311 12.8195C35.0914 12.9581 35.0247 13.0875 34.9349 13.2002C34.845 13.3129 34.7338 13.4067 34.6075 13.4763C34.4813 13.5459 34.3426 13.5898 34.1993 13.6056C34.056 13.6214 33.9111 13.6087 33.7727 13.5682C32.5458 13.2178 31.276 13.0406 30 13.0418C26.374 13.0418 22.8965 14.4822 20.3325 17.0462C17.7686 19.6101 16.3281 23.0876 16.3281 26.7136Z" fill="#0075C4"/>
<path d="M22.8908 26.7136C22.8948 27.6795 23.0957 28.6344 23.4812 29.52C23.8666 30.4057 24.4285 31.2035 25.1326 31.8647C25.8367 32.526 26.6681 33.0368 27.5762 33.366C28.4843 33.6952 29.4499 33.8358 30.4141 33.7794C31.3784 33.7229 32.321 33.4705 33.1844 33.0376C34.0479 32.6047 34.814 32.0003 35.4361 31.2614C36.0582 30.5225 36.5231 29.6646 36.8026 28.74C37.082 27.8154 37.1701 26.8435 37.0614 25.8838C37.0308 25.6894 37.0533 25.4904 37.1266 25.3077C37.1999 25.1251 37.3212 24.9657 37.4777 24.8464C37.6342 24.7272 37.8201 24.6524 38.0156 24.6302C38.2111 24.6079 38.409 24.639 38.5883 24.72C38.9543 24.8834 39.2008 25.2319 39.2329 25.6315C39.4593 27.5495 39.0825 29.4905 38.155 31.1846C37.2274 32.8787 35.7951 34.2417 34.0572 35.0842C32.3193 35.9267 30.362 36.2068 28.4575 35.8857C26.553 35.5645 24.7959 34.658 23.4304 33.2921C22.0652 31.9277 21.1585 30.1723 20.8359 28.2694C20.5133 26.3665 20.7909 24.4104 21.6301 22.6723C22.4693 20.9342 23.8286 19.5004 25.5194 18.5696C27.2102 17.6389 29.1488 17.2573 31.0662 17.4779C31.2111 17.4914 31.352 17.5336 31.4804 17.6022C31.6088 17.6708 31.7222 17.7643 31.814 17.8773C31.9058 17.9903 31.9741 18.1204 32.015 18.2602C32.0558 18.3999 32.0683 18.5464 32.0518 18.691C32.0353 18.8356 31.9901 18.9755 31.9189 19.1025C31.8476 19.2294 31.7517 19.3408 31.6368 19.4302C31.5219 19.5196 31.3904 19.5852 31.2498 19.6231C31.1092 19.661 30.9625 19.6704 30.8183 19.6509C29.8223 19.5357 28.8132 19.6325 27.8572 19.9348C26.9013 20.2372 26.0201 20.7383 25.2714 21.4053C24.5228 22.0722 23.9237 22.89 23.5134 23.8048C23.1031 24.7197 22.8909 25.7109 22.8908 26.7136Z" fill="#0075C4"/>
</svg>
