<svg width="20" height="21" viewBox="0 0 20 21" fill="none" xmlns="http://www.w3.org/2000/svg">
<g id="Component 10">
<path id="Vector" d="M16.875 7.53125H12.9688V3.625C12.9688 3.33492 12.8535 3.05672 12.6484 2.8516C12.4433 2.64648 12.1651 2.53125 11.875 2.53125H8.125C7.83492 2.53125 7.55672 2.64648 7.3516 2.8516C7.14648 3.05672 7.03125 3.33492 7.03125 3.625V7.53125H3.125C2.83492 7.53125 2.55672 7.64648 2.3516 7.8516C2.14648 8.05672 2.03125 8.33492 2.03125 8.625V12.375C2.03125 12.6651 2.14648 12.9433 2.3516 13.1484C2.55672 13.3535 2.83492 13.4688 3.125 13.4688H7.03125V17.375C7.03125 17.6651 7.14648 17.9433 7.3516 18.1484C7.55672 18.3535 7.83492 18.4688 8.125 18.4688H11.875C12.1651 18.4688 12.4433 18.3535 12.6484 18.1484C12.8535 17.9433 12.9688 17.6651 12.9688 17.375V13.4688H16.875C17.1651 13.4688 17.4433 13.3535 17.6484 13.1484C17.8535 12.9433 17.9688 12.6651 17.9688 12.375V8.625C17.9688 8.33492 17.8535 8.05672 17.6484 7.8516C17.4433 7.64648 17.1651 7.53125 16.875 7.53125ZM17.0312 12.375C17.0312 12.4164 17.0148 12.4562 16.9855 12.4855C16.9562 12.5148 16.9164 12.5312 16.875 12.5312H12.5C12.3757 12.5312 12.2565 12.5806 12.1685 12.6685C12.0806 12.7565 12.0312 12.8757 12.0312 13V17.375C12.0312 17.4164 12.0148 17.4562 11.9855 17.4855C11.9562 17.5148 11.9164 17.5312 11.875 17.5312H8.125C8.08356 17.5312 8.04382 17.5148 8.01451 17.4855C7.98521 17.4562 7.96875 17.4164 7.96875 17.375V13C7.96875 12.8757 7.91936 12.7565 7.83146 12.6685C7.74355 12.5806 7.62432 12.5312 7.5 12.5312H3.125C3.08356 12.5312 3.04382 12.5148 3.01451 12.4855C2.98521 12.4562 2.96875 12.4164 2.96875 12.375V8.625C2.96875 8.58356 2.98521 8.54382 3.01451 8.51451C3.04382 8.48521 3.08356 8.46875 3.125 8.46875H7.5C7.62432 8.46875 7.74355 8.41936 7.83146 8.33146C7.91936 8.24355 7.96875 8.12432 7.96875 8V3.625C7.96875 3.58356 7.98521 3.54382 8.01451 3.51451C8.04382 3.48521 8.08356 3.46875 8.125 3.46875H11.875C11.9164 3.46875 11.9562 3.48521 11.9855 3.51451C12.0148 3.54382 12.0312 3.58356 12.0312 3.625V8C12.0312 8.12432 12.0806 8.24355 12.1685 8.33146C12.2565 8.41936 12.3757 8.46875 12.5 8.46875H16.875C16.9164 8.46875 16.9562 8.48521 16.9855 8.51451C17.0148 8.54382 17.0312 8.58356 17.0312 8.625V12.375Z" fill="#323232"/>
</g>
</svg>
