<svg width="60" height="53" viewBox="0 0 60 53" fill="none" xmlns="http://www.w3.org/2000/svg">
<rect x="-0.000976562" y="0.443359" width="60" height="52.5407" rx="12" fill="#EFF5F9"/>
<path d="M20.374 21.0261C20.374 19.9818 20.7889 18.9803 21.5273 18.2419C22.2657 17.5035 23.2672 17.0886 24.3115 17.0886C25.3558 17.0886 26.3573 17.5035 27.0958 18.2419C27.8342 18.9803 28.249 19.9818 28.249 21.0261C28.249 22.0704 27.8342 23.0719 27.0958 23.8104C26.3573 24.5488 25.3558 24.9636 24.3115 24.9636C23.2672 24.9636 22.2657 24.5488 21.5273 23.8104C20.7889 23.0719 20.374 22.0704 20.374 21.0261ZM24.3115 15.3386C22.8031 15.3386 21.3565 15.9378 20.2899 17.0045C19.2232 18.0711 18.624 19.5177 18.624 21.0261C18.624 22.5345 19.2232 23.9812 20.2899 25.0478C21.3565 26.1144 22.8031 26.7136 24.3115 26.7136C25.8199 26.7136 27.2666 26.1144 28.3332 25.0478C29.3998 23.9812 29.999 22.5345 29.999 21.0261C29.999 19.5177 29.3998 18.0711 28.3332 17.0045C27.2666 15.9378 25.8199 15.3386 24.3115 15.3386ZM34.2638 35.7174C35.2053 36.1024 36.39 36.3386 37.874 36.3386C41.1658 36.3386 42.9858 35.1696 43.9448 33.8291C44.4451 33.1257 44.7588 32.3068 44.8565 31.4491C44.8653 31.3694 44.8711 31.2895 44.874 31.2094V31.0886C44.874 30.7439 44.8061 30.4026 44.6742 30.0841C44.5423 29.7656 44.3489 29.4762 44.1052 29.2325C43.8614 28.9887 43.572 28.7954 43.2536 28.6634C42.9351 28.5315 42.5937 28.4636 42.249 28.4636H34.1465C34.5665 28.9711 34.8815 29.5644 35.0653 30.2136H42.249C42.4811 30.2136 42.7036 30.3058 42.8677 30.4699C43.0318 30.634 43.124 30.8566 43.124 31.0886V31.1831L43.1153 31.2706C43.0482 31.8255 42.8437 32.3548 42.5203 32.8106C41.948 33.6139 40.7055 34.5886 37.874 34.5886C36.593 34.5886 35.6375 34.3891 34.9218 34.0969C34.7783 34.5869 34.57 35.1399 34.2638 35.7174ZM15.124 31.9636C15.124 31.0354 15.4928 30.1451 16.1491 29.4888C16.8055 28.8324 17.6958 28.4636 18.624 28.4636H29.999C30.9273 28.4636 31.8175 28.8324 32.4739 29.4888C33.1303 30.1451 33.499 31.0354 33.499 31.9636V32.1106C33.499 32.1281 33.499 32.1509 33.4955 32.1806C33.4742 32.5271 33.4245 32.8713 33.3468 33.2096C33.198 33.8536 32.9023 34.7146 32.3055 35.5791C31.0788 37.3536 28.7093 38.9636 24.3115 38.9636C19.9138 38.9636 17.5443 37.3536 16.3175 35.5791C15.6715 34.6381 15.2686 33.5516 15.145 32.4169C15.1346 32.3151 15.1276 32.2129 15.124 32.1106V31.9636ZM16.874 32.0686V32.1001L16.8863 32.2454C16.9811 33.0843 17.2803 33.8871 17.7578 34.5834C18.61 35.8154 20.3968 37.2136 24.3115 37.2136C28.2263 37.2136 30.013 35.8154 30.8653 34.5834C31.3428 33.8872 31.6421 33.0843 31.7368 32.2454C31.7425 32.1971 31.746 32.1487 31.7473 32.1001L31.749 32.0704V31.9636C31.749 31.4995 31.5646 31.0544 31.2365 30.7262C30.9083 30.398 30.4632 30.2136 29.999 30.2136H18.624C18.1599 30.2136 17.7148 30.398 17.3866 30.7262C17.0584 31.0544 16.874 31.4995 16.874 31.9636V32.0686ZM35.249 22.3386C35.249 21.6424 35.5256 20.9748 36.0179 20.4825C36.5102 19.9902 37.1778 19.7136 37.874 19.7136C38.5702 19.7136 39.2379 19.9902 39.7302 20.4825C40.2225 20.9748 40.499 21.6424 40.499 22.3386C40.499 23.0348 40.2225 23.7025 39.7302 24.1948C39.2379 24.6871 38.5702 24.9636 37.874 24.9636C37.1778 24.9636 36.5102 24.6871 36.0179 24.1948C35.5256 23.7025 35.249 23.0348 35.249 22.3386ZM37.874 17.9636C36.7137 17.9636 35.6009 18.4246 34.7804 19.245C33.96 20.0655 33.499 21.1783 33.499 22.3386C33.499 23.4989 33.96 24.6117 34.7804 25.4322C35.6009 26.2527 36.7137 26.7136 37.874 26.7136C39.0343 26.7136 40.1471 26.2527 40.9676 25.4322C41.7881 24.6117 42.249 23.4989 42.249 22.3386C42.249 21.1783 41.7881 20.0655 40.9676 19.245C40.1471 18.4246 39.0343 17.9636 37.874 17.9636Z" fill="#0075C4"/>
</svg>
