<svg width="23" height="18" viewBox="0 0 23 18" fill="none" xmlns="http://www.w3.org/2000/svg">
<path d="M11.7083 0.333008C11.3632 0.333008 11.0833 0.61283 11.0833 0.958008V4.70801C11.0833 5.05319 11.3632 5.33301 11.7083 5.33301C12.0535 5.33301 12.3333 5.05319 12.3333 4.70801V0.958008C12.3333 0.61283 12.0535 0.333008 11.7083 0.333008Z" fill="#EC6B46"/>
<path d="M5.66667 6.99967C5.89679 7.22979 6.26988 7.22979 6.5 6.99967C6.73012 6.76956 6.73012 6.39646 6.5 6.16634L4.41667 4.08301C4.18655 3.85289 3.81345 3.85289 3.58333 4.08301C3.35321 4.31313 3.35321 4.68622 3.58333 4.91634L5.66667 6.99967Z" fill="#EC6B46"/>
<path d="M17.3333 6.99967C17.1032 7.22979 16.7301 7.22979 16.5 6.99967C16.2699 6.76956 16.2699 6.39646 16.5 6.16634L19 3.66634C19.2301 3.43622 19.6032 3.43622 19.8333 3.66634C20.0635 3.89646 20.0635 4.26956 19.8333 4.49967L17.3333 6.99967Z" fill="#EC6B46"/>
<path d="M4.625 12.4163C4.97018 12.4163 5.25 12.1365 5.25 11.7913C5.25 11.4462 4.97018 11.1663 4.625 11.1663H0.875C0.529822 11.1663 0.25 11.4462 0.25 11.7913C0.25 12.1365 0.529822 12.4163 0.875 12.4163H4.625Z" fill="#EC6B46"/>
<path d="M18.375 11.1663C18.0298 11.1663 17.75 11.4462 17.75 11.7913C17.75 12.1365 18.0298 12.4163 18.375 12.4163H22.125C22.4702 12.4163 22.75 12.1365 22.75 11.7913C22.75 11.4462 22.4702 11.1663 22.125 11.1663H18.375Z" fill="#EC6B46"/>
<path fill-rule="evenodd" clip-rule="evenodd" d="M4.41667 17.208C4.41667 17.5532 4.69649 17.833 5.04167 17.833H17.9583C18.3035 17.833 18.5833 17.5532 18.5833 17.208C18.5833 16.8628 18.3035 16.583 17.9583 16.583H17.3333L14.6446 8.51678C14.5085 8.10844 14.1263 7.83301 13.6959 7.83301H9.30409C8.87366 7.83301 8.49152 8.10844 8.35541 8.51678L5.66667 16.583H5.04167C4.69649 16.583 4.41667 16.8628 4.41667 17.208ZM13.5833 9.08301H9.41667L6.91667 16.583H16.0833L13.5833 9.08301Z" fill="#EC6B46"/>
</svg>
