<svg width="25" height="26" viewBox="0 0 25 26" fill="none" xmlns="http://www.w3.org/2000/svg">
<mask id="path-1-inside-1_1_43482" fill="white">
<path d="M14.6244 16.7985C16.3121 13.8861 18.4451 9.79167 18.4451 7.68708C18.4451 4.1369 15.6705 1.25 12.2585 1.25C8.84641 1.25 6.07181 4.1369 6.07181 7.68708C6.07181 9.79167 8.20486 13.8861 9.8925 16.7985C7.89021 16.9558 3.33398 17.5213 3.33398 19.3963C3.33398 21.2415 7.95968 22.0833 12.2626 22.0833C16.5613 22.0833 21.1911 21.2415 21.1911 19.3963C21.187 17.5213 16.6267 16.9558 14.6244 16.7985ZM6.92584 7.68708C6.92584 4.62585 9.32042 2.13435 12.2585 2.13435C15.2006 2.13435 17.5952 4.62585 17.5952 7.68708C17.5952 10.3614 13.5007 17.0706 12.2585 19.0434C11.0162 17.0706 6.92584 10.3614 6.92584 7.68708ZM12.2585 21.1947C7.03209 21.1947 4.18394 20.0043 4.18394 19.392C4.18394 18.9201 6.06363 17.9039 10.3951 17.6446C11.2083 19.0094 11.8253 19.9745 11.907 20.0893C12.0174 20.2423 12.3402 20.4252 12.614 20.0893C12.6998 19.983 13.3127 19.0094 14.1259 17.6446C18.4574 17.9039 20.3371 18.9158 20.3371 19.392C20.333 20.0085 17.4849 21.1947 12.2585 21.1947Z"/>
<path d="M14.9513 7.68708C14.9513 6.13946 13.7459 4.88521 12.2585 4.88521C10.771 4.88521 9.56558 6.13946 9.56558 7.68708C9.56558 9.2347 10.771 10.4889 12.2585 10.4889C13.7459 10.4889 14.9513 9.2347 14.9513 7.68708ZM10.4155 7.68708C10.4155 6.6284 11.241 5.76956 12.2585 5.76956C13.2759 5.76956 14.1014 6.6284 14.1014 7.68708C14.1014 8.74575 13.2759 9.60459 12.2585 9.60459C11.241 9.60459 10.4155 8.74575 10.4155 7.68708Z"/>
</mask>
<path d="M14.6244 16.7985C16.3121 13.8861 18.4451 9.79167 18.4451 7.68708C18.4451 4.1369 15.6705 1.25 12.2585 1.25C8.84641 1.25 6.07181 4.1369 6.07181 7.68708C6.07181 9.79167 8.20486 13.8861 9.8925 16.7985C7.89021 16.9558 3.33398 17.5213 3.33398 19.3963C3.33398 21.2415 7.95968 22.0833 12.2626 22.0833C16.5613 22.0833 21.1911 21.2415 21.1911 19.3963C21.187 17.5213 16.6267 16.9558 14.6244 16.7985ZM6.92584 7.68708C6.92584 4.62585 9.32042 2.13435 12.2585 2.13435C15.2006 2.13435 17.5952 4.62585 17.5952 7.68708C17.5952 10.3614 13.5007 17.0706 12.2585 19.0434C11.0162 17.0706 6.92584 10.3614 6.92584 7.68708ZM12.2585 21.1947C7.03209 21.1947 4.18394 20.0043 4.18394 19.392C4.18394 18.9201 6.06363 17.9039 10.3951 17.6446C11.2083 19.0094 11.8253 19.9745 11.907 20.0893C12.0174 20.2423 12.3402 20.4252 12.614 20.0893C12.6998 19.983 13.3127 19.0094 14.1259 17.6446C18.4574 17.9039 20.3371 18.9158 20.3371 19.392C20.333 20.0085 17.4849 21.1947 12.2585 21.1947Z" fill="#3F3F3F"/>
<path d="M14.9513 7.68708C14.9513 6.13946 13.7459 4.88521 12.2585 4.88521C10.771 4.88521 9.56558 6.13946 9.56558 7.68708C9.56558 9.2347 10.771 10.4889 12.2585 10.4889C13.7459 10.4889 14.9513 9.2347 14.9513 7.68708ZM10.4155 7.68708C10.4155 6.6284 11.241 5.76956 12.2585 5.76956C13.2759 5.76956 14.1014 6.6284 14.1014 7.68708C14.1014 8.74575 13.2759 9.60459 12.2585 9.60459C11.241 9.60459 10.4155 8.74575 10.4155 7.68708Z" fill="#3F3F3F"/>
<path d="M14.6244 16.7985L13.7592 16.2971L12.9631 17.671L14.5461 17.7954L14.6244 16.7985ZM9.8925 16.7985L9.97083 17.7954L11.5539 17.671L10.7577 16.2971L9.8925 16.7985ZM21.1911 19.3963H22.1911L22.1911 19.3941L21.1911 19.3963ZM12.2585 19.0434L11.4123 19.5762L12.2585 20.9201L13.1047 19.5762L12.2585 19.0434ZM10.3951 17.6446L11.2542 17.1327L10.9427 16.61L10.3353 16.6463L10.3951 17.6446ZM11.907 20.0893L11.0924 20.6693L11.0958 20.674L11.907 20.0893ZM12.614 20.0893L13.3891 20.7211L13.3921 20.7174L12.614 20.0893ZM14.1259 17.6446L14.1857 16.6463L13.5783 16.61L13.2668 17.1327L14.1259 17.6446ZM20.3371 19.392L21.3371 19.3986V19.392H20.3371ZM15.4897 17.2998C16.3412 15.8304 17.3152 14.0457 18.0793 12.3508C18.8203 10.7073 19.4451 8.97855 19.4451 7.68708H17.4451C17.4451 8.5002 17.0035 9.87091 16.256 11.5288C15.5317 13.1354 14.5953 14.8542 13.7592 16.2971L15.4897 17.2998ZM19.4451 7.68708C19.4451 3.62239 16.2598 0.25 12.2585 0.25V2.25C15.0812 2.25 17.4451 4.65142 17.4451 7.68708H19.4451ZM12.2585 0.25C8.2571 0.25 5.07181 3.62239 5.07181 7.68708H7.07181C7.07181 4.65142 9.43572 2.25 12.2585 2.25V0.25ZM5.07181 7.68708C5.07181 8.97855 5.69668 10.7073 6.43765 12.3508C7.20177 14.0457 8.17576 15.8304 9.02727 17.2998L10.7577 16.2971C9.9216 14.8542 8.98524 13.1354 8.26092 11.5288C7.51346 9.87091 7.07181 8.5002 7.07181 7.68708H5.07181ZM9.81418 15.8015C8.79567 15.8816 7.07602 16.0681 5.58865 16.4914C4.85165 16.7012 4.09699 16.9892 3.50583 17.4008C2.9151 17.812 2.33398 18.4635 2.33398 19.3963H4.33398C4.33398 19.3915 4.3224 19.2692 4.64853 19.0422C4.97423 18.8154 5.48377 18.6007 6.13612 18.415C7.42744 18.0475 8.98704 17.8727 9.97083 17.7954L9.81418 15.8015ZM2.33398 19.3963C2.33398 20.3335 2.93353 20.9971 3.56416 21.4232C4.20038 21.853 5.03761 22.1665 5.93274 22.3995C7.73757 22.8694 10.0614 23.0833 12.2626 23.0833V21.0833C10.1609 21.0833 8.02038 20.8764 6.43665 20.464C5.63749 20.256 5.04937 20.0129 4.6838 19.766C4.50514 19.6453 4.41308 19.5458 4.36971 19.4816C4.33294 19.4272 4.33398 19.4044 4.33398 19.3963H2.33398ZM12.2626 23.0833C14.4618 23.0833 16.7855 22.8694 18.5908 22.3995C19.4861 22.1665 20.3236 21.8531 20.9601 21.4234C21.5909 20.9975 22.1911 20.3338 22.1911 19.3963H20.1911C20.1911 19.4042 20.1922 19.4269 20.1554 19.4813C20.112 19.5455 20.0198 19.645 19.841 19.7658C19.475 20.0129 18.8865 20.2559 18.087 20.464C16.5027 20.8764 14.3621 21.0833 12.2626 21.0833V23.0833ZM22.1911 19.3941C22.1891 18.4616 21.6066 17.8109 21.0155 17.4002C20.4236 16.989 19.6683 16.7011 18.9306 16.4913C17.4418 16.0681 15.7213 15.8816 14.7028 15.8015L14.5461 17.7954C15.5299 17.8727 17.0907 18.0475 18.3837 18.4151C19.0368 18.6008 19.5475 18.8156 19.8744 19.0427C20.202 19.2703 20.1911 19.3935 20.1911 19.3984L22.1911 19.3941ZM7.92584 7.68708C7.92584 5.13986 9.91022 3.13435 12.2585 3.13435V1.13435C8.73062 1.13435 5.92584 4.11184 5.92584 7.68708H7.92584ZM12.2585 3.13435C14.6113 3.13435 16.5952 5.14037 16.5952 7.68708H18.5952C18.5952 4.11133 15.7899 1.13435 12.2585 1.13435V3.13435ZM16.5952 7.68708C16.5952 8.157 16.4012 8.92967 16.0041 9.94953C15.6194 10.9378 15.087 12.0529 14.5062 13.1655C13.3455 15.3887 12.0277 17.5331 11.4123 18.5105L13.1047 19.5762C13.7315 18.5808 15.082 16.3842 16.2791 14.0911C16.8772 12.9455 17.4461 11.7586 17.8679 10.6751C18.2774 9.62316 18.5952 8.55431 18.5952 7.68708H16.5952ZM13.1047 18.5105C12.4894 17.5334 11.1726 15.3891 10.013 13.1658C9.43263 12.0532 8.90075 10.9381 8.51637 9.94983C8.11973 8.92999 7.92584 8.15719 7.92584 7.68708H5.92584C5.92584 8.55412 6.24326 9.62284 6.65238 10.6748C7.07377 11.7582 7.64213 12.9452 8.23968 14.0908C9.4358 16.3839 10.7853 18.5805 11.4123 19.5762L13.1047 18.5105ZM12.2585 20.1947C9.71567 20.1947 7.78832 19.9045 6.5256 19.5585C5.88873 19.384 5.45505 19.2045 5.20386 19.0621C5.07538 18.9892 5.03274 18.9474 5.03559 18.9503C5.03861 18.9534 5.06989 18.9857 5.10344 19.0499C5.13781 19.1157 5.18394 19.2337 5.18394 19.392H3.18394C3.18394 19.8509 3.43816 20.1754 3.59745 20.3402C3.77648 20.5254 3.99718 20.677 4.21738 20.8019C4.66355 21.0548 5.26855 21.2878 5.99702 21.4874C7.46497 21.8897 9.57489 22.1947 12.2585 22.1947V20.1947ZM5.18394 19.392C5.18394 19.6586 5.05929 19.8104 5.04838 19.8238C5.02665 19.8504 5.03359 19.8336 5.10724 19.7835C5.2517 19.6854 5.53198 19.5408 5.98845 19.3849C6.89206 19.0762 8.35135 18.7687 10.4549 18.6428L10.3353 16.6463C8.1074 16.7797 6.4611 17.11 5.34199 17.4922C4.7871 17.6818 4.32674 17.8959 3.9834 18.1291C3.81314 18.2448 3.63939 18.3868 3.49795 18.5604C3.36732 18.7207 3.18394 19.0074 3.18394 19.392H5.18394ZM9.53604 18.1564C10.3462 19.5162 10.9833 20.516 11.0924 20.6693L12.7217 19.5093C12.7238 19.5123 12.7147 19.4993 12.688 19.4585C12.6642 19.4224 12.6323 19.3731 12.5925 19.311C12.513 19.1871 12.405 19.0165 12.2736 18.8061C12.011 18.3854 11.657 17.8088 11.2542 17.1327L9.53604 18.1564ZM11.0958 20.674C11.279 20.9282 11.6018 21.1822 12.0244 21.2572C12.5386 21.3485 13.0417 21.1473 13.3891 20.7211L11.8389 19.4575C11.8606 19.4308 11.9234 19.3668 12.0378 19.3218C12.1542 19.2761 12.2734 19.2702 12.374 19.288C12.4676 19.3046 12.536 19.3395 12.5808 19.3694C12.6234 19.3978 12.6714 19.4395 12.7183 19.5045L11.0958 20.674ZM13.3921 20.7174C13.4551 20.6394 13.5429 20.5043 13.6125 20.3963C13.6988 20.2625 13.812 20.0831 13.9465 19.8668C14.2158 19.4335 14.5756 18.8435 14.985 18.1564L13.2668 17.1327C12.8631 17.8104 12.5098 18.3896 12.2479 18.8109C12.1167 19.0219 12.0098 19.1912 11.9316 19.3125C11.8368 19.4596 11.8158 19.486 11.8359 19.4611L13.3921 20.7174ZM14.0661 18.6428C16.1701 18.7687 17.6295 19.0753 18.533 19.3834C18.9895 19.5391 19.2693 19.6835 19.4133 19.7814C19.4867 19.8313 19.4933 19.848 19.4714 19.821C19.4597 19.8066 19.3371 19.656 19.3371 19.392H21.3371C21.3371 19.009 21.1557 18.7225 21.0243 18.5606C20.8827 18.3862 20.7086 18.2437 20.5381 18.1277C20.1943 17.8938 19.7335 17.6797 19.1786 17.4905C18.0594 17.1088 16.4132 16.7797 14.1857 16.6463L14.0661 18.6428ZM19.3371 19.3854C19.3381 19.2294 19.3839 19.1133 19.4179 19.0487C19.451 18.9856 19.4818 18.9539 19.4845 18.9511C19.4868 18.9487 19.4437 18.9909 19.315 19.0637C19.0634 19.2063 18.6294 19.3857 17.9923 19.56C16.729 19.9055 14.8016 20.1947 12.2585 20.1947V22.1947C14.9417 22.1947 17.0515 21.8908 18.52 21.4891C19.2487 21.2898 19.8542 21.057 20.301 20.8038C20.5217 20.6788 20.7425 20.5271 20.9218 20.3419C21.0819 20.1764 21.334 19.8541 21.3371 19.3986L19.3371 19.3854ZM15.9513 7.68708C15.9513 5.62494 14.3352 3.88521 12.2585 3.88521V5.88521C13.1566 5.88521 13.9513 6.65397 13.9513 7.68708H15.9513ZM12.2585 3.88521C10.1817 3.88521 8.56558 5.62494 8.56558 7.68708H10.5656C10.5656 6.65397 11.3603 5.88521 12.2585 5.88521V3.88521ZM8.56558 7.68708C8.56558 9.74921 10.1817 11.4889 12.2585 11.4889V9.48895C11.3603 9.48895 10.5656 8.72018 10.5656 7.68708H8.56558ZM12.2585 11.4889C14.3352 11.4889 15.9513 9.74921 15.9513 7.68708H13.9513C13.9513 8.72018 13.1566 9.48895 12.2585 9.48895V11.4889ZM11.4155 7.68708C11.4155 7.14292 11.8303 6.76956 12.2585 6.76956V4.76956C10.6517 4.76956 9.41553 6.11389 9.41553 7.68708H11.4155ZM12.2585 6.76956C12.6866 6.76956 13.1014 7.14292 13.1014 7.68708H15.1014C15.1014 6.11389 13.8653 4.76956 12.2585 4.76956V6.76956ZM13.1014 7.68708C13.1014 8.23123 12.6866 8.60459 12.2585 8.60459V10.6046C13.8653 10.6046 15.1014 9.26027 15.1014 7.68708H13.1014ZM12.2585 8.60459C11.8303 8.60459 11.4155 8.23123 11.4155 7.68708H9.41553C9.41553 9.26027 10.6517 10.6046 12.2585 10.6046V8.60459Z" fill="#EC6B46" mask="url(#path-1-inside-1_1_43482)"/>
</svg>
