<svg width="63" height="53" viewBox="0 0 63 53" fill="none" xmlns="http://www.w3.org/2000/svg">
<rect x="0.96875" y="0.525299" width="61.0065" height="51.5407" rx="11.5" fill="#EFF5F9"/>
<rect x="0.96875" y="0.525299" width="61.0065" height="51.5407" rx="11.5" stroke="#0075C4"/>
<g clip-path="url(#clip0_101_14175)">
<path d="M38.4733 9.96232L39.1196 8.99165L38.8256 8.79565H38.4733V9.96232ZM45.4733 14.629H46.64V14.0037L46.1196 13.6583L45.4733 14.629ZM43.14 36.7957H24.4733V39.129H43.14V36.7957ZM23.3066 35.629V12.2957H20.9733V35.629H23.3066ZM24.4733 11.129H38.4733V8.79565H24.4733V11.129ZM44.3066 14.629V35.629H46.64V14.629H44.3066ZM37.827 10.933L44.827 15.5997L46.1196 13.6583L39.1196 8.99165L37.827 10.933ZM24.4733 36.7957C24.1639 36.7957 23.8671 36.6727 23.6483 36.4539C23.4296 36.2352 23.3066 35.9384 23.3066 35.629H20.9733C20.9733 36.5572 21.3421 37.4475 21.9984 38.1039C22.6548 38.7602 23.545 39.129 24.4733 39.129V36.7957ZM43.14 39.129C44.0682 39.129 44.9585 38.7602 45.6148 38.1039C46.2712 37.4475 46.64 36.5572 46.64 35.629H44.3066C44.3066 35.9384 44.1837 36.2352 43.9649 36.4539C43.7461 36.6727 43.4494 36.7957 43.14 36.7957V39.129ZM23.3066 12.2957C23.3066 11.9862 23.4296 11.6895 23.6483 11.4707C23.8671 11.2519 24.1639 11.129 24.4733 11.129V8.79565C23.545 8.79565 22.6548 9.1644 21.9984 9.82078C21.3421 10.4772 20.9733 11.3674 20.9733 12.2957H23.3066ZM16.3066 16.9623V40.2957H18.64V16.9623H16.3066ZM19.8066 43.7957H38.4733V41.4623H19.8066V43.7957ZM19.8066 15.7957H22.14V13.4623H19.8066V15.7957ZM41.9733 40.2957V37.9623H39.64V40.2957H41.9733ZM38.4733 43.7957C39.4016 43.7957 40.2918 43.4269 40.9482 42.7705C41.6046 42.1142 41.9733 41.2239 41.9733 40.2957H39.64C39.64 40.6051 39.5171 40.9018 39.2983 41.1206C39.0795 41.3394 38.7827 41.4623 38.4733 41.4623V43.7957ZM16.3066 40.2957C16.3066 41.2239 16.6754 42.1142 17.3318 42.7705C17.9881 43.4269 18.8784 43.7957 19.8066 43.7957V41.4623C19.4972 41.4623 19.2005 41.3394 18.9817 41.1206C18.7629 40.9018 18.64 40.6051 18.64 40.2957H16.3066ZM18.64 16.9623C18.64 16.6529 18.7629 16.3562 18.9817 16.1374C19.2005 15.9186 19.4972 15.7957 19.8066 15.7957V13.4623C18.8784 13.4623 17.9881 13.8311 17.3318 14.4874C16.6754 15.1438 16.3066 16.0341 16.3066 16.9623H18.64Z" fill="#0075C4"/>
</g>
<defs>
<clipPath id="clip0_101_14175">
<rect width="35" height="35" fill="white" transform="translate(13.9727 8.79565)"/>
</clipPath>
</defs>
</svg>
