<svg width="63" height="53" viewBox="0 0 63 53" fill="none" xmlns="http://www.w3.org/2000/svg">
<rect x="0.5" y="0.927734" width="61.0065" height="51.5407" rx="11.5" fill="#EFF5F9"/>
<rect x="0.5" y="0.927734" width="61.0065" height="51.5407" rx="11.5" stroke="#0075C4"/>
<path d="M30.8261 34.4119C34.1937 34.4119 36.9236 31.682 36.9236 28.3144C36.9236 24.9469 34.1937 22.2168 30.8261 22.2168C27.4585 22.2168 24.7285 24.9469 24.7285 28.3144C24.7285 31.682 27.4585 34.4119 30.8261 34.4119Z" stroke="#0075C4" stroke-width="1.95122" stroke-linecap="round" stroke-linejoin="round"/>
<path d="M41.1914 24.656C42.6117 24.6535 44.013 24.9831 45.2834 25.6183C46.5537 26.2535 47.6581 27.1767 48.5085 28.3145" stroke="#0075C4" stroke-width="1.95122" stroke-linecap="round" stroke-linejoin="round"/>
<path d="M13.1426 28.3145C13.9929 27.1767 15.0973 26.2535 16.3677 25.6183C17.6381 24.9831 19.0393 24.6535 20.4597 24.656" stroke="#0075C4" stroke-width="1.95122" stroke-linecap="round" stroke-linejoin="round"/>
<path d="M22.0449 39.8996C22.848 38.255 24.0969 36.8689 25.6493 35.8993C27.2016 34.9299 28.9952 34.4157 30.8254 34.4157C32.6557 34.4157 34.4492 34.9299 36.0016 35.8993C37.554 36.8689 38.8028 38.255 39.6059 39.8996" stroke="#0075C4" stroke-width="1.95122" stroke-linecap="round" stroke-linejoin="round"/>
<path d="M20.4592 24.6558C19.5333 24.6568 18.6263 24.3943 17.8441 23.8989C17.062 23.4035 16.4369 22.6957 16.0421 21.8583C15.6472 21.0209 15.4988 20.0883 15.6142 19.1697C15.7296 18.2511 16.1041 17.3843 16.6939 16.6706C17.2836 15.9569 18.0643 15.4257 18.9447 15.1392C19.8251 14.8527 20.7688 14.8227 21.6657 15.0526C22.5626 15.2826 23.3755 15.763 24.0094 16.4377C24.6434 17.1125 25.0722 17.9538 25.2457 18.8632" stroke="#0075C4" stroke-width="1.95122" stroke-linecap="round" stroke-linejoin="round"/>
<path d="M36.4043 18.8632C36.578 17.9538 37.0067 17.1125 37.6407 16.4377C38.2746 15.763 39.0875 15.2826 39.9844 15.0526C40.8812 14.8227 41.825 14.8527 42.7054 15.1392C43.5858 15.4257 44.3664 15.9569 44.9562 16.6706C45.546 17.3843 45.9205 18.2511 46.0359 19.1697C46.1513 20.0883 46.0028 21.0209 45.608 21.8583C45.2132 22.6957 44.5881 23.4035 43.806 23.8989C43.0238 24.3943 42.1168 24.6568 41.1909 24.6558" stroke="#0075C4" stroke-width="1.95122" stroke-linecap="round" stroke-linejoin="round"/>
</svg>
