<svg width="63" height="53" viewBox="0 0 63 53" fill="none" xmlns="http://www.w3.org/2000/svg">
<rect x="0.603516" y="0.525299" width="61.0065" height="51.5407" rx="11.5" fill="#EFF5F9"/>
<rect x="0.603516" y="0.525299" width="61.0065" height="51.5407" rx="11.5" stroke="#0075C4"/>
<path d="M36.1074 43.7957H46.1074V33.7957H42.3574L42.3574 28.7957C42.3568 28.1328 42.0932 27.4973 41.6245 27.0286C41.1558 26.5599 40.5203 26.2963 39.8574 26.2957L32.3574 26.2957V18.7957H36.1074V8.79565L26.1074 8.79565L26.1074 18.7957H29.8574V26.2957H22.3574C21.6946 26.2963 21.0591 26.5599 20.5904 27.0286C20.1217 27.4973 19.8581 28.1328 19.8574 28.7957V33.7957L16.1074 33.7957L16.1074 43.7957H26.1074L26.1074 33.7957H22.3574V28.7957L39.8574 28.7957L39.8574 33.7957H36.1074V43.7957ZM28.6074 16.2957V11.2957L33.6074 11.2957V16.2957H28.6074ZM23.6074 36.2957L23.6074 41.2957H18.6074L18.6074 36.2957H23.6074ZM43.6074 36.2957V41.2957H38.6074V36.2957H43.6074Z" fill="#0075C4"/>
</svg>
