<svg width="63" height="53" viewBox="0 0 63 53" fill="none" xmlns="http://www.w3.org/2000/svg">
<rect x="0.564453" y="0.614746" width="61.0065" height="51.5407" rx="11.5" fill="#EFF5F9"/>
<rect x="0.564453" y="0.614746" width="61.0065" height="51.5407" rx="11.5" stroke="#0075C4"/>
<path d="M23.0684 34.3851V24.3851M31.0684 34.3851V18.3851M39.0684 34.3851V30.3851M43.0684 10.3851H19.0684C18.0075 10.3851 16.9901 10.8065 16.2399 11.5567C15.4898 12.3068 15.0684 13.3242 15.0684 14.3851V38.3851C15.0684 39.446 15.4898 40.4634 16.2399 41.2135C16.9901 41.9637 18.0075 42.3851 19.0684 42.3851H43.0684C44.1292 42.3851 45.1466 41.9637 45.8968 41.2135C46.6469 40.4634 47.0684 39.446 47.0684 38.3851V14.3851C47.0684 13.3242 46.6469 12.3068 45.8968 11.5567C45.1466 10.8065 44.1292 10.3851 43.0684 10.3851Z" stroke="#0075C4" stroke-width="1.5" stroke-linecap="round" stroke-linejoin="round"/>
</svg>
