<svg width="60" height="55" viewBox="0 0 60 55" fill="none" xmlns="http://www.w3.org/2000/svg">
<rect x="-0.000976562" width="60" height="55" rx="12" fill="#EFF5F9"/>
<path d="M36.2252 31.239H34.9153L34.451 30.7913C36.0759 28.9011 37.0542 26.4471 37.0542 23.7776C37.0542 17.825 32.2292 13 26.2766 13C20.3241 13 15.499 17.825 15.499 23.7776C15.499 29.7301 20.3241 34.5552 26.2766 34.5552C28.9461 34.5552 31.4001 33.5769 33.2903 31.952L33.738 32.4162V33.7261L42.0285 42L44.499 39.5294L36.2252 31.239ZM26.2766 31.239C22.148 31.239 18.8152 27.9062 18.8152 23.7776C18.8152 19.6489 22.148 16.3162 26.2766 16.3162C30.4053 16.3162 33.738 19.6489 33.738 23.7776C33.738 27.9062 30.4053 31.239 26.2766 31.239Z" fill="#0075C4"/>
</svg>
