<svg width="60" height="55" viewBox="0 0 60 55" fill="none" xmlns="http://www.w3.org/2000/svg">
<rect width="60" height="55" rx="12" fill="#EFF5F9"/>
<path d="M30 40.4883L24.2703 37.4332C22.6369 36.5642 21.2709 35.2668 20.319 33.6803C19.3671 32.0937 18.8652 30.2779 18.8672 28.4277V16.3672C18.8677 15.8752 19.0633 15.4036 19.4112 15.0557C19.7591 14.7079 20.2307 14.5122 20.7227 14.5117H39.2773C39.7693 14.5122 40.2409 14.7079 40.5888 15.0557C40.9367 15.4036 41.1323 15.8752 41.1328 16.3672V28.4277C41.1348 30.2779 40.6329 32.0937 39.681 33.6803C38.7291 35.2668 37.3631 36.5642 35.7297 37.4332L30 40.4883ZM20.7227 16.3672V28.4277C20.7211 29.9416 21.1319 31.4273 21.9109 32.7254C22.6899 34.0235 23.8076 35.0849 25.1442 35.7958L30 38.3851L34.8558 35.7967C36.1925 35.0858 37.3104 34.0242 38.0894 32.7259C38.8684 31.4277 39.279 29.9418 39.2773 28.4277V16.3672H20.7227Z" fill="#0075C4"/>
</svg>
