<svg width="60" height="55" viewBox="0 0 60 55" fill="none" xmlns="http://www.w3.org/2000/svg">
<rect width="60" height="55" rx="12" fill="#EFF5F9"/>
<path d="M40.9713 29.4119C40.5273 28.0952 40.3003 26.7179 40.299 25.3316V21.9062C40.3313 19.7357 39.5382 17.6306 38.0731 15.9982C36.6131 14.3633 34.5866 13.3121 32.3821 13.046C31.1638 12.9226 29.9245 13.046 28.7484 13.4352C27.5723 13.8038 26.5015 14.4193 25.5992 15.2405C24.6924 16.0405 23.9697 17.0193 23.4786 18.1121C22.9852 19.2046 22.7276 20.3847 22.7221 21.5787V25.3505C22.7195 26.7311 22.4926 28.1025 22.0497 29.4137L21 32.4465L21.8408 33.5746H27.9936C27.9936 34.4764 28.371 35.3576 29.0222 35.9953C29.6717 36.6297 30.5758 37 31.5009 37C32.4242 37 33.3265 36.6314 33.9778 35.9953C34.629 35.3593 35.0082 34.4764 35.0082 33.5746H41.1609L42 32.4465L40.9713 29.4119ZM32.7384 34.8072C32.5769 34.9681 32.3845 35.0963 32.1721 35.1842C31.9597 35.2722 31.7316 35.3183 31.5009 35.3199C31.2698 35.3183 31.0413 35.272 30.8285 35.1838C30.6158 35.0955 30.4231 34.9669 30.2616 34.8055C30.0965 34.6479 29.965 34.46 29.8746 34.2526C29.7842 34.0451 29.7368 33.8223 29.7349 33.5969H33.244C33.2513 33.8218 33.2103 34.0457 33.1235 34.2542C33.0367 34.4627 32.9061 34.6511 32.7402 34.8072H32.7384ZM23.0573 31.8756L23.7086 29.9657C24.2165 28.4778 24.479 26.9205 24.4862 25.3522V21.5787C24.4862 20.6135 24.6969 19.6706 25.0954 18.8082C25.4939 17.927 26.0609 17.1469 26.7964 16.5109C27.5319 15.8559 28.3938 15.3622 29.3171 15.0759C30.2616 14.7673 31.2481 14.6644 32.2136 14.7673C33.9831 14.9945 35.6054 15.8487 36.7724 17.1675C37.9397 18.4879 38.5672 20.1825 38.5348 21.9267V25.3727C38.5348 26.9312 38.7876 28.4896 39.3125 29.9863L39.9637 31.8944H23.0591V31.8739L23.0573 31.8756Z" fill="#0075C4"/>
</svg>
