<svg width="60" height="55" viewBox="0 0 60 55" fill="none" xmlns="http://www.w3.org/2000/svg">
<rect x="0.000976562" width="60" height="55" rx="12" fill="#EFF5F9"/>
<path d="M44.8765 36.2621L32.9204 15.4987C32.6216 14.99 32.1951 14.5682 31.6831 14.2751C31.1711 13.9821 30.5914 13.8279 30.0015 13.8279C29.4115 13.8279 28.8318 13.9821 28.3198 14.2751C27.8078 14.5682 27.3813 14.99 27.0825 15.4987L15.1265 36.2621C14.839 36.7542 14.6875 37.3138 14.6875 37.8836C14.6875 38.4535 14.839 39.0131 15.1265 39.5051C15.4214 40.0169 15.8472 40.441 16.3602 40.7339C16.8731 41.0267 17.4548 41.1779 18.0454 41.1717H41.9575C42.5477 41.1774 43.1288 41.026 43.6412 40.7332C44.1537 40.4403 44.579 40.0165 44.8737 39.5051C45.1616 39.0133 45.3136 38.4539 45.3141 37.884C45.3145 37.3142 45.1635 36.7544 44.8765 36.2621ZM42.9802 38.41C42.8759 38.5878 42.7263 38.7347 42.5466 38.8356C42.3669 38.9365 42.1636 38.9878 41.9575 38.9842H18.0454C17.8393 38.9878 17.636 38.9365 17.4563 38.8356C17.2766 38.7347 17.127 38.5878 17.0228 38.41C16.9283 38.2502 16.8785 38.0679 16.8785 37.8823C16.8785 37.6966 16.9283 37.5144 17.0228 37.3545L28.9788 16.5911C29.0851 16.4141 29.2355 16.2677 29.4151 16.166C29.5948 16.0644 29.7978 16.011 30.0042 16.011C30.2106 16.011 30.4136 16.0644 30.5933 16.166C30.7729 16.2677 30.9233 16.4141 31.0296 16.5911L42.9856 37.3545C43.0792 37.5149 43.1281 37.6974 43.1271 37.883C43.1262 38.0687 43.0754 38.2506 42.9802 38.41ZM28.9077 30.2342V24.7655C28.9077 24.4754 29.023 24.1972 29.2281 23.9921C29.4332 23.787 29.7114 23.6717 30.0015 23.6717C30.2915 23.6717 30.5697 23.787 30.7749 23.9921C30.98 24.1972 31.0952 24.4754 31.0952 24.7655V30.2342C31.0952 30.5243 30.98 30.8025 30.7749 31.0076C30.5697 31.2127 30.2915 31.328 30.0015 31.328C29.7114 31.328 29.4332 31.2127 29.2281 31.0076C29.023 30.8025 28.9077 30.5243 28.9077 30.2342ZM31.6421 35.1561C31.6421 35.4806 31.5459 35.7978 31.3656 36.0676C31.1853 36.3374 30.9291 36.5477 30.6293 36.6718C30.3295 36.796 29.9996 36.8285 29.6814 36.7652C29.3631 36.7019 29.0708 36.5456 28.8414 36.3162C28.6119 36.0867 28.4557 35.7944 28.3924 35.4762C28.3291 35.1579 28.3616 34.828 28.4857 34.5283C28.6099 34.2285 28.8202 33.9722 29.09 33.792C29.3598 33.6117 29.677 33.5155 30.0015 33.5155C30.4366 33.5155 30.8539 33.6883 31.1616 33.996C31.4692 34.3037 31.6421 34.721 31.6421 35.1561Z" fill="#0075C4"/>
</svg>
