<svg width="16" height="16" viewBox="0 0 16 16" fill="none" xmlns="http://www.w3.org/2000/svg">
<path d="M8.46794 2.01868C8.72948 2.01867 8.9636 2.18091 9.05544 2.42581L10.3671 5.92347L13.8647 7.23505C14.1096 7.32688 14.2719 7.561 14.2719 7.82255C14.2719 8.0841 14.1096 8.31822 13.8647 8.41006L10.3671 9.72172L9.05544 13.2194C8.9636 13.4643 8.72948 13.6265 8.46794 13.6265C8.20639 13.6265 7.97228 13.4643 7.88044 13.2194L6.56885 9.72172L3.0712 8.41006C2.82629 8.31822 2.66406 8.0841 2.66406 7.82255C2.66406 7.561 2.82631 7.32688 3.07121 7.23505L6.56885 5.92347L7.88044 2.42582C7.97228 2.18092 8.20639 2.01868 8.46794 2.01868Z" fill="white"/>
<path fill-rule="evenodd" clip-rule="evenodd" d="M3.61087 10.5304C3.87076 10.5304 4.08146 10.7411 4.08146 11.001V11.9422H5.02263C5.28253 11.9422 5.49322 12.1529 5.49322 12.4127C5.49322 12.6726 5.28253 12.8833 5.02263 12.8833H4.08146V13.8245C4.08146 14.0845 3.87076 14.2951 3.61087 14.2951C3.35097 14.2951 3.14028 14.0845 3.14028 13.8245V12.8833H2.1991C1.93921 12.8833 1.72852 12.6726 1.72852 12.4127C1.72852 12.1529 1.93921 11.9422 2.1991 11.9422H3.14028V11.001C3.14028 10.7411 3.35097 10.5304 3.61087 10.5304Z" fill="white"/>
<path fill-rule="evenodd" clip-rule="evenodd" d="M4.2549 1.70496C4.48592 1.70496 4.6732 1.89224 4.6732 2.12326V2.54156H5.0915C5.32252 2.54156 5.50981 2.72884 5.50981 2.95986C5.50981 3.19089 5.32252 3.37816 5.0915 3.37816H4.6732V3.79647C4.6732 4.02749 4.48592 4.21476 4.2549 4.21476C4.02389 4.21476 3.8366 4.02749 3.8366 3.79647V3.37816H3.41831C3.18728 3.37816 3 3.19089 3 2.95986C3 2.72884 3.18728 2.54156 3.41831 2.54156H3.8366V2.12326C3.8366 1.89224 4.02389 1.70496 4.2549 1.70496Z" fill="white"/>
</svg>
