<svg width="60" height="53" viewBox="0 0 60 53" fill="none" xmlns="http://www.w3.org/2000/svg">
<rect y="0.443359" width="60" height="52.5407" rx="12" fill="#EFF5F9"/>
<path d="M16.875 29.6304V23.797C16.875 18.2977 16.875 15.5472 18.5842 13.8395C20.2919 12.1304 23.0423 12.1304 28.5417 12.1304H31.4583C36.9577 12.1304 39.7081 12.1304 41.4158 13.8395C42.3696 14.7918 42.791 16.0679 42.9763 17.9637M43.125 23.797V29.6304C43.125 35.1297 43.125 37.8802 41.4158 39.5879C39.7081 41.297 36.9577 41.297 31.4583 41.297H28.5417C23.0423 41.297 20.2919 41.297 18.5842 39.5879C17.6304 38.6356 17.209 37.3595 17.0238 35.4637M24.1667 29.6304H31.4583M24.1667 23.797H25.625M35.8333 23.797H30" stroke="#0075C4" stroke-width="2.1875" stroke-linecap="round"/>
</svg>
