<svg width="60" height="53" viewBox="0 0 60 53" fill="none" xmlns="http://www.w3.org/2000/svg">
<rect y="0.443359" width="60" height="52.5407" rx="12" fill="#EFF5F9"/>
<path d="M29.9993 36.8302C30.8048 36.8302 31.4577 36.1773 31.4577 35.3719C31.4577 34.5665 30.8048 33.9136 29.9993 33.9136C29.1939 33.9136 28.541 34.5665 28.541 35.3719C28.541 36.1773 29.1939 36.8302 29.9993 36.8302Z" fill="#0075C4"/>
<path d="M36.8927 41.2052H23.1056C22.1906 41.1506 21.3343 40.7369 20.7228 40.0542C20.1113 39.3714 19.7941 38.4748 19.8404 37.5594V15.8681C19.7941 14.9527 20.1113 14.0561 20.7228 13.3733C21.3343 12.6905 22.1906 12.2769 23.1056 12.2223H36.8927C37.8076 12.2769 38.664 12.6905 39.2755 13.3733C39.887 14.0561 40.2041 14.9527 40.1579 15.8681V37.5594C40.2041 38.4748 39.887 39.3714 39.2755 40.0542C38.664 40.7369 37.8076 41.1506 36.8927 41.2052ZM23.1056 13.6806C22.5781 13.7363 22.0934 13.9966 21.7556 14.4056C21.4178 14.8145 21.2538 15.3396 21.2987 15.8681V37.5594C21.2538 38.0879 21.4178 38.613 21.7556 39.0219C22.0934 39.4309 22.5781 39.6912 23.1056 39.7469H36.8927C37.4202 39.6912 37.9048 39.4309 38.2426 39.0219C38.5804 38.613 38.7444 38.0879 38.6995 37.5594V15.8681C38.7444 15.3396 38.5804 14.8145 38.2426 14.4056C37.9048 13.9966 37.4202 13.7363 36.8927 13.6806H23.1056Z" fill="#0075C4"/>
</svg>
