<svg width="60" height="44" viewBox="0 0 60 44" fill="none" xmlns="http://www.w3.org/2000/svg">
<rect y="0.601929" width="60" height="43" rx="12" fill="#EFF5F9"/>
<g clip-path="url(#clip0_109_14194)">
<path d="M34.4722 31.0464H33.1944V22.1019C33.1944 21.6662 33.1944 18.2686 33.1944 18.2686C33.1944 18.2686 34.0365 18.2686 34.4722 18.2686C34.9079 18.2686 35.1111 18.2686 35.75 18.2686C35.75 18.9075 35.75 21.6662 35.75 22.1019C35.75 22.5376 35.75 30.4075 35.75 31.0464C35.1111 31.0464 34.9079 31.0464 34.4722 31.0464ZM28.0833 31.0464C28.0833 31.0464 28.0833 24.0186 28.0833 23.3797C28.0833 22.7408 28.0833 22.5376 28.0833 22.1019C28.0833 21.6662 28.0833 18.2686 28.0833 18.2686C28.7222 18.2686 30.2032 18.2686 30.6389 18.2686C30.6389 18.2686 30.6389 20.1853 30.6389 20.8242C30.6389 21.463 30.6389 21.6662 30.6389 22.1019V31.0464C30.6389 31.0464 28.519 31.0464 28.0833 31.0464ZM25.5278 18.2686V31.0464H22.9722V18.2686C22.3333 18.2686 22.3333 18.2686 22.9722 18.2686C22.9722 18.2686 25.5068 18.2796 25.5278 18.2686ZM18.5 14.7091C18.5 13.6198 18.9327 12.5751 19.703 11.8049C20.4732 11.0346 21.5179 10.6019 22.6071 10.6019H37.3929C38.4821 10.6019 39.5268 11.0346 40.297 11.8049C41.0673 12.5751 41.5 13.6198 41.5 14.7091V29.4948C41.5 30.5841 41.0673 31.6287 40.297 32.399C39.5268 33.1692 38.4821 33.6019 37.3929 33.6019H22.6071C21.5179 33.6019 20.4732 33.1692 19.703 32.399C18.9327 31.6287 18.5 30.5841 18.5 29.4948V14.7091ZM39.8571 17.1734H20.1429V29.4948C20.1429 30.1484 20.4025 30.7752 20.8646 31.2373C21.3268 31.6994 21.9536 31.9591 22.6071 31.9591H37.3929C38.0464 31.9591 38.6732 31.6994 39.1354 31.2373C39.5975 30.7752 39.8571 30.1484 39.8571 29.4948V17.1734ZM37.3929 12.2448H22.6071C21.9536 12.2448 21.3268 12.5044 20.8646 12.9666C20.4025 13.4287 20.1429 14.0555 20.1429 14.7091V15.5305H39.8571V14.7091C39.8571 14.0555 39.5975 13.4287 39.1354 12.9666C38.6732 12.5044 38.0464 12.2448 37.3929 12.2448Z" fill="#0075C4"/>
</g>
<defs>
<clipPath id="clip0_109_14194">
<rect width="23" height="23" fill="white" transform="translate(18.5 10.6019)"/>
</clipPath>
</defs>
</svg>
