<svg width="60" height="53" viewBox="0 0 60 53" fill="none" xmlns="http://www.w3.org/2000/svg">
<rect y="0.443359" width="60" height="52.5407" rx="12" fill="#EFF5F9"/>
<path d="M15.7324 26.7137C15.7324 29.5357 16.5692 32.2943 18.137 34.6407C19.7048 36.987 21.9332 38.8158 24.5403 39.8957C27.1475 40.9756 30.0163 41.2582 32.784 40.7076C35.5518 40.1571 38.0941 38.7982 40.0895 36.8028C42.0849 34.8074 43.4438 32.265 43.9944 29.4973C44.5449 26.7296 44.2624 23.8607 43.1824 21.2536C42.1025 18.6465 40.2738 16.4181 37.9274 14.8503C35.581 13.2825 32.8224 12.4457 30.0005 12.4457C25.9132 12.4412 21.9817 14.0138 19.0251 16.8359" stroke="#0075C4" stroke-width="2.5" stroke-linecap="round" stroke-linejoin="round"/>
<path d="M20.1229 12.4457L19.0254 16.8359L23.4156 17.9334M30.0008 19.0309V27.8113L24.2936 30.6649" stroke="#0075C4" stroke-width="2.5" stroke-linecap="round" stroke-linejoin="round"/>
</svg>
