<svg width="23" height="12" viewBox="0 0 23 12" fill="none" xmlns="http://www.w3.org/2000/svg">
<mask id="mask0_1_43511" style="mask-type:alpha" maskUnits="userSpaceOnUse" x="0" y="0" width="13" height="12">
<rect x="0.785156" y="0.667236" width="11.3095" height="10.4895" fill="#C4C4C4"/>
</mask>
<g mask="url(#mask0_1_43511)">
<path d="M22.227 4.70208L20.41 3.97034L18.8063 1.71384C18.3427 1.05977 17.527 0.6632 16.651 0.667267H9.8189C9.02635 0.667267 8.27541 0.990137 7.79338 1.5462L5.72153 3.93761L2.26836 4.77161C1.39225 4.98418 0.785156 5.69141 0.785156 6.49258V7.65768C0.785156 8.64286 1.6751 9.45632 2.79212 9.45632H3.0888C3.44566 10.6706 4.85014 11.3983 6.22673 11.0834C7.13051 10.875 7.83972 10.2536 8.07151 9.45632H15.8583C16.2153 10.6706 17.6197 11.3983 18.9963 11.0834C19.9001 10.875 20.6093 10.2536 20.8411 9.45632H21.3972C22.5143 9.45632 23.4042 8.64286 23.4042 7.65768V6.32911C23.4089 5.63011 22.9454 4.99231 22.227 4.70208ZM5.5778 10.3313C4.6693 10.3313 3.9323 9.68119 3.9323 8.88002C3.9323 8.07875 4.6693 7.42875 5.5778 7.42875C6.48619 7.42875 7.22318 8.07875 7.22318 8.88002C7.2279 9.67722 6.49091 10.3271 5.5778 10.3313ZM18.3475 10.3313C17.4389 10.3313 16.702 9.68119 16.702 8.88002C16.702 8.07875 17.4389 7.42875 18.3475 7.42875C19.2558 7.42875 19.9928 8.07875 19.9928 8.88002C19.9974 9.67722 19.2605 10.3271 18.3475 10.3313ZM21.3972 8.63879H20.9058C20.7529 7.39195 19.4783 6.49258 18.0646 6.63155C16.864 6.74612 15.9185 7.58408 15.7887 8.63879H8.13619C7.98323 7.39195 6.70865 6.49258 5.29495 6.63155C4.09448 6.74612 3.14887 7.58408 3.01908 8.63879H2.78729C2.18008 8.63879 1.70738 8.19322 1.70738 7.65768V6.49258C1.70277 6.05515 2.03185 5.67505 2.50927 5.55642L6.12 4.68561C6.21728 4.66111 6.30535 4.61201 6.36563 4.53841L8.52554 2.04068C8.83606 1.68914 9.31348 1.48471 9.81868 1.48471H16.6508C17.2069 1.48064 17.7308 1.73001 18.0228 2.14691L19.7007 4.50975C19.747 4.57919 19.8212 4.63235 19.8998 4.66509L21.8374 5.44592C22.2268 5.60532 22.477 5.94872 22.4724 6.32892V7.65749H22.477C22.4772 8.19322 22.0045 8.63879 21.3972 8.63879Z" fill="#EC6B46"/>
</g>
<mask id="mask1_1_43511" style="mask-type:alpha" maskUnits="userSpaceOnUse" x="12" y="1" width="11" height="11">
<rect x="12.6895" y="1.19189" width="9.52381" height="10.4895" fill="#C4C4C4"/>
</mask>
<g mask="url(#mask1_1_43511)">
<path d="M18.7407 2.76526C18.7407 2.48706 18.6194 2.22026 18.4036 2.02354C18.1878 1.82682 17.8951 1.71631 17.5899 1.71631H14.7129L18.7407 8.01002" stroke="#EC6B46" stroke-linecap="round" stroke-linejoin="round"/>
<path d="M18.7403 10.6325C20.3292 10.6325 21.6172 9.45838 21.6172 8.01008C21.6172 6.56178 20.3292 5.3877 18.7403 5.3877C17.1514 5.3877 15.8633 6.56178 15.8633 8.01008C15.8633 9.45838 17.1514 10.6325 18.7403 10.6325Z" stroke="#EC6B46" stroke-linecap="round" stroke-linejoin="round"/>
<path d="M7.23242 1.71631H9.24631L13.2741 8.01002" stroke="#EC6B46" stroke-linecap="round" stroke-linejoin="round"/>
<path d="M16.0135 3.81421H10.5889L7.23242 8.01002" stroke="#EC6B46" stroke-linecap="round" stroke-linejoin="round"/>
</g>
<line x1="12.5938" y1="0.642822" x2="12.5938" y2="10.1323" stroke="#EC6B46" stroke-linecap="round"/>
</svg>
