<svg width="25" height="25" viewBox="0 0 25 25" fill="none" xmlns="http://www.w3.org/2000/svg">
<path d="M19.214 8.84445C18.4204 8.84445 17.7748 9.49197 17.7748 10.2879V11.2604C17.5042 11.0831 17.1824 10.9779 16.8357 10.9779H16.405L17.4396 4.20936C17.4985 3.82566 17.3877 3.43676 17.1356 3.14203C16.8835 2.84751 16.5171 2.67847 16.1301 2.67847H8.09505C7.70802 2.67847 7.34156 2.84751 7.08955 3.14207C6.83737 3.4368 6.7266 3.8257 6.78552 4.20923L7.82016 10.9779H7.39165C7.04409 10.9779 6.72146 11.0836 6.45039 11.2621V10.2879C6.45039 9.49197 5.8048 8.84445 5.01116 8.84445C4.21799 8.84445 3.57227 9.49197 3.57227 10.2879C3.57227 10.5049 3.74744 10.6809 3.96401 10.6809C4.18058 10.6809 4.35558 10.5049 4.35558 10.2879C4.35558 9.92519 4.64975 9.63012 5.0112 9.63012C5.37299 9.63012 5.66716 9.92519 5.66716 10.2879C5.66716 10.2879 5.66883 12.7151 5.669 12.7182C5.67252 13.6685 6.44362 14.4407 7.39174 14.4407H10.297L6.77794 19.6561C6.6814 19.6341 6.58198 19.62 6.47905 19.62C5.73658 19.62 5.13268 20.2259 5.13268 20.9707C5.13268 21.7152 5.73658 22.3213 6.47905 22.3213C7.22136 22.3213 7.82577 21.7152 7.82577 20.9707C7.82577 20.6138 7.68454 20.2912 7.45833 20.0495L11.2426 14.4407H11.722V19.6848C11.1708 19.854 10.7659 20.363 10.7659 20.9707C10.7659 21.7152 11.3701 22.3213 12.1126 22.3213C12.8551 22.3213 13.4593 21.7152 13.4593 20.9707C13.4593 20.3639 13.0555 19.8553 12.5053 19.6855V14.4407H12.9802L16.7678 20.0482C16.5411 20.29 16.3993 20.6133 16.3993 20.9707C16.3993 21.7152 17.0037 22.3213 17.746 22.3213C18.4885 22.3213 19.0924 21.7152 19.0924 20.9707C19.0924 20.2259 18.4885 19.62 17.746 19.62C17.6438 19.62 17.5449 19.6337 17.449 19.6556L13.9266 14.4407H16.8358C17.7862 14.4407 18.5596 13.6651 18.5596 12.7118L18.5581 10.2879C18.5581 9.92519 18.8523 9.63012 19.2141 9.63012C19.5755 9.63012 19.8697 9.92519 19.8697 10.2879C19.8697 10.5049 20.0447 10.6809 20.2613 10.6809C20.4778 10.6809 20.653 10.5049 20.653 10.2879C20.6529 9.49201 20.0072 8.84445 19.214 8.84445ZM6.4791 21.5355C6.16851 21.5355 5.91604 21.2821 5.91604 20.9707C5.91604 20.6591 6.16856 20.4057 6.4791 20.4057C6.78968 20.4057 7.0425 20.6591 7.0425 20.9707C7.0425 21.2821 6.78968 21.5355 6.4791 21.5355ZM12.676 20.9707C12.676 21.2821 12.4232 21.5355 12.1126 21.5355C11.802 21.5355 11.5492 21.2821 11.5492 20.9707C11.5492 20.6591 11.802 20.4057 12.1126 20.4057C12.4232 20.4057 12.676 20.6591 12.676 20.9707ZM18.3091 20.9707C18.3091 21.2821 18.0566 21.5355 17.746 21.5355C17.4354 21.5355 17.1826 21.2821 17.1826 20.9707C17.1826 20.6591 17.4354 20.4057 17.746 20.4057C18.0566 20.4057 18.3091 20.6591 18.3091 20.9707ZM7.55958 4.09004C7.53516 3.93092 7.57951 3.77584 7.68389 3.65364C7.78866 3.53144 7.9344 3.46413 8.09505 3.46413H16.1301C16.2907 3.46413 16.4365 3.53144 16.5413 3.65364C16.6457 3.77584 16.69 3.93092 16.6656 4.09021L15.6127 10.9779H8.61243L7.55958 4.09004ZM16.8357 13.6551H7.39156C6.87333 13.6551 6.4515 13.2318 6.4515 12.7071C6.4515 12.1868 6.87333 11.7636 7.39156 11.7636H16.8357C17.3493 11.7636 17.7664 12.1787 17.7748 12.6918V12.7071C17.7748 12.7094 17.776 12.7112 17.7761 12.7136C17.775 13.2328 17.3538 13.6551 16.8357 13.6551Z" fill="#EC6B46"/>
</svg>
