<svg width="19" height="19" viewBox="0 0 19 19" fill="none" xmlns="http://www.w3.org/2000/svg">
<path d="M16.3366 4.75669C17.4906 4.75669 18.4293 3.81805 18.4293 2.66411C18.4293 1.51018 17.4906 0.571533 16.3366 0.571533C15.1827 0.571533 14.244 1.5103 14.244 2.66411C14.244 3.81805 15.1827 4.75669 16.3366 4.75669ZM16.3366 1.96663C16.7214 1.96663 17.0343 2.27955 17.0343 2.66411C17.0343 3.04868 16.7214 3.36172 16.3366 3.36172C15.952 3.36172 15.639 3.0488 15.639 2.66411C15.639 2.27943 15.9521 1.96663 16.3366 1.96663ZM2.66485 4.75669C3.81878 4.75669 4.75743 3.81805 4.75743 2.66411C4.75743 1.51018 3.81878 0.571533 2.66485 0.571533C1.51091 0.571533 0.572266 1.5103 0.572266 2.66411C0.572266 3.81805 1.51091 4.75669 2.66485 4.75669ZM2.66485 1.96663C3.04953 1.96663 3.36245 2.27955 3.36245 2.66411C3.36245 3.04868 3.04953 3.36172 2.66485 3.36172C2.28016 3.36172 1.96736 3.0488 1.96736 2.66411C1.96736 2.27943 2.28028 1.96663 2.66485 1.96663ZM16.3476 5.41937C16.3443 5.41937 16.3406 5.41937 16.3374 5.41937C14.8936 5.41937 14.3462 6.47067 14.0011 7.49968C13.8839 7.84967 13.6291 8.61439 13.462 9.1165H12.6398V7.51207C12.6398 6.35814 11.7011 5.41949 10.5471 5.41949H8.45455C7.30061 5.41949 6.36185 6.35814 6.36185 7.51207V9.1165H5.53955C5.37242 8.61439 5.11779 7.84967 5.00049 7.49968C4.65538 6.47067 4.10822 5.41937 2.66425 5.41937C2.66091 5.41937 2.65734 5.41937 2.65388 5.41937C1.50614 5.42331 0.572385 6.36219 0.572385 7.51195V11.3136C0.572385 12.2229 1.15555 12.9984 1.96748 13.2863V13.3017C1.98548 13.3017 2.003 13.303 2.02076 13.3043C2.09837 13.3294 2.178 13.3504 2.2593 13.3664C2.49831 13.4769 2.66497 13.7186 2.66497 13.9991V18.4284H4.06006V13.9991C4.06006 13.7933 4.02966 13.5943 3.97399 13.4062H4.79247C5.17704 13.4062 5.48996 13.7191 5.48996 14.1038V18.4284H6.88505V14.1038C6.88505 12.9498 5.94629 12.0111 4.79247 12.0111H2.66497C2.64697 12.0111 2.62944 12.0098 2.61168 12.0084C2.53395 11.9832 2.45444 11.9624 2.37314 11.9463C2.13401 11.8358 1.96748 11.594 1.96748 11.3136V7.51195C1.96748 7.12882 2.27766 6.81578 2.65888 6.81435C2.97407 6.81327 3.29868 6.8122 3.67764 7.94277C3.85883 8.48326 4.36964 10.0185 4.37477 10.0339L4.53355 10.5112H14.4684L14.6271 10.0339C14.6323 10.0184 15.1431 8.48326 15.3243 7.94277C15.7031 6.8122 16.0277 6.81363 16.3431 6.81435C16.7243 6.81578 17.0346 7.1287 17.0346 7.51195V11.3136C17.0346 11.594 16.8679 11.8358 16.6288 11.9463C16.5475 11.9624 16.4678 11.9832 16.3904 12.0084C16.3726 12.0098 16.3549 12.0111 16.3369 12.0111H14.2444C13.0903 12.0111 12.1518 12.9499 12.1518 14.1038V18.4284H13.5468V14.1038C13.5468 13.7191 13.8597 13.4062 14.2444 13.4062H15.0279C14.9723 13.5942 14.9419 13.7933 14.9419 13.9991V18.4284H16.3368V13.9991C16.3368 13.7186 16.5035 13.4769 16.7425 13.3664C16.8239 13.3503 16.9035 13.3293 16.9811 13.3043C16.9988 13.3028 17.0164 13.3017 17.0344 13.3017V13.2863C17.8462 12.9984 18.4294 12.2231 18.4294 11.3136V7.51195C18.4293 6.36219 17.4954 5.42343 16.3476 5.41937ZM7.75682 7.51207C7.75682 7.12751 8.06974 6.81447 8.45443 6.81447H10.547C10.9317 6.81447 11.2445 7.12739 11.2445 7.51207V9.1165H7.75682V7.51207ZM9.50072 4.75669C10.6547 4.75669 11.5934 3.81805 11.5934 2.66411C11.5934 1.51018 10.6547 0.571533 9.50072 0.571533C8.34678 0.571533 7.40814 1.5103 7.40814 2.66411C7.40814 3.81805 8.34678 4.75669 9.50072 4.75669ZM9.50072 1.96663C9.8854 1.96663 10.1983 2.27955 10.1983 2.66411C10.1983 3.04868 9.8854 3.36172 9.50072 3.36172C9.11603 3.36172 8.80323 3.0488 8.80323 2.66411C8.80323 2.27943 9.11615 1.96663 9.50072 1.96663Z" fill="#EC6B46"/>
</svg>
