<svg width="60" height="46" viewBox="0 0 60 46" fill="none" xmlns="http://www.w3.org/2000/svg">
<rect y="0.601929" width="60" height="45" rx="12" fill="#EFF5F9"/>
<path d="M30.0514 32.7448L25.7976 30.4767C24.5849 29.8315 23.5707 28.8683 22.864 27.6904C22.1573 26.5125 21.7847 25.1644 21.7861 23.7907V14.8367C21.7865 14.4714 21.9318 14.1212 22.19 13.863C22.4483 13.6047 22.7985 13.4595 23.1637 13.4591H36.9392C37.3044 13.4595 37.6546 13.6047 37.9129 13.863C38.1711 14.1212 38.3164 14.4714 38.3167 14.8367V23.7907C38.3182 25.1644 37.9456 26.5125 37.2389 27.6904C36.5322 28.8683 35.518 29.8315 34.3053 30.4767L30.0514 32.7448ZM23.1637 14.8367V23.7907C23.1625 24.9147 23.4675 26.0177 24.0458 26.9815C24.6242 27.9452 25.4541 28.7332 26.4464 29.261L30.0514 31.1834L33.6565 29.2617C34.6489 28.7339 35.4789 27.9457 36.0572 26.9819C36.6356 26.018 36.9405 24.9148 36.9392 23.7907V14.8367H23.1637Z" fill="#0075C4"/>
</svg>
