<svg width="60" height="53" viewBox="0 0 60 53" fill="none" xmlns="http://www.w3.org/2000/svg">
<rect x="-0.000976562" y="0.443359" width="60" height="52.5407" rx="12" fill="#EFF5F9"/>
<path d="M15.7314 26.7137C15.7314 29.5357 16.5683 32.2943 18.136 34.6407C19.7038 36.987 21.9322 38.8158 24.5394 39.8957C27.1465 40.9756 30.0153 41.2582 32.7831 40.7076C35.5508 40.1571 38.0931 38.7982 40.0885 36.8028C42.084 34.8074 43.4429 32.265 43.9934 29.4973C44.5439 26.7296 44.2614 23.8607 43.1815 21.2536C42.1016 18.6465 40.2728 16.4181 37.9264 14.8503C35.58 13.2825 32.8215 12.4457 29.9995 12.4457C25.9122 12.4412 21.9807 14.0138 19.0241 16.8359" stroke="#0075C4" stroke-width="2.5" stroke-linecap="round" stroke-linejoin="round"/>
<path d="M20.122 12.4457L19.0244 16.8359L23.4146 17.9334M29.9998 19.0309V27.8113L24.2926 30.6649" stroke="#0075C4" stroke-width="2.5" stroke-linecap="round" stroke-linejoin="round"/>
</svg>
