<svg width="41" height="41" viewBox="0 0 41 41" fill="none" xmlns="http://www.w3.org/2000/svg">
<rect x="0.99239" y="0.500203" width="39.0158" height="39.0158" rx="19.5079" stroke="#F17B39" stroke-width="1.00041"/>
<path d="M30.5042 13.9294C29.7602 14.2558 28.9673 14.4721 28.1407 14.5772C28.9911 14.0695 29.6401 13.2716 29.9452 12.31C29.1524 12.7827 28.277 13.1166 27.3442 13.3029C26.5914 12.5013 25.5184 12.0049 24.348 12.0049C22.077 12.0049 20.2488 13.8481 20.2488 16.1078C20.2488 16.4329 20.2763 16.7456 20.3438 17.0432C16.9337 16.8769 13.9162 15.2424 11.8892 12.7527C11.5353 13.3667 11.3277 14.0695 11.3277 14.826C11.3277 16.2466 12.0592 17.5059 13.1497 18.2349C12.4907 18.2224 11.8441 18.0311 11.2964 17.7297C11.2964 17.7422 11.2964 17.7585 11.2964 17.7747C11.2964 19.768 12.7182 21.4237 14.5827 21.8051C14.2489 21.8964 13.885 21.9402 13.5073 21.9402C13.2447 21.9402 12.9796 21.9252 12.7307 21.8701C13.2622 23.4945 14.7703 24.6888 16.5636 24.7275C15.168 25.8192 13.396 26.477 11.4777 26.477C11.1414 26.477 10.8187 26.462 10.4961 26.4207C12.3131 27.5925 14.4665 28.2615 16.7886 28.2615C24.3367 28.2615 28.4634 22.0089 28.4634 16.5892C28.4634 16.4079 28.4571 16.2328 28.4484 16.059C29.2624 15.4813 29.9465 14.7597 30.5042 13.9294Z" fill="#F17B39"/>
</svg>
