<svg width="60" height="55" viewBox="0 0 60 55" fill="none" xmlns="http://www.w3.org/2000/svg">
<rect width="60" height="55" rx="12" fill="#EFF5F9"/>
<path d="M30 10C20.3427 10 12.5 17.8427 12.5 27.5C12.5 37.1573 20.3427 45 30 45C39.6573 45 47.5 37.1573 47.5 27.5C47.5 17.8427 39.6573 10 30 10ZM30 11.3462C38.929 11.3462 46.1538 18.571 46.1538 27.5C46.1538 36.429 38.929 43.6538 30 43.6538C21.071 43.6538 13.8462 36.429 13.8462 27.5C13.8462 18.571 21.071 11.3462 30 11.3462ZM30 14.0385C22.5827 14.0385 16.5385 20.0827 16.5385 27.5C16.5385 34.9173 22.5827 40.9615 30 40.9615C37.4173 40.9615 43.4615 34.9173 43.4615 27.5C43.4615 20.0827 37.4173 14.0385 30 14.0385ZM30 16.7308C35.9635 16.7308 40.7692 21.5365 40.7692 27.5C40.7692 33.4635 35.9635 38.2692 30 38.2692C24.0365 38.2692 19.2308 33.4635 19.2308 27.5C19.2308 21.5365 24.0365 16.7308 30 16.7308ZM30 19.4231C25.555 19.4231 21.9231 23.055 21.9231 27.5C21.9231 31.945 25.555 35.5769 30 35.5769C34.445 35.5769 38.0769 31.945 38.0769 27.5C38.0769 23.055 34.445 19.4231 30 19.4231ZM30 22.1154C32.9885 22.1154 35.3846 24.5115 35.3846 27.5C35.3846 30.4885 32.9885 32.8846 30 32.8846C27.0115 32.8846 24.6154 30.4885 24.6154 27.5C24.6154 24.5115 27.0115 22.1154 30 22.1154ZM30 24.8077C29.6415 24.7996 29.2849 24.8632 28.9513 24.9948C28.6177 25.1264 28.3137 25.3233 28.0573 25.5739C27.8008 25.8246 27.597 26.124 27.4578 26.4545C27.3187 26.785 27.2469 27.14 27.2468 27.4986C27.2467 27.8573 27.3183 28.2123 27.4573 28.5429C27.5963 28.8735 27.8 29.173 28.0563 29.4238C28.3126 29.6746 28.6165 29.8716 28.9501 30.0034C29.2836 30.1351 29.6401 30.1989 29.9987 30.191C30.7021 30.1754 31.3715 29.8851 31.8636 29.3821C32.3556 28.8792 32.6313 28.2036 32.6314 27.5C32.6316 26.7964 32.3563 26.1206 31.8645 25.6174C31.3727 25.1143 30.7034 24.8236 30 24.8077Z" fill="#0075C4"/>
</svg>
