<svg width="60" height="55" viewBox="0 0 60 55" fill="none" xmlns="http://www.w3.org/2000/svg">
<rect x="-0.000976562" y="-0.00012207" width="60" height="55" rx="12" fill="#EFF5F9"/>
<g clip-path="url(#clip0_1_46131)">
<path d="M20.6658 9.99988V21.6665M39.3324 9.99988V21.6665M24.1658 29.8332L28.8324 34.4999L36.9991 25.1665M15.9991 15.8332H43.9991C44.6179 15.8332 45.2114 16.079 45.649 16.5166C46.0866 16.9542 46.3324 17.5477 46.3324 18.1665V41.4999C46.3324 42.1187 46.0866 42.7122 45.649 43.1498C45.2114 43.5874 44.6179 43.8332 43.9991 43.8332H15.9991C15.3803 43.8332 14.7868 43.5874 14.3492 43.1498C13.9116 42.7122 13.6658 42.1187 13.6658 41.4999V18.1665C13.6658 17.5477 13.9116 16.9542 14.3492 16.5166C14.7868 16.079 15.3803 15.8332 15.9991 15.8332Z" stroke="#0075C4" stroke-width="2.33333"/>
</g>
<defs>
<clipPath id="clip0_1_46131">
<rect width="35" height="35" fill="white" transform="translate(12.499 9.99988)"/>
</clipPath>
</defs>
</svg>
