<svg width="60" height="55" viewBox="0 0 60 55" fill="none" xmlns="http://www.w3.org/2000/svg">
<rect width="60" height="55" rx="12" fill="#EFF5F9"/>
<path d="M35.4187 28.75V32.9163H39.5837V37.0813H43.75V41.25H39.5837V37.0837H35.4187V41.25H31.25V37.0837H35.4163V32.9175H31.25V28.75H35.4187ZM25.625 28.75C26.4538 28.75 27.2487 29.0792 27.8347 29.6653C28.4208 30.2513 28.75 31.0462 28.75 31.875V38.125C28.75 38.9538 28.4208 39.7487 27.8347 40.3347C27.2487 40.9208 26.4538 41.25 25.625 41.25H19.375C18.5462 41.25 17.7513 40.9208 17.1653 40.3347C16.5792 39.7487 16.25 38.9538 16.25 38.125V31.875C16.25 31.0462 16.5792 30.2513 17.1653 29.6653C17.7513 29.0792 18.5462 28.75 19.375 28.75H25.625ZM25.625 31.25H19.375C19.2092 31.25 19.0503 31.3158 18.9331 31.4331C18.8158 31.5503 18.75 31.7092 18.75 31.875V38.125C18.75 38.2908 18.8158 38.4497 18.9331 38.5669C19.0503 38.6842 19.2092 38.75 19.375 38.75H25.625C25.7908 38.75 25.9497 38.6842 26.0669 38.5669C26.1842 38.4497 26.25 38.2908 26.25 38.125V31.875C26.25 31.7092 26.1842 31.5503 26.0669 31.4331C25.9497 31.3158 25.7908 31.25 25.625 31.25ZM24.6875 32.8125V37.1875H20.3125V32.8125H24.6875ZM43.75 28.75V32.9163H39.5837V28.75H43.75ZM25.625 13.75C26.4538 13.75 27.2487 14.0792 27.8347 14.6653C28.4208 15.2513 28.75 16.0462 28.75 16.875V23.125C28.75 23.9538 28.4208 24.7487 27.8347 25.3347C27.2487 25.9208 26.4538 26.25 25.625 26.25H19.375C18.5462 26.25 17.7513 25.9208 17.1653 25.3347C16.5792 24.7487 16.25 23.9538 16.25 23.125V16.875C16.25 16.0462 16.5792 15.2513 17.1653 14.6653C17.7513 14.0792 18.5462 13.75 19.375 13.75H25.625ZM40.625 13.75C41.4538 13.75 42.2487 14.0792 42.8347 14.6653C43.4208 15.2513 43.75 16.0462 43.75 16.875V23.125C43.75 23.9538 43.4208 24.7487 42.8347 25.3347C42.2487 25.9208 41.4538 26.25 40.625 26.25H34.375C33.5462 26.25 32.7513 25.9208 32.1653 25.3347C31.5792 24.7487 31.25 23.9538 31.25 23.125V16.875C31.25 16.0462 31.5792 15.2513 32.1653 14.6653C32.7513 14.0792 33.5462 13.75 34.375 13.75H40.625ZM25.625 16.25H19.375C19.2092 16.25 19.0503 16.3158 18.9331 16.4331C18.8158 16.5503 18.75 16.7092 18.75 16.875V23.125C18.75 23.2908 18.8158 23.4497 18.9331 23.5669C19.0503 23.6842 19.2092 23.75 19.375 23.75H25.625C25.7908 23.75 25.9497 23.6842 26.0669 23.5669C26.1842 23.4497 26.25 23.2908 26.25 23.125V16.875C26.25 16.7092 26.1842 16.5503 26.0669 16.4331C25.9497 16.3158 25.7908 16.25 25.625 16.25ZM40.625 16.25H34.375C34.2092 16.25 34.0503 16.3158 33.9331 16.4331C33.8158 16.5503 33.75 16.7092 33.75 16.875V23.125C33.75 23.2908 33.8158 23.4497 33.9331 23.5669C34.0503 23.6842 34.2092 23.75 34.375 23.75H40.625C40.7908 23.75 40.9497 23.6842 41.0669 23.5669C41.1842 23.4497 41.25 23.2908 41.25 23.125V16.875C41.25 16.7092 41.1842 16.5503 41.0669 16.4331C40.9497 16.3158 40.7908 16.25 40.625 16.25ZM39.6875 17.8125V22.1875H35.3125V17.8125H39.6875ZM24.6838 17.815V22.1838H20.3162V17.815H24.6838Z" fill="#0075C4"/>
</svg>
