<svg width="60" height="55" viewBox="0 0 60 55" fill="none" xmlns="http://www.w3.org/2000/svg">
<rect width="60" height="55" rx="12" fill="#EFF5F9"/>
<path d="M42.0312 22.1562H35.1953V15.125C35.1953 14.6029 34.9937 14.1021 34.6347 13.7329C34.2757 13.3637 33.7889 13.1562 33.2812 13.1562H26.7188C26.2111 13.1562 25.7243 13.3637 25.3653 13.7329C25.0063 14.1021 24.8047 14.6029 24.8047 15.125V22.1562H17.9688C17.4611 22.1562 16.9743 22.3637 16.6153 22.7329C16.2563 23.1021 16.0547 23.6029 16.0547 24.125V30.875C16.0547 31.3971 16.2563 31.8979 16.6153 32.2671C16.9743 32.6363 17.4611 32.8438 17.9688 32.8438H24.8047V39.875C24.8047 40.3971 25.0063 40.8979 25.3653 41.2671C25.7243 41.6363 26.2111 41.8438 26.7188 41.8438H33.2812C33.7889 41.8438 34.2757 41.6363 34.6347 41.2671C34.9937 40.8979 35.1953 40.3971 35.1953 39.875V32.8438H42.0312C42.5389 32.8438 43.0257 32.6363 43.3847 32.2671C43.7437 31.8979 43.9453 31.3971 43.9453 30.875V24.125C43.9453 23.6029 43.7437 23.1021 43.3847 22.7329C43.0257 22.3637 42.5389 22.1562 42.0312 22.1562ZM42.3047 30.875C42.3047 30.9496 42.2759 31.0211 42.2246 31.0739C42.1733 31.1266 42.1038 31.1562 42.0312 31.1562H34.375C34.1574 31.1562 33.9488 31.2451 33.795 31.4034C33.6411 31.5616 33.5547 31.7762 33.5547 32V39.875C33.5547 39.9496 33.5259 40.0211 33.4746 40.0739C33.4233 40.1266 33.3538 40.1562 33.2812 40.1562H26.7188C26.6462 40.1562 26.5767 40.1266 26.5254 40.0739C26.4741 40.0211 26.4453 39.9496 26.4453 39.875V32C26.4453 31.7762 26.3589 31.5616 26.205 31.4034C26.0512 31.2451 25.8426 31.1562 25.625 31.1562H17.9688C17.8962 31.1562 17.8267 31.1266 17.7754 31.0739C17.7241 31.0211 17.6953 30.9496 17.6953 30.875V24.125C17.6953 24.0504 17.7241 23.9789 17.7754 23.9261C17.8267 23.8734 17.8962 23.8438 17.9688 23.8438H25.625C25.8426 23.8438 26.0512 23.7549 26.205 23.5966C26.3589 23.4384 26.4453 23.2238 26.4453 23V15.125C26.4453 15.0504 26.4741 14.9789 26.5254 14.9261C26.5767 14.8734 26.6462 14.8438 26.7188 14.8438H33.2812C33.3538 14.8438 33.4233 14.8734 33.4746 14.9261C33.5259 14.9789 33.5547 15.0504 33.5547 15.125V23C33.5547 23.2238 33.6411 23.4384 33.795 23.5966C33.9488 23.7549 34.1574 23.8438 34.375 23.8438H42.0312C42.1038 23.8438 42.1733 23.8734 42.2246 23.9261C42.2759 23.9789 42.3047 24.0504 42.3047 24.125V30.875Z" fill="#0075C4"/>
</svg>
